<svg width="448" height="224" viewBox="0 0 448 224" fill="none" xmlns="http://www.w3.org/2000/svg">
<path fill-rule="evenodd" clip-rule="evenodd" d="M129.734 37.7067C127.17 37.7067 125.091 39.7854 125.091 42.3497C125.091 44.914 127.17 46.9928 129.734 46.9928C132.298 46.9928 134.377 44.914 134.377 42.3497C134.377 39.7854 132.298 37.7067 129.734 37.7067ZM119.273 42.3497C119.273 36.5721 123.956 31.8885 129.734 31.8885C135.512 31.8885 140.195 36.5721 140.195 42.3497C140.195 46.6782 137.566 50.3927 133.818 51.9837L133.818 172.464C137.566 174.055 140.195 177.769 140.195 182.098C140.195 187.875 135.512 192.559 129.734 192.559C125.405 192.559 121.691 189.93 120.1 186.182H51.8612C50.2769 189.867 46.6143 192.447 42.3491 192.447C36.6333 192.447 31.9998 187.813 31.9998 182.098C31.9998 178.007 34.3733 174.47 37.8182 172.79L37.8182 101.293C34.3702 99.5822 32 96.0258 32 91.9158C32 86.1382 36.6837 81.4545 42.4613 81.4545C44.5115 81.4545 46.424 82.0443 48.0383 83.0635L119.273 42.3883C119.273 42.3754 119.273 42.3626 119.273 42.3497ZM122.968 50.3284L52.8117 90.3877C52.8847 90.8865 52.9225 91.3967 52.9225 91.9158C52.9225 96.2442 50.2937 99.9587 46.5455 101.55L46.5455 172.635C48.7369 173.608 50.5274 175.32 51.6008 177.455H120.357C121.373 175.406 123.042 173.737 125.091 172.721L125.091 51.7267C124.325 51.3469 123.613 50.876 122.968 50.3284ZM183.511 64.1523C180.449 64.1523 177.685 63.4988 175.221 62.1918C172.793 60.8848 170.87 59.0176 169.451 56.5904C168.069 54.1631 167.379 51.325 167.379 48.0762C167.379 44.8647 168.088 42.0453 169.507 39.618C170.926 37.1533 172.868 35.2675 175.333 33.9605C177.797 32.6535 180.561 32 183.623 32C186.685 32 189.448 32.6535 191.913 33.9605C194.378 35.2675 196.319 37.1533 197.738 39.618C199.158 42.0453 199.867 44.8647 199.867 48.0762C199.867 51.2876 199.139 54.1257 197.682 56.5904C196.263 59.0176 194.303 60.8848 191.801 62.1918C189.336 63.4988 186.573 64.1523 183.511 64.1523ZM183.511 55.8622C185.341 55.8622 186.89 55.19 188.16 53.8456C189.467 52.5013 190.121 50.5781 190.121 48.0762C190.121 45.5742 189.486 43.651 188.216 42.3067C186.984 40.9623 185.453 40.2901 183.623 40.2901C181.756 40.2901 180.206 40.9623 178.974 42.3067C177.741 43.6137 177.125 45.5368 177.125 48.0762C177.125 50.5781 177.723 52.5013 178.918 53.8456C180.15 55.19 181.681 55.8622 183.511 55.8622ZM213.407 36.8733C214.34 35.4169 215.629 34.2406 217.272 33.3443C218.915 32.4481 220.838 32 223.041 32C225.618 32 227.952 32.6535 230.043 33.9605C232.134 35.2675 233.777 37.1347 234.972 39.562C236.205 41.9892 236.821 44.8086 236.821 48.0201C236.821 51.2316 236.205 54.0697 234.972 56.5343C233.777 58.9616 232.134 60.8475 230.043 62.1918C227.952 63.4988 225.618 64.1523 223.041 64.1523C220.875 64.1523 218.952 63.7042 217.272 62.808C215.629 61.9117 214.34 60.7541 213.407 59.3351V73.7665C212.028 73.0254 210.444 72.6548 208.654 72.6548C206.844 72.6548 205.236 73.0167 203.828 73.7406V32.4481H213.407V36.8733ZM227.074 48.0201C227.074 45.6302 226.402 43.763 225.058 42.4187C223.751 41.037 222.126 40.3462 220.185 40.3462C218.28 40.3462 216.656 41.037 215.311 42.4187C214.004 43.8004 213.351 45.6862 213.351 48.0762C213.351 50.4661 214.004 52.3519 215.311 53.7336C216.656 55.1153 218.28 55.8062 220.185 55.8062C222.089 55.8062 223.713 55.1153 225.058 53.7336C226.402 52.3146 227.074 50.4101 227.074 48.0201ZM270.021 50.3727C270.133 49.4018 270.189 48.4683 270.189 47.572C270.189 44.4352 269.517 41.6905 268.173 39.3379C266.866 36.9853 265.036 35.1742 262.683 33.9045C260.331 32.6348 257.642 32 254.617 32C251.518 32 248.773 32.6535 246.383 33.9605C243.993 35.2675 242.126 37.1347 240.782 39.562C239.475 41.9892 238.821 44.8273 238.821 48.0762C238.821 51.325 239.493 54.1631 240.838 56.5904C242.182 59.0176 244.049 60.8848 246.439 62.1918C248.829 63.4988 251.555 64.1523 254.617 64.1523C257.157 64.1523 259.453 63.6855 261.507 62.7519C263.561 61.8184 265.26 60.53 266.604 58.8869C267.986 57.2439 268.938 55.3954 269.461 53.3415H259.266C258.333 55.358 256.671 56.3663 254.281 56.3663C252.675 56.3663 251.312 55.8622 250.192 54.8539C249.109 53.8083 248.493 52.3146 248.344 50.3727H270.021ZM258.706 41.1304C259.827 42.1013 260.387 43.4083 260.387 45.0514H248.4C248.661 43.3336 249.333 42.0079 250.416 41.0743C251.536 40.1408 252.899 39.674 254.505 39.674C256.186 39.674 257.586 40.1594 258.706 41.1304ZM293.167 32.112C296.827 32.112 299.739 33.307 301.905 35.697C304.108 38.0496 305.21 41.2984 305.21 45.4435V63.7042H295.688V46.7318C295.688 44.6406 295.146 43.0162 294.063 41.8585C292.98 40.7009 291.524 40.1221 289.694 40.1221C287.864 40.1221 286.408 40.7009 285.325 41.8585C284.242 43.0162 283.701 44.6406 283.701 46.7318V63.7042H274.122V32.4481H283.701V36.5932C284.671 35.2115 285.978 34.1286 287.622 33.3443C289.265 32.5228 291.113 32.112 293.167 32.112ZM208.76 87.3783C207.079 87.3783 205.697 86.8928 204.615 85.9219C203.569 84.9137 203.046 83.6814 203.046 82.225C203.046 80.7313 203.569 79.4989 204.615 78.528C205.697 77.5198 207.079 77.0156 208.76 77.0156C210.403 77.0156 211.747 77.5198 212.793 78.528C213.876 79.4989 214.417 80.7313 214.417 82.225C214.417 83.6814 213.876 84.9137 212.793 85.9219C211.747 86.8928 210.403 87.3783 208.76 87.3783ZM165.141 106.199C165.141 102.988 165.738 100.168 166.933 97.741C168.165 95.3137 169.827 93.4465 171.918 92.1395C174.009 90.8325 176.343 90.179 178.92 90.179C180.974 90.179 182.841 90.6085 184.522 91.4674C186.239 92.3262 187.584 93.4839 188.555 94.9403V80.4325H198.133V121.883H188.555V117.402C187.658 118.896 186.37 120.091 184.69 120.987C183.046 121.883 181.123 122.331 178.92 122.331C176.343 122.331 174.009 121.678 171.918 120.371C169.827 119.026 168.165 117.141 166.933 114.713C165.738 112.249 165.141 109.411 165.141 106.199ZM188.555 106.255C188.555 103.865 187.882 101.979 186.538 100.598C185.231 99.216 183.625 98.5252 181.721 98.5252C179.816 98.5252 178.192 99.216 176.848 100.598C175.541 101.942 174.887 103.809 174.887 106.199C174.887 108.589 175.541 110.494 176.848 111.913C178.192 113.294 179.816 113.985 181.721 113.985C183.625 113.985 185.231 113.294 186.538 111.913C187.882 110.531 188.555 108.645 188.555 106.255ZM236.987 91.5234C235.343 90.6271 233.42 90.179 231.217 90.179C228.64 90.179 226.306 90.8325 224.215 92.1395C222.124 93.4465 220.462 95.3137 219.23 97.741C218.035 100.168 217.437 102.988 217.437 106.199C217.437 109.411 218.035 112.249 219.23 114.713C220.462 117.141 222.124 119.026 224.215 120.371C226.306 121.678 228.64 122.331 231.217 122.331C233.42 122.331 235.343 121.883 236.987 120.987C238.63 120.053 239.918 118.858 240.852 117.402V121.827C240.852 124.329 240.254 126.14 239.059 127.261C237.901 128.418 236.333 128.997 234.354 128.997C232.711 128.997 231.329 128.642 230.209 127.933C229.088 127.261 228.379 126.327 228.08 125.132H218.614C219.025 128.866 220.668 131.816 223.543 133.982C226.418 136.186 230.171 137.287 234.802 137.287C238.275 137.287 241.169 136.596 243.484 135.215C245.837 133.833 247.573 131.966 248.694 129.613C249.851 127.298 250.43 124.703 250.43 121.827V90.6271H240.852V95.0523C239.955 93.5959 238.667 92.4196 236.987 91.5234ZM238.835 100.598C240.179 101.979 240.852 103.865 240.852 106.255C240.852 108.645 240.179 110.531 238.835 111.913C237.528 113.294 235.922 113.985 234.018 113.985C232.113 113.985 230.489 113.294 229.145 111.913C227.837 110.494 227.184 108.589 227.184 106.199C227.184 103.809 227.837 101.942 229.145 100.598C230.489 99.216 232.113 98.5252 234.018 98.5252C235.922 98.5252 237.528 99.216 238.835 100.598ZM261.057 87.3783C259.376 87.3783 257.994 86.8928 256.911 85.9219C255.866 84.9137 255.343 83.6814 255.343 82.225C255.343 80.7313 255.866 79.4989 256.911 78.528C257.994 77.5198 259.376 77.0156 261.057 77.0156C262.7 77.0156 264.044 77.5198 265.09 78.528C266.173 79.4989 266.714 80.7313 266.714 82.225C266.714 83.6814 266.173 84.9137 265.09 85.9219C264.044 86.8928 262.7 87.3783 261.057 87.3783ZM265.818 121.883H256.239V90.6271H265.818V121.883ZM289.059 121.883V113.761H285.643C284.597 113.761 283.85 113.556 283.402 113.145C282.954 112.734 282.73 112.062 282.73 111.128V98.5812H289.003V90.6271H282.73V83.0092H273.151V90.6271H269.342V98.5812H273.151V111.016C273.151 114.863 274.122 117.645 276.064 119.363C278.006 121.043 280.713 121.883 284.186 121.883H289.059ZM291.37 106.199C291.37 102.988 291.967 100.168 293.162 97.741C294.395 95.3137 296.057 93.4465 298.148 92.1395C300.239 90.8325 302.573 90.179 305.15 90.179C307.353 90.179 309.276 90.6271 310.919 91.5234C312.599 92.4196 313.888 93.5959 314.784 95.0523V90.6271H324.363V121.883H314.784V117.458C313.85 118.914 312.543 120.091 310.863 120.987C309.22 121.883 307.297 122.331 305.094 122.331C302.554 122.331 300.239 121.678 298.148 120.371C296.057 119.026 294.395 117.141 293.162 114.713C291.967 112.249 291.37 109.411 291.37 106.199ZM314.784 106.255C314.784 103.865 314.112 101.979 312.768 100.598C311.461 99.216 309.855 98.5252 307.95 98.5252C306.046 98.5252 304.421 99.216 303.077 100.598C301.77 101.942 301.117 103.809 301.117 106.199C301.117 108.589 301.77 110.494 303.077 111.913C304.421 113.294 306.046 113.985 307.95 113.985C309.855 113.985 311.461 113.294 312.768 111.913C314.112 110.531 314.784 108.645 314.784 106.255ZM339.75 121.883V80.4325H330.172V121.883H339.75ZM208.654 91.6749C206.893 91.6749 205.323 91.345 203.943 90.685V121.884H213.521V90.6278H213.362C211.994 91.3259 210.425 91.6749 208.654 91.6749ZM334.983 141.197C333.302 141.197 331.92 140.712 330.837 139.741C329.792 138.733 329.269 137.5 329.269 136.044C329.269 134.55 329.792 133.318 330.837 132.347C331.92 131.339 333.302 130.835 334.983 130.835C336.626 130.835 337.97 131.339 339.016 132.347C340.099 133.318 340.64 134.55 340.64 136.044C340.64 137.5 340.099 138.733 339.016 139.741C337.97 140.712 336.626 141.197 334.983 141.197ZM339.744 175.702H330.165V144.446H339.744V175.702ZM213.521 134.251V175.702H203.943V134.251H213.521ZM176.624 148.871C177.558 147.415 178.846 146.238 180.489 145.342C182.132 144.446 184.055 143.998 186.258 143.998C188.835 143.998 191.169 144.651 193.26 145.958C195.352 147.265 196.995 149.133 198.19 151.56C199.422 153.987 200.038 156.807 200.038 160.018C200.038 163.23 199.422 166.068 198.19 168.532C196.995 170.96 195.352 172.845 193.26 174.19C191.169 175.497 188.835 176.15 186.258 176.15C184.093 176.15 182.169 175.702 180.489 174.806C178.846 173.91 177.558 172.752 176.624 171.333V192H167.046V144.446H176.624V148.871ZM190.292 160.018C190.292 157.628 189.619 155.761 188.275 154.417C186.968 153.035 185.344 152.344 183.402 152.344C181.497 152.344 179.873 153.035 178.529 154.417C177.222 155.798 176.568 157.684 176.568 160.074C176.568 162.464 177.222 164.35 178.529 165.732C179.873 167.113 181.497 167.804 183.402 167.804C185.306 167.804 186.931 167.113 188.275 165.732C189.619 164.312 190.292 162.408 190.292 160.018ZM219.908 151.56C218.713 153.987 218.116 156.807 218.116 160.018C218.116 163.23 218.713 166.068 219.908 168.532C221.141 170.96 222.802 172.845 224.894 174.19C226.985 175.497 229.3 176.15 231.839 176.15C234.043 176.15 235.966 175.702 237.609 174.806C239.289 173.91 240.596 172.733 241.53 171.277V175.702H251.108V144.446H241.53V148.871C240.634 147.415 239.345 146.238 237.665 145.342C236.022 144.446 234.099 143.998 231.895 143.998C229.319 143.998 226.985 144.651 224.894 145.958C222.802 147.265 221.141 149.133 219.908 151.56ZM239.513 154.417C240.858 155.798 241.53 157.684 241.53 160.074C241.53 162.464 240.858 164.35 239.513 165.732C238.206 167.113 236.601 167.804 234.696 167.804C232.792 167.804 231.167 167.113 229.823 165.732C228.516 164.312 227.862 162.408 227.862 160.018C227.862 157.628 228.516 155.761 229.823 154.417C231.167 153.035 232.792 152.344 234.696 152.344C236.601 152.344 238.206 153.035 239.513 154.417ZM275.963 144.11C279.622 144.11 282.535 145.305 284.701 147.695C286.904 150.047 288.006 153.296 288.006 157.441V175.702H278.483V158.73C278.483 156.639 277.942 155.014 276.859 153.856C275.776 152.699 274.319 152.12 272.49 152.12C270.66 152.12 269.203 152.699 268.121 153.856C267.038 155.014 266.496 156.639 266.496 158.73V175.702H256.918V144.446H266.496V148.591C267.467 147.209 268.774 146.126 270.417 145.342C272.06 144.521 273.909 144.11 275.963 144.11ZM321.325 147.695C319.159 145.305 316.246 144.11 312.586 144.11C310.533 144.11 308.684 144.521 307.041 145.342C305.398 146.126 304.091 147.209 303.12 148.591V144.446H293.541V175.702H303.12V158.73C303.12 156.639 303.661 155.014 304.744 153.856C305.827 152.699 307.284 152.12 309.113 152.12C310.943 152.12 312.4 152.699 313.483 153.856C314.566 155.014 315.107 156.639 315.107 158.73V175.702H324.63V157.441C324.63 153.296 323.528 150.047 321.325 147.695ZM373.348 147.695C371.182 145.305 368.269 144.11 364.61 144.11C362.556 144.11 360.707 144.521 359.064 145.342C357.421 146.126 356.114 147.209 355.143 148.591V144.446H345.565V175.702H355.143V158.73C355.143 156.639 355.685 155.014 356.768 153.856C357.851 152.699 359.307 152.12 361.137 152.12C362.967 152.12 364.423 152.699 365.506 153.856C366.589 155.014 367.13 156.639 367.13 158.73V175.702H376.653V157.441C376.653 153.296 375.551 150.047 373.348 147.695ZM395.656 143.998C397.86 143.998 399.783 144.446 401.426 145.342C403.106 146.238 404.395 147.415 405.291 148.871V144.446H414.869V175.646C414.869 178.521 414.291 181.117 413.133 183.432C412.013 185.785 410.276 187.652 407.924 189.034C405.608 190.415 402.714 191.106 399.241 191.106C394.611 191.106 390.858 190.004 387.982 187.801C385.107 185.635 383.464 182.685 383.053 178.951H392.52C392.818 180.146 393.528 181.079 394.648 181.752C395.768 182.461 397.15 182.816 398.793 182.816C400.772 182.816 402.341 182.237 403.498 181.079C404.693 179.959 405.291 178.148 405.291 175.646V171.221C404.357 172.677 403.069 173.872 401.426 174.806C399.783 175.702 397.86 176.15 395.656 176.15C393.08 176.15 390.746 175.497 388.655 174.19C386.563 172.845 384.902 170.96 383.669 168.532C382.474 166.068 381.877 163.23 381.877 160.018C381.877 156.807 382.474 153.987 383.669 151.56C384.902 149.133 386.563 147.265 388.655 145.958C390.746 144.651 393.08 143.998 395.656 143.998ZM405.291 160.074C405.291 157.684 404.619 155.798 403.274 154.417C401.967 153.035 400.362 152.344 398.457 152.344C396.553 152.344 394.928 153.035 393.584 154.417C392.277 155.761 391.623 157.628 391.623 160.018C391.623 162.408 392.277 164.312 393.584 165.732C394.928 167.113 396.553 167.804 398.457 167.804C400.362 167.804 401.967 167.113 403.274 165.732C404.619 164.35 405.291 162.464 405.291 160.074ZM37.8182 91.9158C37.8182 89.3515 39.897 87.2727 42.4613 87.2727C45.0256 87.2727 47.1043 89.3515 47.1043 91.9158C47.1043 94.48 45.0256 96.5588 42.4613 96.5588C39.897 96.5588 37.8182 94.48 37.8182 91.9158ZM129.734 177.455C127.17 177.455 125.091 179.533 125.091 182.098C125.091 184.662 127.17 186.741 129.734 186.741C132.298 186.741 134.377 184.662 134.377 182.098C134.377 179.533 132.298 177.455 129.734 177.455ZM37.594 182.098C37.594 179.471 39.7229 177.343 42.3491 177.343C44.9752 177.343 47.1041 179.471 47.1041 182.098C47.1041 184.724 44.9752 186.853 42.3491 186.853C39.7229 186.853 37.594 184.724 37.594 182.098Z" fill="white"/>
</svg>
