<?xml version="1.0" encoding="UTF-8"?>
<svg id="a" data-name="Layer_1" xmlns="http://www.w3.org/2000/svg" viewBox="0 0 62.36 62.36">
  <circle cx="31.17" cy="31.18" r="31.18" fill="#edb885"/>
  <path d="M17,45.6c-.44,0-.88-.2-1.18-.57-.51-.65-.4-1.59.25-2.11,4.35-3.42,9.57-5.23,15.1-5.23s10.75,1.81,15.1,5.23c.65.51.76,1.46.25,2.11-.51.65-1.46.76-2.11.25-3.81-3-8.39-4.59-13.25-4.59s-9.43,1.59-13.25,4.59c-.27.22-.6.32-.93.32Z" fill="#28282a"/>
  <g>
    <circle cx="42.03" cy="21.98" r="3.32" fill="#28282a"/>
    <circle cx="20.32" cy="22.08" r="3.32" fill="#28282a"/>
  </g>
</svg>