<?xml version="1.0" encoding="UTF-8"?>
<svg id="a" data-name="Layer_1" xmlns="http://www.w3.org/2000/svg" viewBox="0 0 66.36 66.36">
  <path d="M33.18,66.36C14.88,66.36,0,51.48,0,33.18S14.88,0,33.18,0s33.18,14.88,33.18,33.18-14.88,33.18-33.18,33.18ZM33.18,4C17.09,4,4,17.09,4,33.18s13.09,29.18,29.18,29.18,29.18-13.09,29.18-29.18S49.27,4,33.18,4Z" fill="#28282a"/>
  <path d="M47.36,49.91c-.59,0-1.15-.35-1.39-.93-2.13-5.22-7.15-8.6-12.78-8.6s-10.65,3.37-12.79,8.6c-.31.77-1.19,1.13-1.96.82-.77-.31-1.13-1.19-.82-1.96,2.6-6.36,8.7-10.46,15.56-10.46s12.97,4.11,15.56,10.46c.31.77-.05,1.64-.82,1.96-.19.08-.38.11-.57.11Z" fill="#28282a"/>
  <g>
    <circle cx="44.04" cy="23.98" r="3.32" fill="#28282a"/>
    <circle cx="22.33" cy="24.08" r="3.32" fill="#28282a"/>
  </g>
</svg>