<svg xmlns="http://www.w3.org/2000/svg" version="1.1" xmlns:xlink="http://www.w3.org/1999/xlink" width="132" height="131.14"><svg id="SvgjsSvg1034" data-name="Layer 1" xmlns="http://www.w3.org/2000/svg" viewBox="0 0 132 131.14">
  <path d="M127.74,9.2c-2.99-.9-28.2-8.53-30.43-9.2-3.26.99-27.56,8.33-31.3,9.46-3.83-1.16-27.96-8.45-31.3-9.46C28.59,1.85,6.11,8.64,0,10.49v120.66c5.81-1.76,28.5-8.62,34.7-10.49,3.83,1.16,27.96,8.45,31.3,9.46,3.26-.99,27.56-8.33,31.3-9.46,6.29,1.9,28.78,8.7,34.7,10.49V10.49l-4.26-1.29Z" fill="#fff"></path>
  <g>
    <polygon points="6 123.06 32.09 115.18 32.09 7.06 6 14.94 6 123.06" fill="#1f2f2b"></polygon>
    <polygon points="37.3 115.18 63.39 123.06 63.39 14.94 37.3 7.06 37.3 115.18" fill="#1f2f2b"></polygon>
    <polygon points="68.61 123.06 94.7 115.18 94.7 7.06 68.61 14.94 68.61 123.06" fill="#1f2f2b"></polygon>
    <polygon points="99.91 115.18 126 123.06 126 14.94 99.91 7.06 99.91 115.18" fill="#1f2f2b"></polygon>
  </g>
</svg><style>@media (prefers-color-scheme: light) { :root { filter: none; } }
@media (prefers-color-scheme: dark) { :root { filter: none; } }
</style></svg>