<?xml version="1.0" encoding="UTF-8"?>
<svg id="a" data-name="Layer 1" xmlns="http://www.w3.org/2000/svg" viewBox="0 0 272.24 116.01">
  <g fill="#1F2F2B">
    <polygon points="0 116.01 26.09 108.12 26.09 0 0 7.89 0 116.01"/>
    <polygon points="31.3 108.12 57.39 116.01 57.39 7.89 31.3 0 31.3 108.12"/>
    <polygon points="62.61 116.01 88.7 108.12 88.7 0 62.61 7.89 62.61 116.01"/>
    <polygon points="93.91 108.12 120 116.01 120 7.89 93.91 0 93.91 108.12"/>
  </g>
  <g fill="#1F2F2B">
    <path d="M134.23,37.48V12.75h4.48v20.97h10.89v3.75h-15.37Z"/>
    <path d="M160.8,37.84c-1.81,0-3.38-.4-4.71-1.2s-2.36-1.91-3.08-3.34c-.73-1.43-1.09-3.11-1.09-5.02s.36-3.59,1.09-5.04c.73-1.44,1.76-2.56,3.08-3.36s2.9-1.2,4.71-1.2,3.38.4,4.71,1.2,2.36,1.92,3.08,3.36c.73,1.44,1.09,3.12,1.09,5.04s-.36,3.59-1.09,5.02-1.76,2.55-3.08,3.34-2.9,1.2-4.71,1.2ZM160.82,34.34c.98,0,1.8-.27,2.46-.81.66-.54,1.15-1.27,1.48-2.19.33-.92.49-1.94.49-3.07s-.16-2.16-.49-3.08c-.33-.92-.82-1.66-1.48-2.2-.66-.55-1.48-.82-2.46-.82s-1.84.27-2.5.82c-.66.55-1.16,1.28-1.49,2.2-.33.92-.49,1.95-.49,3.08s.16,2.15.49,3.07c.33.92.82,1.65,1.49,2.19.66.54,1.5.81,2.5.81Z"/>
    <path d="M181.22,37.84c-1.85,0-3.44-.41-4.76-1.22-1.32-.81-2.34-1.94-3.05-3.38-.71-1.44-1.07-3.09-1.07-4.97s.36-3.55,1.09-4.99c.72-1.44,1.75-2.57,3.07-3.38,1.32-.81,2.89-1.21,4.7-1.21,1.5,0,2.84.28,4,.83s2.09,1.33,2.78,2.33,1.09,2.17,1.18,3.51h-4.18c-.17-.89-.57-1.64-1.2-2.24-.63-.6-1.48-.9-2.53-.9-.89,0-1.68.24-2.35.72-.68.48-1.2,1.17-1.58,2.06s-.56,1.96-.56,3.21.19,2.35.56,3.25c.37.91.89,1.6,1.56,2.09.67.49,1.46.73,2.37.73.64,0,1.22-.12,1.73-.37.51-.25.94-.6,1.29-1.07.35-.47.58-1.03.71-1.7h4.18c-.11,1.31-.49,2.47-1.16,3.48-.67,1.01-1.58,1.8-2.73,2.37-1.15.57-2.5.85-4.06.85Z"/>
    <path d="M197.94,37.86c-1.17,0-2.23-.21-3.17-.63s-1.68-1.05-2.22-1.88c-.54-.83-.82-1.85-.82-3.07,0-1.05.19-1.91.58-2.6s.91-1.23,1.58-1.64c.67-.41,1.42-.72,2.26-.94.84-.21,1.71-.37,2.61-.46,1.09-.11,1.97-.21,2.64-.31s1.17-.24,1.48-.43c.31-.2.46-.5.46-.92v-.07c0-.91-.27-1.61-.81-2.11s-1.32-.75-2.33-.75c-1.07,0-1.92.23-2.54.7-.62.47-1.04,1.02-1.26,1.65l-4.08-.58c.32-1.13.85-2.07,1.59-2.83.74-.76,1.65-1.33,2.72-1.71,1.07-.38,2.25-.57,3.55-.57.89,0,1.78.1,2.67.31.88.21,1.69.55,2.43,1.03.73.48,1.32,1.13,1.77,1.95.45.82.67,1.85.67,3.08v12.41h-4.2v-2.55h-.15c-.27.52-.64,1-1.12,1.44-.48.45-1.08.81-1.8,1.08-.72.27-1.56.4-2.53.4ZM199.07,34.64c.88,0,1.64-.17,2.28-.53.64-.35,1.14-.81,1.49-1.39.35-.58.53-1.21.53-1.9v-2.18c-.14.11-.37.22-.69.31s-.69.18-1.09.25c-.4.07-.8.14-1.2.19-.39.06-.74.11-1.03.15-.65.09-1.24.23-1.75.43-.52.2-.92.48-1.22.84-.3.36-.45.82-.45,1.38,0,.8.29,1.41.88,1.82.59.41,1.34.62,2.25.62Z"/>
    <path d="M216.47,12.75v24.73h-4.37V12.75h4.37Z"/>
    <path d="M134.23,73.48v-24.73h9.27c1.9,0,3.5.35,4.79,1.06s2.27,1.68,2.93,2.92,1,2.64,1,4.21-.33,2.99-1,4.23-1.65,2.2-2.96,2.9c-1.3.71-2.91,1.06-4.82,1.06h-6.15v-3.68h5.54c1.11,0,2.02-.19,2.73-.58.71-.39,1.23-.92,1.58-1.59.34-.68.51-1.45.51-2.33s-.17-1.65-.51-2.32c-.34-.67-.87-1.19-1.58-1.56-.71-.38-1.63-.56-2.75-.56h-4.11v20.98h-4.48Z"/>
    <path d="M159.79,48.75v24.73h-4.37v-24.73h4.37Z"/>
    <path d="M169.48,73.86c-1.17,0-2.23-.21-3.17-.63s-1.68-1.05-2.22-1.88c-.54-.83-.82-1.85-.82-3.07,0-1.05.19-1.91.58-2.6s.91-1.23,1.58-1.64c.67-.41,1.42-.72,2.26-.94.84-.21,1.71-.37,2.61-.46,1.09-.11,1.97-.21,2.64-.31s1.17-.24,1.48-.43c.31-.2.46-.5.46-.92v-.07c0-.91-.27-1.61-.81-2.11s-1.32-.75-2.33-.75c-1.07,0-1.92.23-2.54.7-.62.47-1.04,1.02-1.26,1.65l-4.08-.58c.32-1.13.85-2.07,1.59-2.83.74-.76,1.65-1.33,2.72-1.71,1.07-.38,2.25-.57,3.55-.57.89,0,1.78.1,2.67.31.88.21,1.69.55,2.43,1.03.73.48,1.32,1.13,1.77,1.95.45.82.67,1.85.67,3.08v12.41h-4.2v-2.55h-.15c-.27.52-.64,1-1.12,1.44-.48.45-1.08.81-1.8,1.08-.72.27-1.56.4-2.53.4ZM170.62,70.64c.88,0,1.64-.17,2.28-.53.64-.35,1.14-.81,1.49-1.39.35-.58.53-1.21.53-1.9v-2.18c-.14.11-.37.22-.69.31s-.69.18-1.09.25c-.4.07-.8.14-1.2.19-.39.06-.74.11-1.03.15-.65.09-1.24.23-1.75.43-.52.2-.92.48-1.22.84-.3.36-.45.82-.45,1.38,0,.8.29,1.41.88,1.82.59.41,1.34.62,2.25.62Z"/>
    <path d="M188.01,62.61v10.87h-4.37v-18.55h4.18v3.15h.22c.43-1.04,1.11-1.86,2.05-2.47.94-.61,2.1-.92,3.48-.92,1.28,0,2.4.27,3.35.82.95.55,1.69,1.34,2.22,2.38.53,1.04.79,2.3.78,3.78v11.81h-4.37v-11.13c0-1.24-.32-2.21-.96-2.91-.64-.7-1.52-1.05-2.65-1.05-.76,0-1.44.17-2.03.5s-1.05.82-1.39,1.44-.5,1.39-.5,2.28Z"/>
    <path d="M208.66,62.61v10.87h-4.37v-18.55h4.18v3.15h.22c.43-1.04,1.11-1.86,2.05-2.47.94-.61,2.1-.92,3.48-.92,1.28,0,2.4.27,3.35.82.95.55,1.69,1.34,2.22,2.38.53,1.04.79,2.3.78,3.78v11.81h-4.37v-11.13c0-1.24-.32-2.21-.96-2.91-.64-.7-1.52-1.05-2.65-1.05-.76,0-1.44.17-2.03.5s-1.05.82-1.39,1.44-.5,1.39-.5,2.28Z"/>
    <path d="M227.08,52.3c-.69,0-1.29-.23-1.79-.7s-.75-1.03-.75-1.68.25-1.21.75-1.67,1.09-.69,1.79-.69,1.3.23,1.79.7.74,1.03.74,1.68-.25,1.21-.74,1.67-1.09.69-1.79.69ZM224.89,73.48v-18.55h4.37v18.55h-4.37Z"/>
    <path d="M238.07,62.61v10.87h-4.37v-18.55h4.18v3.15h.22c.43-1.04,1.11-1.86,2.05-2.47.94-.61,2.1-.92,3.48-.92,1.28,0,2.4.27,3.35.82.95.55,1.69,1.34,2.22,2.38.53,1.04.79,2.3.78,3.78v11.81h-4.37v-11.13c0-1.24-.32-2.21-.96-2.91-.64-.7-1.52-1.05-2.65-1.05-.76,0-1.44.17-2.03.5s-1.05.82-1.39,1.44-.5,1.39-.5,2.28Z"/>
    <path d="M262.34,80.82c-1.57,0-2.92-.21-4.04-.63-1.13-.42-2.03-.99-2.72-1.7-.68-.71-1.16-1.49-1.42-2.35l3.94-.95c.18.36.43.72.77,1.08.34.36.79.66,1.37.89.58.24,1.3.36,2.18.36,1.24,0,2.27-.3,3.08-.9.81-.6,1.22-1.58,1.22-2.95v-3.51h-.22c-.23.45-.55.91-.98,1.39-.43.48-1,.87-1.7,1.2-.71.32-1.59.48-2.65.48-1.42,0-2.71-.34-3.87-1.01-1.15-.67-2.07-1.68-2.75-3.02-.68-1.34-1.02-3.02-1.02-5.04s.34-3.76,1.02-5.16c.68-1.4,1.6-2.47,2.76-3.2,1.16-.73,2.45-1.09,3.88-1.09,1.09,0,1.98.18,2.69.55.7.37,1.27.81,1.68,1.32.42.51.74.99.95,1.44h.24v-3.07h4.31v18.85c0,1.59-.38,2.9-1.13,3.94-.76,1.04-1.79,1.82-3.1,2.33-1.31.51-2.8.77-4.47.77ZM262.37,69.79c.92,0,1.71-.22,2.37-.68.65-.45,1.15-1.1,1.49-1.94.34-.85.51-1.86.51-3.04s-.17-2.19-.5-3.07c-.33-.88-.83-1.56-1.47-2.05-.65-.49-1.44-.73-2.38-.73s-1.79.25-2.44.76c-.65.51-1.14,1.2-1.47,2.08-.33.88-.5,1.88-.5,3s.17,2.13.5,2.98c.33.85.83,1.51,1.49,1.98.66.47,1.46.71,2.42.71Z"/>
    <path d="M147.67,91.55c-.11-1.05-.58-1.88-1.42-2.46-.83-.59-1.91-.88-3.24-.88-.93,0-1.73.14-2.4.42-.67.28-1.18.66-1.53,1.15-.35.48-.54,1.04-.54,1.65,0,.52.12.96.36,1.34.24.38.56.7.97.96.41.26.87.48,1.36.66.5.18,1,.33,1.51.45l2.32.58c.93.22,1.83.51,2.7.88.86.37,1.64.84,2.33,1.4.69.56,1.23,1.24,1.64,2.04s.6,1.73.6,2.8c0,1.45-.37,2.72-1.11,3.82-.74,1.1-1.81,1.96-3.21,2.57-1.4.62-3.08.92-5.06.92s-3.59-.3-5-.89c-1.41-.6-2.52-1.46-3.31-2.61-.79-1.14-1.22-2.54-1.29-4.18h4.41c.06.86.33,1.58.8,2.15.47.57,1.08,1,1.83,1.28.75.28,1.6.42,2.53.42s1.83-.15,2.57-.44c.74-.29,1.31-.7,1.73-1.23.42-.53.63-1.14.64-1.85,0-.64-.2-1.18-.57-1.6-.37-.42-.89-.78-1.55-1.06-.66-.29-1.44-.54-2.32-.77l-2.81-.72c-2.04-.52-3.64-1.32-4.82-2.38-1.18-1.07-1.77-2.49-1.77-4.26,0-1.46.4-2.73,1.19-3.83s1.87-1.95,3.24-2.55c1.37-.61,2.92-.91,4.65-.91s3.29.3,4.62.91c1.32.61,2.36,1.45,3.12,2.52.76,1.08,1.15,2.31,1.17,3.7h-4.31Z"/>
    <path d="M164.2,109.84c-1.86,0-3.46-.39-4.81-1.17-1.35-.78-2.38-1.88-3.11-3.31-.72-1.43-1.09-3.11-1.09-5.05s.36-3.58,1.09-5.03c.73-1.44,1.75-2.57,3.06-3.38,1.31-.81,2.85-1.21,4.62-1.21,1.14,0,2.22.18,3.24.55,1.02.37,1.92.93,2.7,1.7s1.4,1.74,1.85,2.92c.45,1.18.68,2.58.68,4.21v1.34h-15.2v-2.95h11.01c0-.84-.19-1.58-.54-2.24-.35-.66-.85-1.17-1.48-1.55-.63-.38-1.37-.57-2.2-.57-.89,0-1.68.22-2.35.65s-1.2.99-1.58,1.69c-.37.7-.57,1.46-.57,2.29v2.57c0,1.08.2,2,.59,2.77s.95,1.36,1.65,1.76c.71.41,1.54.61,2.49.61.64,0,1.21-.09,1.73-.27.51-.18.96-.45,1.34-.8s.66-.79.86-1.32l4.08.46c-.26,1.08-.75,2.02-1.47,2.82-.72.8-1.64,1.42-2.76,1.86-1.12.44-2.4.66-3.84.66Z"/>
    <path d="M176.1,109.48v-18.55h4.24v3.09h.19c.34-1.07.92-1.9,1.75-2.48.82-.58,1.77-.88,2.83-.88.24,0,.51.01.81.03.3.02.55.05.75.09v4.02c-.19-.06-.48-.12-.88-.17-.4-.05-.78-.08-1.15-.08-.8,0-1.51.17-2.14.51-.63.34-1.13.81-1.49,1.42-.36.6-.54,1.3-.54,2.09v10.9h-4.37Z"/>
    <path d="M206.67,90.94l-6.6,18.55h-4.83l-6.6-18.55h4.66l4.26,13.78h.19l4.27-13.78h4.65Z"/>
    <path d="M211.57,88.3c-.69,0-1.29-.23-1.79-.7s-.75-1.03-.75-1.68.25-1.21.75-1.67,1.09-.69,1.79-.69,1.3.23,1.79.7.74,1.03.74,1.68-.25,1.21-.74,1.67-1.09.69-1.79.69ZM209.37,109.48v-18.55h4.37v18.55h-4.37Z"/>
    <path d="M226.09,109.84c-1.85,0-3.44-.41-4.76-1.22-1.32-.81-2.34-1.94-3.05-3.38-.71-1.44-1.07-3.09-1.07-4.97s.36-3.55,1.09-4.99c.72-1.44,1.75-2.57,3.07-3.38,1.32-.81,2.89-1.21,4.7-1.21,1.5,0,2.84.28,4,.83s2.09,1.33,2.78,2.33,1.09,2.17,1.18,3.51h-4.18c-.17-.89-.57-1.64-1.2-2.24-.63-.6-1.48-.9-2.53-.9-.89,0-1.68.24-2.35.72-.68.48-1.2,1.17-1.58,2.06s-.56,1.96-.56,3.21.19,2.35.56,3.25c.37.91.89,1.6,1.56,2.09.67.49,1.46.73,2.37.73.64,0,1.22-.12,1.73-.37.51-.25.94-.6,1.29-1.07.35-.47.58-1.03.71-1.7h4.18c-.11,1.31-.49,2.47-1.16,3.48-.67,1.01-1.58,1.8-2.73,2.37-1.15.57-2.5.85-4.06.85Z"/>
    <path d="M245.56,109.84c-1.86,0-3.46-.39-4.81-1.17-1.35-.78-2.38-1.88-3.11-3.31-.72-1.43-1.09-3.11-1.09-5.05s.36-3.58,1.09-5.03c.73-1.44,1.75-2.57,3.06-3.38,1.31-.81,2.85-1.21,4.62-1.21,1.14,0,2.22.18,3.24.55,1.02.37,1.92.93,2.7,1.7s1.4,1.74,1.85,2.92c.45,1.18.68,2.58.68,4.21v1.34h-15.2v-2.95h11.01c0-.84-.19-1.58-.54-2.24-.35-.66-.85-1.17-1.48-1.55-.63-.38-1.37-.57-2.2-.57-.89,0-1.68.22-2.35.65s-1.2.99-1.58,1.69c-.37.7-.57,1.46-.57,2.29v2.57c0,1.08.2,2,.59,2.77s.95,1.36,1.65,1.76c.71.41,1.54.61,2.49.61.64,0,1.21-.09,1.73-.27.51-.18.96-.45,1.34-.8s.66-.79.86-1.32l4.08.46c-.26,1.08-.75,2.02-1.47,2.82-.72.8-1.64,1.42-2.76,1.86-1.12.44-2.4.66-3.84.66Z"/>
    <path d="M271.85,95.84l-3.98.43c-.11-.4-.31-.78-.59-1.13-.28-.35-.65-.64-1.12-.86-.47-.22-1.04-.33-1.71-.33-.91,0-1.67.2-2.29.59-.62.39-.92.91-.91,1.53,0,.54.19.98.6,1.32s1.08.62,2.02.83l3.16.68c1.75.38,3.06.98,3.92,1.8.86.82,1.29,1.9,1.3,3.22,0,1.17-.35,2.2-1.02,3.08-.67.89-1.6,1.58-2.79,2.08s-2.56.75-4.1.75c-2.27,0-4.1-.48-5.48-1.43-1.38-.95-2.21-2.28-2.47-3.99l4.26-.41c.19.84.6,1.47,1.23,1.9s1.45.64,2.45.64,1.87-.21,2.51-.64c.63-.43.95-.95.95-1.58,0-.53-.2-.97-.61-1.32s-1.04-.61-1.89-.8l-3.16-.66c-1.78-.37-3.1-1-3.95-1.88-.85-.88-1.28-2-1.27-3.35,0-1.14.3-2.13.94-2.98s1.51-1.49,2.64-1.96,2.44-.69,3.92-.69c2.17,0,3.89.46,5.14,1.39s2.03,2.18,2.32,3.75Z"/>
  </g>
</svg>
