<?xml version="1.0" encoding="UTF-8"?>
<svg id="a" data-name="Layer 1" xmlns="http://www.w3.org/2000/svg" viewBox="0 0 1020.47 850.39">
  <g id="b" data-name="England BG">
    <path d="M429.43,729.05c-1.27-2.58-4.07-3.69-6.73-4.72-3.58-1.04-7-2.63-10.54-3.7-3.95-1.09-7.41,1.56-10.76,3.32-3.9,2.36-8.91,3.31-12.59,5.82-1.83,1.14-5.24,3.91-1.67,5,1.26.43,3.04.83,4.43,1.27,3.45.99,6.6,3.25,9.88,5.3,1.78,1.14,3.42,2.47,5.21,3.56,6.6,4.17,12.81,1.17,16.26-5.22,1-1.48,2.07-2.93,3.36-4.18,2.21-2.24,4.23-3.67,3.19-6.32l-.06-.13Z" fill="#222f2b"/>
    <path d="M572.37,607.61c-1.3-.54-2.66-.96-3.94-1.32-.88-.24-1.5.1-2.17.74-1.79,1.82-1.38,2.82.82,3.87,1.24.55,2.42.95,4.16.5,2.42-.48,4.74-2,1.34-3.7l-.2-.1Z" fill="#222f2b"/>
    <path d="M572.37,592.89c-1.3-.54-2.66-.96-3.94-1.32-.88-.24-1.5.1-2.17.74-1.79,1.82-1.38,2.82.82,3.87,1.24.55,2.42.95,4.16.5,2.42-.48,4.74-2,1.34-3.7l-.2-.1Z" fill="#222f2b"/>
    <path d="M581.56,581.64c-.01-.35-.26-1.43-.34-1.65-.08-.19-.23.07-.51.45-.27.39-.57.72-.51.84.02.14,1.08.38,1.32.4l.05-.04Z" fill="#222f2b"/>
    <path d="M590.72,598.1c-.53.23-1.42,1.22-1.09,1.94.29.5.57,1.69,1.23,1.66.94-.38,1.63-2.21.99-2.96-.26-.27-.59-.66-.99-.66l-.14.02Z" fill="#222f2b"/>
    <path d="M624.54,557.97c.54-.09,1.47-.55,1.63-1.15.14-.77-.2-1.03-1.17-.63-.6.21-1.27.34-1.39.55-.05.42.49.99.8,1.2l.13.04Z" fill="#222f2b"/>
    <path d="M638.88,637.41c.29-2-1.25-.23-1.7.45-.92,1.1,1.55,3,2.23,2.18.3-.79-.59-1.66-.53-2.48v-.15Z" fill="#222f2b"/>
    <path d="M589.86,632.68c2.8,1.12,7.15,1.56,10.37,1.57,6.39-.18,5.25-6.13.47-8.57-2.09-1.15-4.44-1.83-6.84-2.47-2.13-.5-4.36-1.48-6.54-.92-4.69,1.78-1.31,9.04,2.38,10.31l.16.07Z" fill="#222f2b"/>
    <path d="M579.49,625.09c.06.36.32.85.66,1.06,1,.47.94-.04.65-.9-.14-.51-.24-.94-.48-1.05-.3-.18-.81.4-.82.74v.15Z" fill="#222f2b"/>
    <path d="M650.2,458.25l.14.47-.1.3-.47.18c-.26.3-.6,1-.73,1.37l-.99.38,2.22,1.57c.04-.26.14-.9.33-1.1l1.15-.4.69-1.09c-.12-1.52-.27-1.84,1.26-2.5l-.45-1.31-2.01,2.16-1.04-.02Z" fill="#fff" stroke="#231f20" stroke-width=".5"/>
    <path d="M664.15,469.91c.38-4.9-2.07-11.9-4.15-15.3-.37-1.44-1.62-3.01-1.01-4.31,3.29,3.59,3.15-1.3,2.04-4.45-4.14-15.79-23.62-28.51-37.59-35.51-6.68-2.43-14.17-2.7-21.18-4.2-4.44-1.14-5.61-.1-9.85.74-8.92-.22-17.92-1.63-26.94-.3-11.12-.31-12.36,11.43-17.44,18.43-6.88,7.82-15.95,4.38-22.46-2.55-4.76-5.11-13.01-.91-10.26-3.87,3.13-3.86,8.01-12.08,12.07-16.29,7.56-7.04,15.6-13.84,12.91-24.98-2.51-12.83-9.26-24.99-15.75-36.13-4.98-6.65-12.73-9.61-19.1-14.9-3.52-2.67-7.57-5.09-10.98-8.03-4.77-4.39-8.97-10.93-16.29-10.25-7.08,1.69-14.2,2.5-21.21,1.62-2.41-.16-10.98,2.72-5.25-2.09,5.32-2.09,13.29-.32,19.3-1.54,4.64-.96,7.56-3.6,8.64-7.54,1.89,2.44,7.41,5.41,10.24,7.95,2.76,2.5,5.13,5.82,8.6,7.6,5.1,2.65,11.82,1.54,17.2,2.21,10.22,1.16-12.76-22.11-14.16-25.85-7.4-11.01-18.2-27.94-6.62-39.24,2.68-3.55-2.18-5.24-4.68-6.89-8.48-5.77-15.98-13.77-19.98-23.31-7.54-19.75-26.11-30.6-45.76-35.8-13.67-6.18-12.37-3.23-23.43,3.47-.53.05-.51.07.27-.35.32-.19.76-.52,1.23-.92,1.17-1.07,2.77-2.59,2.92-4.02.2-1.51-.38-2.71.01-4.19,3.01-7.03-3.73-11.74-7.05-17.87-4.36-5.74-3.21-15.94-9.98-19.33-2.3-.27-4.73.87-6.26,1.53.67-.55,2.33-.91,4.32-2.3,5.08-2.03,4.74-10.43-1.24-10.77-6.47.54-13.05,5.02-19.92,3.05-.97-.16-1.81-.32-2.45-.44-.95-.18-1.49-.38-1.49-.4,5.21,1.23,11.83,1.54,16.92-.84,10-3.38,4.63-13.18,1.65-19.75-1.65-5.27-2-10.34-3.54-15.84-1.81-7.58-3.93-14.97-4.52-22.73-.11-11.1-2.01-24.2-12.22-30.44-9.86-3.99-17.6-23.41-28.3-18.56-4.13,1.96-6.83,6.56-9.45,10.34-1.8,2.5-4.67,3.84-6.06,6.5-1.72,7.11,6.92,14.37,6.88,21.51.4,4.77-4.44,6.78-7.34,9.62-5.31,7.46-13.88,7.97-20.15,13.93-5.33,4.78-6.75,11.13-11.12,16.47-5.56,5.83-11.99,10.79-17.83,16.24-3.51,2.46-6.59,3.36-8.97,6.5-3.5,2.95-4.29,12.99-8.41,13.16-2.81-.14-6.84-1.13-9.68.19-2.1.72-2.39,3.19-2.97,4.7-3.1,2.71-8.1,3.6-9.57,8.33-2.35,6.59-4.21,13.27-8.46,18.98-3.96,5.47-5.2,12.19-6.86,18.58-1.32,4.57-2.51,9.25.11,13.67,2.54,4.29,6,8.4,8.56,12.77,4.22,4.77,8.54,32.27,18.37,23.71,2.65-4.98,3.77-5.93,3.07,1.05-.51,4.3-3.17,10.22.16,13.85,8.43,7.04,13.07-14.68,15.23-12.7,4.12,6.34,7.6,5.97,12.84,1.58,3.27-2.53,3.24,3.51,3.78,6.23,2.42,8.02-9.46,13.88-3.85,21.63,1.6,6.68-14.14,8.71-5.44,17.19,2.57,2.49-1.09.76-3.11-1.57-5.61-8.05-6.22,1.96-6.29,7.19-.48,19.52,17.09,10.49,28.06,10.61-4.53.37-10.86,2.56-9.04,8.88.16.51-.15-.38-1.02-1.46-.88-1.09-2.39-2.37-3.85-2.48-8.33.04-16.49,15.2-16.67,22.97,2.34,13.39,12.04,37.29,29.43,28.85,2.47-.32-3.53,4.37-5.2,5.1-14.01,6.86-15.11-13.08-22.87-15.23-13.44.27-7.58,13.94-2.3,20.44,3.13,3.24,7.83,5.49,10.53,9.14,2.61,5.6.4,10.38,5.23,14.86,5.74,11.39,2.9,9.41,12.84,18.45,1.23,1.69.93,4.29-.41,5.87-3.62,3.63-8.94-1.14-12.95-2.26-11.29-3.92-27.12,11.98-17.17,21.79,12.09,8.1,12.08,5.8,4.91,18.68-.92,2.95-9.91,16.81-2.78,15.53,1.85-.69,5.89-2.28,5.78,1.08-2.25,8.58-29.45,7.92-7.13,23.34,2.78,1.89,7.15,2.33,9.19,4.99,2.13,5.77-.87,11.11-5.29,14.78-7.67,10.84-5.92,26.31,1.29,37.08,3.34,6.2,8.27,6.64,14.29,7.29,3.4.48,5.85,3.12,8.1,5.52,3.18,3.76,8.58,4.96,9.5,10.07.7,6.64-1.26,14.76.95,21.14,3.27,1.41,7.41-4.72,10.26-6.68,6.12-4.39,7.69-7.74,10.78-13.64,1.99-2.08,5.45-3.2,7.62-5.38.85-.8,1.93-2.06,3.02-2.37.72-.18.96-.08.49-.03-2.49.74-4.18,3.97-6.52,5.15-1.47,1.12-3.58,2.25-3.87,3.75-.16,8.18-8.62,12.05-12.62,18.58-4.82,6.58-12.56,14.38-10.66,23.09.52,1.15-.58.72-1.55.61-10.37-1.14-18.33,10.56-23.8,17.57-2.73,5.95-6.78,22.61-3.57,28.88h-.16c-1.26-2.03-2.09-5.02-4.19-6.12-7.32-2.72-15.34,2.31-22.97,2.03-6.01.22-11.19-3.19-16.77-4.83-9.73-1.43-20.62-3-30.53-2.13-9.52,2.26-20.33.4-28.68,5.78-3.8,2.53-5.77,8.3-2.78,11.93,1.47,1.74,4.09,2.02,5.71,3.17.12.58-1.44,2.72-2.73,3.58-1.08.71-2.24,1.09-3.5,1.4-2.58.67-4.98,2.86-7.42,4.14-4.5,2.96-10.71-.01-15.12-.02-9.31,2.64-6.86,17.04-8.36,24.78-.81,6.98-5.58,11.7-10.03,16.14-7.9,7.27-10.07,14.59-21.11,18.51-1.27.94-2.07,2.37-3.22,3.36-1.72,1.17-3.69.41-5.66,2.52-3.13,3.28-3.47,8.4-5.83,12.24-4.92,5.84-9.5,11.39-14.19,17.76-5.74,6.13-13.66,10.95-20.3,15.53-1.32.46-2.97-.18-4.99-.58-7.7-1.27-16.97,4.89-19.05,12.44-1.32,4.97,1.11,9.75,6.76,8.4,4.94-1.01,6.92-7.02,11.75-8.1,5.63-.51,13.84,3.86,17.32,8.65,2.06,3,3,7.24,5.35,9.85,3.74,3.6,13.95-5.05,13.56-8.98-.05-2.16-1.87-4-2.81-5.7-.56-2.21,2.5-3.65,3.43-5.52,1.46-2.25,3.24-7.48,4.18-9.17,1.38-2.04,1.36,2.27,1.62,3.15.69,5.45,5.07-.71,7.17-2.21,2.83-2.82,6.83-3.3,10.06-4.95,5.42-2.23,4.5-10.56,9.69-12.92,4.9-1.59,10.29,1.18,15.39-.02,10.18-2.34,17.77-5.98,28.03-.9,3.52,1.08,4.85-.06,3.46-3.19-.56-1.39-2.3-1.53-2.89-2.63-.69-2.42,1.75-4.97,1.7-7.53.45-3.76-.47-6.43,1.35-8.89.13-.18.17-.21.15-.07,0,.31-.19,1.29-.16,1.81-.25,2.41,1.68,4.53,2.56,6.47-.18,2.2-1.52,4.52-.56,6.78,7.86,16.83,14.87,9.09,24.73,16.35,14.77,17.67,22.94,6.42,28.38-10.55.42-2.13.43-1.43,1.82-.89,6,1.79,3.76-4.76,2.89-8.15-.63-4.98,4.43-9.74.93-14.59-1.83-3.8,3.89-4.55,5.07-8.33,2.08-4.32.47-9.7,1.37-12.08,7.79,13.59,12.6,2.44,22.7-.79,10.19-1.92,19.9-5.96,30.22-6.17,12.06,1.92,23.17,9.74,31.77,18.43,1.87,2.66,5.93,7.31,5.15,5.16-.57-1.21-2.37-4.01-3.46-5.08-.47-.46-1.36-1.14-.7-1.7,11.78-7.46,27.29-1.35,39.61,1.07,4.71.7,10.16-4,8.21-8.56-1-3.61-7.67-4.26-8.61-7.45,1.05-3.47,5.52-1.34,8.17-1.29,9.43,1.02,19.19-3.05,28.71-2.51,6.94.12,12.47-3.58,18.5-6.32,14.04-5.17,2.38-13.49-3.16-19.04,4.31.3,9.19,7.95,15.06,2.07.2.05-.62,3.5,1.12,6.58,2.07,3.46,6.37,6.7,10.43,6.47,1.89-.45.87-3.87,1.7-5.08,2.25-1.55,6.12-.4,8.93-.9,5.46-.85,9.32,1.87,14.24,2.64,3.25,1.5-3.36,6.65,6.06,9.44,3.57.68,5.26-2.89,8.35-3.84,3.71-1.39,8.62-2.18,11.77-4.89.91-.66,1.46-1.53,2.62-1.48,7.41,1.64,17.43,1.44,22.79-4.67,1.81-.88,3.78.66,5.89,1.14,10.37,2.23,21.8,6.03,32.06,7.51,7.56,3.24,12.21,3.09,18.11-3.97,6.14-6.47,15.73-7.44,23.39-10.86,5.13-2.17,9.3-6.76,14.47-8.56,5.42-2.56,14.52,1.95,16.77-5.38.43-20.48,27.19-17.22,34.88-32.23,2.08-5.01,1.03-11.25-1.36-15.98-1.41-2.57-3.04-.91-2.58-2.09,17.5-19.86-10.88-10.26-21.36-9.24-10,3.05-21.47,6.65-30.85,0-4.99-3.44-4.34-1.11-8.88-.04-8.35-.96-17.8-1.15-16.25,10.09.11.7.18.99.1.77-1.55-4.33.21-9.33,4.22-11.85,3.98-3.27,8.96-4.63,13.16-7.28,3.71-3.95-8.45-5.11-10.77-4.62-12.97,2.93-11.72,6.29-26.16,4.11.51-.75.84-1.59,1.03-2.46.11.06.21.13.32.19,13.13,6.46,15.58-6.62,24.97-9.7,6.13-1.5,14.89,1.8,20.56-1.99,5.54-6.44,1.1-12.25-6.89-11.8-.76-.01-6.79-.12-6.13-.37,5.98-2.34,16.93,3.2,22.06-2.58,2.49-2.97,2.94-8.77-.03-10.96-3.85-1.99-8.57,2.12-12.52,1.72-1.86-.02-2.76-.62-2.25-1.29,1.65-1.86,5.42-2.36,7.46-3.91,2.14-1.53,2.44-3.13,3.91-3.8,3.23-1.05,7.93-1.71,7.66-6.12-.25-4.32,3.93,2.43,6.46,3.31,6.83,3.94,16.71-4.35,18.41-10.5-.13-1.68-2.76-1.32-3.1-2.87-.47-1.81,1.39-4.22,1.66-6.02.17-4.49-8.01-1.96-10.7-2.58-1.24.04-4.01-.43-1.57-1.29,3.56-1.13,15.86-.46,8.29-6.67-6.5-5.3,4.06,1.15,6.05,3.12,7.72,5.47,7.34-5.16,4.91-9.31-.01-.14.25.14.73.64,4.15,5.11,8.17.66,11.67-4.29,3.46-3.99,5.76-8.13,5.8-12.91.7,1.66.29,4.8.34,6.42,0,.22-.02.54.03.68.13,0,.31-.42.46-.79,3.8-8.53,2.7-20.65,5.28-29.51,3.35-7.27,6.3-16.05,6.03-24.3v-.18ZM477.08,295.3c.21-.28.79-.68.84-.73h-.01c-.08.09-.54.42-.74.67-.27.29-.07.74-.07,1.1-.07-.09-.25-.83-.01-1.04ZM275.49,320.87v.03c-.08,0,.05-1.68.09-1.69.1.13-.06,1.44-.09,1.66ZM276.21,323.97c-.05-.03-.22-.12-.36-.26l-.12-.14c-.23-.37,0-.9-.03-1.35,0-.47-.11-1.02-.07-.99.02-.02.2.53.23,1.02.04.49-.14.96.1,1.33.18.32.36.44.26.39ZM506.55,425.17l-.06.02c.36-.3,2.83-1.49,3.06-1.6-.69.43-2.21,1.3-3,1.58ZM637.68,634.9l.02.02s-.98-.37-.9-.36c.13.01.73.24.87.34ZM635.2,634.47l.18.02c.33.01.98-.03.79,0-.7.14-1.78-.03-2.5-.35-.6-.3,1.37.31,1.54.32ZM627.71,633.1l.15-.07c1.63-.63,2.65.97,4.42,1.09.21.03.58.07.75.11.15.03.17.04.06.03-.72-.01-1.75-.22-2.45-.59-.79-.34-1.42-.77-2.23-.52-.49.15-.94.38-1.11.41-.37.07.23-.39.4-.45ZM568.19,596.61l-.05-.42c.05.13.06.3.05.42ZM570.84,594.61l-.16.07c-.91.52-2.13.81-3.05,1.37-.53.27-.77.38-.53.16.24-.18,1.04-.57,1.68-.8.92-.27,1.55-.94,2.48-1.18,1-.16-.12.25-.42.39Z" fill="#222f2b"/>
    <path d="M551.96,610.57c.06-.27-.12-.57-.29-.82-.19-.29-.39-.59-.55-.91-.46-.84-.65-1.84-1.28-2.56-.51-.73-1.56-.68-2.12-1.29-.33-.47-.53-1.06-.98-1.46-.69-.68-1-1.61-1.55-2.4-.34-.49-.52-1.12-1.05-1.31-.46-.06-.98.22-1.41.4-.63.29-1.37.43-2.06.57-1.11.3-2.45.22-3.62.43-.75.16-1.42.61-2.11.87-.34.14-.67.29-.93.48-.43.28-.85.57-1.37.69-1.82.24-3.56-1.3-4.22-2.89-.45-1.17-1.89-1.47-3.02-1.47-.64-.05-.46-.26-.4-.87.18-.8.16-1.68.14-2.49,0-.66-.19-1.18-.93-1.32-.46-.11-1.04-.09-1.57-.14-.7-.05-1.38-.2-2.06-.35-1.74-.32-3.54-.62-5.3-.91-.45-.08-.8-.31-1.19-.18-.01,0-.04.02-.03.02-.07.05-.11.09-.15.16-.23.53-.25,1.22-.51,1.76-.48,1.16-1.49,1.6-2.51,2.06-.69.28-1.38,1.45-1.98.41-.24-.36-.4-.9-.68-1.21-.78-.71-1.04,2.3-1.51,2.79-.62.93-1.92.56-2.93.77-.47.07-.86.15-1.29.3-.91.32-1.88,1.02-2.67,1.45-2.16,1.22-3.54,2.58-6.23,1.71-.47-.09-.89-.09-1.34.04-1.62.61-2.22-.52-3.52-1.12-1.07-.39-.74,1.14-.81,1.74,0,.87-.17,1.73.13,2.55.44,1.52,1.54,3.12,1.21,4.72-.2.7-.58,1.38-.61,2.14-.21,1.65.68,3.27.22,4.87-.17.57-.47,1.13-.57,1.72-.18.94.46,1.68,1.3,2.06.67.33,1.55.46,2.16.89.21.17.26.47.24.75,0,.44-.17.95,0,1.4.14.41.41.81.77,1.06.77.46,1.6.45,2.45.82.74.3,1.38.81,1.99,1.32,1.66,1.24,2.15.09,4.04,2.1,1.67,1.43,2.58,2.17,1.42,4.39-.52,1.05-.86,2.18-.77,3.33.02.31.09.72.31.82,1.3.35,2.07-2.33,2.61-3.2.51-.89,1.15-1.82,2.01-2.39.94-.7,1.37-.15,1.93.61.37.52,1.04.98,1.3,1.66.21.5.18,1.05.12,1.58-.08.56-.06,1.52.74,1.06.37-.21.76-.63,1.23-.72,1.3-.17,2.48,1.43,2.87,2.49.16.45.2.95.4,1.38.24.51.64.79,1.11,1.16.44.31,1.01.82,1.45.98.75.15,1.41-.8,1.98-1.27.57-.53.81-1.28,1.31-1.85.5-.54,1.35-.77,1.86-1.32.36-.35.49-.84.88-1.17.72-.59,1.98-.14,2.72.21,1.27.63,1.19,2.21,1.47,3.43.07.43.29,1,.49,1.12.11.09.24.03.33-.09,1.03-1.69,1.47-.72,2.56.13.7.5,2.02.25,2.36-.6.27-.74,0-1.63.44-2.34.32-.69,1.13-1.06,1.6-1.6.45-.46.57-1.15.91-1.66.18-.25.51-.47.76-.68.94-.73,1.33-2.01,1.41-3.17.18-1.37.55-2.81.03-4.15-.54-1.61-.19-2.75.93-3.98.7-.9,1.73-1.49,2.46-2.36.59-.7.88-1.55,1-2.43.07-.63-.06-1.31.1-1.91.14-.45.53-.75.81-1.14.2-.3.07-.5.17-.7.22-.41.57-.76.7-1.24.07-.22.11-.46.18-.67.22-.94.95.04,1.38-.31.07-.06.13-.15.17-.21.31-.58.71-1.05,1.37-1.31.75-.29,1.59-.48,2.43-.68.41-.12.96-.17,1.16-.57v-.02Z" fill="#186666"/>
  </g>
  <g>
    <line x1="540.91" y1="610.69" x2="745.04" y2="582.1" fill="#186666"/>
    <g>
      <line x1="540.91" y1="610.69" x2="546.85" y2="609.86" fill="none" stroke="#186666" stroke-linecap="round" stroke-linejoin="round" stroke-width="3"/>
      <line x1="558.16" y1="608.28" x2="733.44" y2="583.73" fill="none" stroke="#186666" stroke-dasharray="11.42 11.42" stroke-linecap="round" stroke-linejoin="round" stroke-width="3"/>
      <line x1="739.09" y1="582.93" x2="745.04" y2="582.1" fill="none" stroke="#186666" stroke-linecap="round" stroke-linejoin="round" stroke-width="3"/>
    </g>
  </g>
  <g id="c" data-name="England counties">
    <circle cx="493.44" cy="576.75" r="8.5" fill="#231f20" stroke="#f6d08f" stroke-width="5"/>
    <circle cx="486.66" cy="642.46" r="8.5" fill="#231f20" stroke="#f6d08f" stroke-width="5"/>
    <circle cx="571.56" cy="625.25" r="8.5" fill="#231f20" stroke="#f6d08f" stroke-width="5"/>
  </g>
  <g>
    <path d="M514.42,565.84c-.05-.5-.28-.88-.67-1.16-.39-.28-.9-.42-1.53-.42-.44,0-.82.07-1.13.2-.31.13-.56.31-.72.54-.17.23-.25.49-.26.78,0,.24.06.45.17.63.11.18.26.33.46.45s.41.23.64.31c.23.08.47.15.71.21l1.09.27c.44.1.86.24,1.27.42.41.17.77.39,1.1.66.32.27.58.59.77.96s.28.81.28,1.32c0,.68-.17,1.28-.52,1.8s-.85.92-1.51,1.21c-.66.29-1.45.43-2.38.43s-1.69-.14-2.35-.42c-.66-.28-1.18-.69-1.56-1.23s-.58-1.19-.61-1.97h2.07c.03.41.16.74.38,1.01.22.27.51.47.86.6.35.13.75.2,1.19.2s.86-.07,1.21-.21c.35-.14.62-.33.82-.58s.3-.54.3-.87c0-.3-.09-.55-.27-.75-.17-.2-.42-.37-.73-.5-.31-.13-.68-.25-1.09-.36l-1.32-.34c-.96-.25-1.71-.62-2.27-1.12-.56-.5-.83-1.17-.83-2,0-.69.19-1.29.56-1.8.37-.51.88-.92,1.53-1.2s1.37-.43,2.19-.43,1.55.14,2.17.43,1.11.68,1.47,1.19.54,1.09.55,1.74h-2.03Z" fill="#fff"/>
    <path d="M522.75,565.55v1.59h-5.02v-1.59h5.02ZM518.97,563.46h2.06v8.19c0,.28.04.49.13.63.09.15.2.25.34.3.14.05.3.08.47.08.13,0,.25,0,.35-.03.11-.02.19-.04.25-.05l.35,1.61c-.11.04-.27.08-.47.12-.2.04-.45.07-.74.08-.52.02-.98-.06-1.39-.24-.41-.17-.74-.44-.98-.8-.24-.36-.36-.82-.36-1.36v-8.53Z" fill="#fff"/>
    <path d="M530.03,574.28h-2.25l4.1-11.64h2.6l4.1,11.64h-2.25l-3.11-9.25h-.09l-3.1,9.25ZM530.1,569.71h6.14v1.69h-6.14v-1.69Z" fill="#fff"/>
    <path d="M542.08,562.64v11.64h-2.06v-11.64h2.06Z" fill="#fff"/>
    <path d="M544.28,574.28v-11.64h2.06v4.35h.08c.11-.21.26-.44.45-.68s.46-.45.78-.62c.33-.17.75-.26,1.26-.26.67,0,1.28.17,1.83.51.54.34.98.85,1.3,1.52s.48,1.49.48,2.46-.16,1.77-.47,2.44c-.31.67-.74,1.18-1.28,1.53-.54.35-1.16.53-1.84.53-.5,0-.92-.08-1.25-.25-.33-.17-.59-.37-.79-.61-.2-.24-.35-.46-.46-.67h-.12v1.38h-2.02ZM546.3,569.91c0,.56.08,1.06.24,1.48.16.42.39.75.7.99.31.24.68.36,1.11.36s.83-.12,1.14-.37c.31-.24.54-.58.7-1.01s.24-.91.24-1.46-.08-1.02-.23-1.44c-.16-.42-.39-.75-.69-.99-.31-.24-.69-.36-1.15-.36s-.81.12-1.12.35c-.31.23-.54.55-.7.97-.16.42-.24.91-.24,1.47Z" fill="#fff"/>
    <path d="M556.79,574.45c-.55,0-1.05-.1-1.49-.3-.44-.2-.79-.49-1.05-.88-.26-.39-.38-.87-.38-1.44,0-.49.09-.9.27-1.22.18-.32.43-.58.74-.77s.67-.34,1.07-.44c.4-.1.81-.17,1.23-.22.51-.05.93-.1,1.24-.14.32-.04.55-.11.7-.21.15-.09.22-.24.22-.43v-.03c0-.43-.13-.76-.38-.99-.25-.23-.62-.35-1.1-.35-.5,0-.9.11-1.2.33-.29.22-.49.48-.59.78l-1.92-.27c.15-.53.4-.97.75-1.33.35-.36.77-.63,1.28-.81.5-.18,1.06-.27,1.67-.27.42,0,.84.05,1.26.15.42.1.8.26,1.14.49.34.22.62.53.83.92.21.39.32.87.32,1.45v5.84h-1.98v-1.2h-.07c-.12.24-.3.47-.53.68-.23.21-.51.38-.85.5-.34.13-.74.19-1.19.19ZM557.32,572.94c.41,0,.77-.08,1.07-.25.3-.17.54-.38.7-.66.17-.27.25-.57.25-.89v-1.03c-.06.05-.17.1-.33.15-.15.05-.32.09-.51.12-.19.03-.38.06-.56.09s-.35.05-.48.07c-.31.04-.58.11-.82.21-.24.09-.43.23-.57.39-.14.17-.21.39-.21.65,0,.38.14.67.42.86.28.19.63.29,1.06.29Z" fill="#fff"/>
    <path d="M565.53,569.16v5.11h-2.06v-8.73h1.97v1.48h.1c.2-.49.52-.88.96-1.17s.99-.43,1.64-.43c.6,0,1.13.13,1.58.39.45.26.8.63,1.05,1.12.25.49.37,1.08.37,1.78v5.56h-2.06v-5.24c0-.58-.15-1.04-.45-1.37-.3-.33-.72-.49-1.25-.49-.36,0-.68.08-.96.24s-.5.38-.65.68-.24.65-.24,1.07Z" fill="#fff"/>
    <path d="M580.12,567.86l-1.88.21c-.05-.19-.14-.37-.28-.53s-.31-.3-.53-.4-.49-.15-.81-.15c-.43,0-.79.09-1.08.28-.29.19-.43.43-.43.72,0,.25.09.46.28.62s.51.29.95.39l1.49.32c.83.18,1.44.46,1.84.85.4.39.61.89.61,1.52,0,.55-.16,1.03-.48,1.45-.32.42-.75.75-1.32.98-.56.23-1.21.35-1.93.35-1.07,0-1.93-.22-2.58-.67s-1.04-1.07-1.16-1.88l2-.19c.09.39.28.69.58.89.29.2.68.3,1.15.3s.88-.1,1.18-.3c.3-.2.45-.45.45-.74,0-.25-.1-.46-.29-.62-.19-.16-.49-.29-.89-.38l-1.49-.31c-.84-.17-1.46-.47-1.86-.88-.4-.42-.6-.94-.6-1.58,0-.54.14-1,.44-1.4.3-.4.71-.7,1.24-.92.53-.22,1.15-.33,1.84-.33,1.02,0,1.83.22,2.42.65.59.44.95,1.02,1.09,1.77Z" fill="#fff"/>
  </g>
  <g>
    <path d="M1015.83,563.46c.33-1.41-.64-2.98-1.51-4.28-1.01-1.51-2.05-3.12-2.91-4.76-2.39-4.4-3.42-9.63-6.72-13.4-2.66-3.81-8.19-3.57-11.13-6.77-1.73-2.45-2.76-5.57-5.16-7.66-3.59-3.58-5.24-8.42-8.13-12.59-1.79-2.6-2.74-5.85-5.53-6.86-2.4-.32-5.12,1.18-7.4,2.09-3.28,1.53-7.21,2.24-10.81,2.99-5.83,1.56-12.87,1.14-18.97,2.25-3.93.82-7.43,3.2-11.07,4.57-1.79.73-3.52,1.53-4.9,2.51-2.26,1.45-4.44,3.01-7.16,3.6-9.53,1.25-18.65-6.81-22.14-15.15-2.36-6.14-9.93-7.73-15.84-7.69-3.35-.26-2.41-1.39-2.1-4.54.96-4.19.82-8.81.72-13.05-.05-3.47-1.01-6.19-4.89-6.92-2.4-.57-5.48-.49-8.25-.73-3.69-.27-7.21-1.06-10.81-1.83-9.13-1.69-18.58-3.27-27.77-4.77-2.33-.4-4.18-1.61-6.25-.94-.05.02-.21.12-.15.08-.35.24-.57.48-.77.86-1.21,2.79-1.29,6.39-2.68,9.24-2.54,6.08-7.81,8.4-13.17,10.79-3.62,1.46-7.26,7.6-10.41,2.15-1.23-1.91-2.11-4.71-3.58-6.33-4.09-3.73-5.43,12.05-7.91,14.62-3.28,4.9-10.07,2.96-15.39,4.05-2.44.35-4.52.8-6.75,1.6-4.75,1.68-9.88,5.34-13.98,7.59-11.32,6.4-18.56,13.51-32.66,8.96-2.46-.49-4.69-.49-7.01.19-8.51,3.22-11.62-2.73-18.43-5.85-5.59-2.02-3.91,5.96-4.22,9.14-.01,4.58-.88,9.07.67,13.38,2.3,7.96,8.06,16.35,6.36,24.76-1.06,3.7-3.02,7.24-3.21,11.22-1.1,8.63,3.57,17.14,1.14,25.53-.9,3.01-2.47,5.93-2.97,9.03-.92,4.91,2.42,8.83,6.8,10.78,3.53,1.73,8.12,2.39,11.35,4.68,1.1.9,1.35,2.48,1.27,3.91-.05,2.29-.88,4.97-.02,7.35.76,2.17,2.16,4.26,4.03,5.58,4.04,2.4,8.38,2.37,12.87,4.3,3.89,1.6,7.23,4.27,10.45,6.9,8.7,6.52,11.26.49,21.2,11.01,8.76,7.49,13.53,11.36,7.44,23.03-2.74,5.5-4.5,11.44-4.02,17.48.11,1.64.48,3.76,1.64,4.28,6.82,1.86,10.85-12.23,13.68-16.77,2.7-4.66,6.04-9.57,10.55-12.53,4.93-3.68,7.17-.77,10.12,3.19,1.92,2.72,5.46,5.14,6.83,8.72,1.12,2.63.93,5.52.63,8.31-.43,2.95-.32,7.98,3.9,5.54,1.94-1.09,4.01-3.3,6.44-3.79,6.81-.87,13.03,7.48,15.06,13.04.83,2.36,1.05,4.96,2.08,7.26,1.24,2.68,3.37,4.15,5.84,6.07,2.32,1.61,5.29,4.31,7.62,5.14,3.93.8,7.41-4.22,10.38-6.67,3-2.77,4.25-6.71,6.88-9.68,2.6-2.85,7.08-4.06,9.74-6.9,1.87-1.81,2.56-4.42,4.6-6.13,3.78-3.11,10.37-.71,14.27,1.12,6.65,3.33,6.22,11.59,7.72,18.01.38,2.27,1.52,5.22,2.59,5.87.58.46,1.24.15,1.73-.46,5.42-8.84,7.7-3.76,13.41.68,3.69,2.62,10.57,1.32,12.4-3.12,1.39-3.89.05-8.55,2.32-12.27,1.69-3.63,5.94-5.57,8.37-8.4,2.36-2.43,2.99-6.04,4.79-8.72.93-1.29,2.67-2.45,3.98-3.56,4.93-3.81,6.96-10.56,7.37-16.63.93-7.19,2.91-14.72.15-21.76-2.84-8.45-1-14.44,4.86-20.89,3.66-4.73,9.08-7.8,12.92-12.36,3.1-3.65,4.6-8.12,5.24-12.73.35-3.3-.31-6.85.54-10.03.72-2.37,2.77-3.94,4.23-5.99,1.06-1.56.36-2.64.91-3.67,1.14-2.17,2.97-4.01,3.67-6.48.38-1.14.6-2.41.93-3.53,1.14-4.91,4.97.21,7.25-1.62.35-.3.7-.8.88-1.09,1.64-3.02,3.72-5.49,7.16-6.88,3.92-1.51,8.32-2.53,12.73-3.58,2.17-.61,5.04-.89,6.06-2.98l.03-.1Z" fill="#186666"/>
    <g id="d" data-name="England counties">
      <circle cx="854.65" cy="603.86" r="8.5" fill="#231f20" stroke="#f6d08f" stroke-width="5"/>
      <circle cx="818.51" cy="565.56" r="8.5" fill="#231f20" stroke="#f6d08f" stroke-width="5"/>
      <circle cx="793.67" cy="519.63" r="8.5" fill="#231f20" stroke="#f6d08f" stroke-width="5"/>
      <circle cx="832.24" cy="629.43" r="8.5" fill="#231f20" stroke="#f6d08f" stroke-width="5"/>
    </g>
    <g>
      <path d="M749.29,635.95v-11.64h2.11v9.87h5.12v1.77h-7.23Z" fill="#fff"/>
      <path d="M760.77,636.13c-.55,0-1.05-.1-1.49-.3s-.79-.49-1.04-.88c-.26-.39-.38-.87-.38-1.44,0-.49.09-.9.27-1.22.18-.32.43-.58.74-.77s.67-.34,1.07-.44c.4-.1.81-.17,1.23-.22.51-.05.93-.1,1.24-.14s.55-.11.7-.21c.15-.09.22-.24.22-.43v-.03c0-.43-.13-.76-.38-.99-.25-.23-.62-.35-1.1-.35-.5,0-.9.11-1.2.33-.29.22-.49.48-.59.78l-1.92-.27c.15-.53.4-.97.75-1.33.35-.36.77-.63,1.28-.81.5-.18,1.06-.27,1.67-.27.42,0,.84.05,1.25.15.42.1.8.26,1.14.49.34.22.62.53.83.92.21.39.32.87.32,1.45v5.84h-1.98v-1.2h-.07c-.12.24-.3.47-.53.68-.22.21-.51.38-.85.5-.34.13-.74.19-1.19.19ZM761.3,634.62c.41,0,.77-.08,1.07-.25.3-.17.54-.38.7-.66.16-.27.25-.57.25-.89v-1.03c-.06.05-.17.1-.33.15-.15.05-.32.09-.51.12-.19.03-.38.06-.56.09s-.35.05-.48.07c-.31.04-.58.11-.82.21-.24.09-.43.23-.57.39-.14.17-.21.39-.21.65,0,.38.14.67.41.86s.63.29,1.06.29Z" fill="#fff"/>
      <path d="M767.45,635.95v-8.73h1.97v1.48h.1c.18-.5.48-.89.9-1.17.42-.28.92-.42,1.51-.42s1.09.14,1.5.43.69.68.86,1.17h.09c.19-.49.52-.87.98-1.16s1.01-.43,1.64-.43c.8,0,1.46.25,1.97.76s.76,1.25.76,2.22v5.86h-2.06v-5.54c0-.54-.14-.94-.43-1.19s-.64-.38-1.06-.38c-.5,0-.88.16-1.16.46s-.42.71-.42,1.2v5.44h-2.02v-5.62c0-.45-.14-.81-.41-1.08-.27-.27-.62-.4-1.06-.4-.3,0-.56.08-.81.22-.24.15-.44.36-.58.63-.14.27-.22.59-.22.95v5.31h-2.06Z" fill="#fff"/>
      <path d="M781.9,635.95v-11.64h2.06v4.35h.08c.11-.21.26-.44.45-.68s.46-.45.78-.62c.33-.17.75-.26,1.26-.26.67,0,1.28.17,1.83.51.54.34.98.85,1.3,1.52s.48,1.49.48,2.46-.16,1.77-.47,2.44c-.31.67-.74,1.18-1.28,1.53-.54.35-1.16.53-1.84.53-.5,0-.91-.08-1.24-.25-.33-.17-.59-.37-.79-.61-.2-.24-.35-.46-.46-.67h-.12v1.38h-2.02ZM783.92,631.59c0,.56.08,1.06.24,1.48.16.42.39.75.7.99.31.24.68.36,1.11.36s.83-.12,1.14-.37.54-.58.7-1.01.24-.91.24-1.46-.08-1.02-.23-1.44c-.16-.42-.39-.75-.69-.99-.31-.24-.69-.36-1.15-.36s-.81.12-1.12.35c-.31.23-.54.55-.7.97-.16.42-.24.91-.24,1.47Z" fill="#fff"/>
      <path d="M795.76,636.12c-.88,0-1.63-.18-2.26-.55s-1.12-.88-1.46-1.56c-.34-.67-.51-1.46-.51-2.38s.17-1.69.51-2.37.82-1.21,1.44-1.59c.62-.38,1.34-.57,2.18-.57.54,0,1.05.09,1.53.26.48.17.9.44,1.27.8.37.36.66.82.87,1.37.21.55.32,1.21.32,1.98v.63h-7.15v-1.39h5.18c0-.39-.09-.75-.25-1.05-.17-.31-.4-.55-.7-.73-.3-.18-.64-.27-1.04-.27-.42,0-.79.1-1.11.3-.32.2-.57.47-.74.79-.18.33-.27.69-.27,1.08v1.21c0,.51.09.94.28,1.3.19.36.45.64.78.83s.72.29,1.17.29c.3,0,.57-.04.81-.13.24-.08.45-.21.63-.38.18-.17.31-.37.4-.62l1.92.22c-.12.51-.35.95-.69,1.33-.34.38-.77.67-1.3.88-.53.21-1.13.31-1.81.31Z" fill="#fff"/>
      <path d="M805.74,627.22v1.59h-5.02v-1.59h5.02ZM801.96,625.13h2.06v8.19c0,.28.04.49.13.63.08.15.2.25.34.3.14.05.29.08.47.08.13,0,.25,0,.36-.03.11-.02.19-.04.25-.05l.35,1.61c-.11.04-.27.08-.47.12-.2.04-.45.07-.74.08-.51.02-.98-.06-1.39-.24-.41-.17-.74-.44-.98-.8-.24-.36-.36-.82-.35-1.36v-8.53Z" fill="#fff"/>
      <path d="M809.7,630.84v5.11h-2.06v-11.64h2.01v4.39h.1c.2-.49.52-.88.95-1.17s.98-.43,1.64-.43c.61,0,1.13.13,1.59.38.45.25.8.62,1.05,1.11s.37,1.08.37,1.79v5.56h-2.06v-5.24c0-.59-.15-1.04-.45-1.37-.3-.33-.72-.49-1.26-.49-.36,0-.69.08-.97.24s-.51.38-.67.68c-.16.3-.24.65-.24,1.07Z" fill="#fff"/>
    </g>
    <g>
      <path d="M876.44,600.84c-.05-.5-.28-.88-.67-1.16s-.9-.42-1.53-.42c-.44,0-.82.07-1.13.2s-.55.31-.72.54c-.17.23-.25.49-.26.78,0,.24.06.45.17.63.11.18.26.33.46.45s.41.23.64.31c.23.08.47.15.71.21l1.09.27c.44.1.86.24,1.27.42.41.17.77.39,1.1.66.32.27.58.59.77.96s.28.81.28,1.32c0,.68-.17,1.28-.52,1.8s-.85.92-1.51,1.21c-.66.29-1.45.43-2.38.43s-1.69-.14-2.36-.42c-.66-.28-1.18-.69-1.56-1.23s-.58-1.19-.61-1.97h2.07c.03.41.16.74.38,1.01.22.27.51.47.86.6.35.13.75.2,1.19.2s.86-.07,1.21-.21c.35-.14.62-.33.82-.58.2-.25.3-.54.3-.87,0-.3-.09-.55-.27-.75-.17-.2-.42-.37-.73-.5-.31-.13-.68-.25-1.09-.36l-1.32-.34c-.96-.25-1.71-.62-2.27-1.12s-.83-1.17-.83-2c0-.69.19-1.29.56-1.8.37-.51.88-.92,1.53-1.2.64-.29,1.37-.43,2.19-.43s1.55.14,2.17.43,1.11.68,1.47,1.19c.36.51.54,1.09.55,1.74h-2.03Z" fill="#fff"/>
      <path d="M884.22,609.44c-.85,0-1.59-.19-2.22-.56s-1.11-.9-1.45-1.57-.51-1.46-.51-2.36.17-1.69.51-2.37c.34-.68.83-1.2,1.45-1.58s1.36-.56,2.22-.56,1.59.19,2.22.56,1.11.9,1.45,1.58c.34.68.51,1.47.51,2.37s-.17,1.69-.51,2.36-.83,1.2-1.45,1.57-1.36.56-2.22.56ZM884.23,607.8c.46,0,.85-.13,1.16-.38.31-.26.54-.6.7-1.03.15-.43.23-.91.23-1.44s-.08-1.02-.23-1.45-.39-.78-.7-1.04c-.31-.26-.7-.39-1.16-.39s-.87.13-1.18.39c-.31.26-.55.6-.7,1.04s-.23.92-.23,1.45.08,1.01.23,1.44c.15.43.39.78.7,1.03.31.25.71.38,1.18.38Z" fill="#fff"/>
      <path d="M895.7,605.6v-5.06h2.06v8.73h-1.99v-1.55h-.09c-.2.49-.52.89-.97,1.2-.45.31-1,.47-1.66.47-.57,0-1.08-.13-1.51-.38-.44-.26-.78-.63-1.03-1.12-.25-.49-.37-1.08-.37-1.78v-5.56h2.06v5.24c0,.55.15.99.46,1.32.3.33.7.49,1.19.49.3,0,.6-.07.88-.22s.52-.37.7-.66c.18-.29.28-.66.28-1.11Z" fill="#fff"/>
      <path d="M904.23,600.55v1.59h-5.02v-1.59h5.02ZM900.45,598.45h2.06v8.19c0,.28.04.49.13.63.08.15.2.25.34.3.14.05.3.08.47.08.13,0,.25,0,.36-.03.11-.02.19-.04.25-.05l.35,1.61c-.11.04-.27.08-.47.12-.2.04-.45.07-.74.08-.52.02-.98-.06-1.39-.24-.41-.17-.74-.44-.98-.8-.24-.36-.36-.82-.36-1.36v-8.53Z" fill="#fff"/>
      <path d="M908.19,604.16v5.11h-2.06v-11.64h2.01v4.39h.1c.21-.49.52-.88.95-1.17s.98-.43,1.64-.43c.61,0,1.13.13,1.59.38.45.25.8.62,1.05,1.11s.37,1.08.37,1.79v5.56h-2.06v-5.24c0-.59-.15-1.04-.45-1.37-.3-.33-.72-.49-1.26-.49-.36,0-.69.08-.97.24s-.51.38-.67.68-.24.65-.24,1.07Z" fill="#fff"/>
      <path d="M917.74,609.27l-2.47-8.73h2.1l1.53,6.14h.08l1.57-6.14h2.07l1.57,6.1h.08l1.51-6.1h2.1l-2.47,8.73h-2.14l-1.64-5.9h-.12l-1.64,5.9h-2.15Z" fill="#fff"/>
      <path d="M931.85,609.45c-.55,0-1.05-.1-1.49-.3-.44-.2-.79-.49-1.05-.88-.26-.39-.38-.87-.38-1.44,0-.49.09-.9.27-1.22.18-.32.43-.58.74-.77s.67-.34,1.07-.44c.4-.1.81-.17,1.23-.22.51-.05.93-.1,1.24-.14.32-.04.55-.11.7-.21.15-.09.22-.24.22-.43v-.03c0-.43-.13-.76-.38-.99-.25-.23-.62-.35-1.1-.35-.5,0-.9.11-1.2.33-.29.22-.49.48-.59.78l-1.92-.27c.15-.53.4-.97.75-1.33.35-.36.77-.63,1.28-.81.5-.18,1.06-.27,1.67-.27.42,0,.84.05,1.26.15.42.1.8.26,1.14.49.34.22.62.53.83.92.21.39.32.87.32,1.45v5.84h-1.98v-1.2h-.07c-.12.24-.3.47-.53.68-.23.21-.51.38-.85.5-.34.13-.74.19-1.19.19ZM932.38,607.94c.41,0,.77-.08,1.07-.25.3-.17.54-.38.7-.66.17-.27.25-.57.25-.89v-1.03c-.06.05-.17.1-.33.15-.15.05-.32.09-.51.12-.19.03-.38.06-.56.09s-.35.05-.48.07c-.31.04-.58.11-.82.21-.24.09-.43.23-.57.39-.14.17-.21.39-.21.65,0,.38.14.67.42.86.28.19.63.29,1.06.29Z" fill="#fff"/>
      <path d="M938.53,609.27v-8.73h1.99v1.46h.09c.16-.5.43-.89.82-1.17.39-.27.83-.41,1.33-.41.11,0,.24,0,.38.01.14,0,.26.02.36.04v1.89c-.09-.03-.22-.06-.41-.08-.19-.03-.37-.04-.54-.04-.38,0-.71.08-1.01.24-.3.16-.53.38-.7.67-.17.28-.26.61-.26.98v5.13h-2.06Z" fill="#fff"/>
      <path d="M944.88,609.27v-11.64h2.06v11.64h-2.06ZM946.75,606.53v-2.48s.32,0,.32,0l3.14-3.51h2.4l-3.86,4.3h-.43l-1.58,1.69ZM950.36,609.27l-2.84-3.97,1.39-1.45,3.92,5.42h-2.46Z" fill="#fff"/>
    </g>
    <g>
      <path d="M747.55,563.29h-2.12c-.06-.35-.17-.66-.33-.93-.16-.27-.37-.5-.61-.69-.24-.19-.52-.33-.83-.43s-.64-.14-1-.14c-.63,0-1.19.16-1.68.47-.49.32-.87.78-1.15,1.39-.28.61-.41,1.35-.41,2.22s.14,1.64.42,2.25c.28.61.66,1.07,1.15,1.38.49.31,1.04.46,1.67.46.35,0,.67-.05.98-.14.3-.09.58-.23.82-.41s.45-.41.62-.67c.17-.27.29-.57.35-.91h2.12c-.08.56-.25,1.08-.51,1.57-.26.49-.61.91-1.03,1.28-.42.37-.92.66-1.49.86-.57.21-1.2.31-1.89.31-1.02,0-1.94-.24-2.74-.71-.8-.47-1.44-1.16-1.9-2.05-.46-.89-.69-1.97-.69-3.22s.23-2.33.7-3.22c.47-.89,1.1-1.57,1.9-2.05s1.71-.71,2.73-.71c.65,0,1.25.09,1.81.27s1.05.45,1.49.8.79.78,1.08,1.28.47,1.08.55,1.73Z" fill="#fff"/>
      <path d="M751.91,571.17c-.55,0-1.05-.1-1.49-.3s-.79-.49-1.04-.88c-.26-.39-.38-.87-.38-1.44,0-.49.09-.9.27-1.22.18-.32.43-.58.74-.77s.67-.34,1.07-.44c.4-.1.81-.17,1.23-.22.51-.05.93-.1,1.24-.14s.55-.11.7-.21c.15-.09.22-.24.22-.43v-.03c0-.43-.13-.76-.38-.99-.25-.23-.62-.35-1.1-.35-.5,0-.9.11-1.2.33-.29.22-.49.48-.59.78l-1.92-.27c.15-.53.4-.97.75-1.33.35-.36.77-.63,1.28-.81.5-.18,1.06-.27,1.67-.27.42,0,.84.05,1.25.15.42.1.8.26,1.14.49.34.22.62.53.83.92.21.39.32.87.32,1.45v5.84h-1.98v-1.2h-.07c-.12.24-.3.47-.53.68-.22.21-.51.38-.85.5-.34.13-.74.19-1.19.19ZM752.44,569.66c.41,0,.77-.08,1.07-.25.3-.17.54-.38.7-.66.16-.27.25-.57.25-.89v-1.03c-.06.05-.17.1-.33.15-.15.05-.32.09-.51.12-.19.03-.38.06-.56.09s-.35.05-.48.07c-.31.04-.58.11-.82.21-.24.09-.43.23-.57.39-.14.17-.21.39-.21.65,0,.38.14.67.41.86s.63.29,1.06.29Z" fill="#fff"/>
      <path d="M758.59,571v-8.73h1.97v1.48h.1c.18-.5.48-.89.9-1.17.42-.28.92-.42,1.51-.42s1.09.14,1.5.43.69.68.86,1.17h.09c.19-.49.52-.87.98-1.16s1.01-.43,1.64-.43c.8,0,1.46.25,1.97.76s.76,1.25.76,2.22v5.86h-2.06v-5.54c0-.54-.14-.94-.43-1.19s-.64-.38-1.06-.38c-.5,0-.88.16-1.16.46s-.42.71-.42,1.2v5.44h-2.02v-5.62c0-.45-.14-.81-.41-1.08-.27-.27-.62-.4-1.06-.4-.3,0-.56.08-.81.22-.24.15-.44.36-.58.63-.14.27-.22.59-.22.95v5.31h-2.06Z" fill="#fff"/>
      <path d="M776.19,571.15c-.69,0-1.3-.18-1.84-.53s-.97-.86-1.28-1.53c-.31-.67-.47-1.48-.47-2.44s.16-1.79.48-2.46.75-1.17,1.3-1.52c.55-.34,1.15-.51,1.82-.51.51,0,.93.09,1.26.26.33.17.59.38.78.62s.34.47.45.68h.08v-4.35h2.06v11.64h-2.02v-1.38h-.12c-.11.21-.26.44-.46.67-.2.24-.47.44-.79.61-.33.17-.75.25-1.25.25ZM776.77,569.46c.44,0,.81-.12,1.11-.36.31-.24.54-.57.7-.99.16-.42.24-.92.24-1.48s-.08-1.06-.24-1.47c-.16-.42-.39-.74-.69-.97-.3-.23-.68-.35-1.12-.35s-.84.12-1.15.36c-.31.24-.54.57-.69.99-.16.42-.23.9-.23,1.44s.08,1.03.24,1.46.39.76.7,1.01.69.37,1.14.37Z" fill="#fff"/>
      <path d="M786.9,571.17c-.88,0-1.63-.18-2.26-.55s-1.12-.88-1.46-1.56c-.34-.67-.51-1.46-.51-2.38s.17-1.69.51-2.37.82-1.21,1.44-1.59c.62-.38,1.34-.57,2.18-.57.54,0,1.05.09,1.53.26.48.17.9.44,1.27.8.37.36.66.82.87,1.37.21.55.32,1.21.32,1.98v.63h-7.15v-1.39h5.18c0-.39-.09-.75-.25-1.05-.17-.31-.4-.55-.7-.73-.3-.18-.64-.27-1.04-.27-.42,0-.79.1-1.11.3-.32.2-.57.47-.74.79-.18.33-.27.69-.27,1.08v1.21c0,.51.09.94.28,1.3.19.36.45.64.78.83s.72.29,1.17.29c.3,0,.57-.04.81-.13.24-.08.45-.21.63-.38.18-.17.31-.37.4-.62l1.92.22c-.12.51-.35.95-.69,1.33-.34.38-.77.67-1.3.88-.53.21-1.13.31-1.81.31Z" fill="#fff"/>
      <path d="M794.58,565.88v5.11h-2.06v-8.73h1.97v1.48h.1c.2-.49.52-.88.96-1.17s.99-.43,1.64-.43c.6,0,1.13.13,1.58.39.45.26.8.63,1.05,1.12.25.49.37,1.08.37,1.78v5.56h-2.06v-5.24c0-.58-.15-1.04-.45-1.37-.3-.33-.72-.49-1.25-.49-.36,0-.68.08-.96.24s-.5.38-.65.68-.24.65-.24,1.07Z" fill="#fff"/>
    </g>
    <g>
      <path d="M809.76,525.13v-11.64h4.45c.84,0,1.54.13,2.1.4.56.26.98.62,1.26,1.08.28.46.42.97.42,1.55,0,.47-.09.88-.27,1.21s-.43.61-.73.82c-.31.21-.65.36-1.03.45v.11c.41.02.81.15,1.19.38s.69.55.93.97c.24.42.36.92.36,1.51s-.15,1.14-.44,1.62c-.29.48-.73.86-1.32,1.13s-1.33.42-2.22.42h-4.71ZM811.86,518.44h2.08c.36,0,.69-.07.98-.2.29-.13.52-.33.69-.57.17-.25.25-.54.25-.88,0-.45-.16-.82-.47-1.11-.32-.29-.79-.44-1.41-.44h-2.13v3.21ZM811.86,523.37h2.27c.76,0,1.32-.15,1.66-.44.34-.29.51-.67.51-1.13,0-.34-.08-.66-.26-.93-.17-.28-.41-.5-.73-.66s-.69-.24-1.12-.24h-2.32v3.41Z" fill="#fff"/>
      <path d="M822.69,525.3c-.55,0-1.05-.1-1.49-.3s-.79-.49-1.05-.88c-.26-.39-.38-.87-.38-1.44,0-.49.09-.9.27-1.22.18-.32.43-.58.74-.77s.67-.34,1.07-.44c.4-.1.81-.17,1.23-.22.51-.05.93-.1,1.24-.14s.55-.11.7-.21c.15-.09.22-.24.22-.43v-.03c0-.43-.13-.76-.38-.99-.25-.23-.62-.35-1.1-.35-.5,0-.9.11-1.2.33s-.49.48-.59.78l-1.92-.27c.15-.53.4-.97.75-1.33.35-.36.78-.63,1.28-.81.5-.18,1.06-.27,1.67-.27.42,0,.84.05,1.26.15s.8.26,1.14.49c.34.22.62.53.83.92.21.39.32.87.32,1.45v5.84h-1.98v-1.2h-.07c-.12.24-.3.47-.53.68-.23.21-.51.38-.85.5-.34.13-.74.19-1.19.19ZM823.23,523.79c.41,0,.77-.08,1.07-.25.3-.17.54-.38.7-.66.17-.27.25-.57.25-.89v-1.03c-.06.05-.17.1-.33.15-.15.05-.33.09-.51.12-.19.03-.38.06-.56.09s-.35.05-.48.07c-.31.04-.58.11-.82.21s-.43.23-.57.39c-.14.17-.21.39-.21.65,0,.38.14.67.42.86s.63.29,1.06.29Z" fill="#fff"/>
      <path d="M829.37,525.13v-8.73h2v1.46h.09c.16-.5.43-.89.82-1.17.39-.27.83-.41,1.33-.41.11,0,.24,0,.38.01.14,0,.26.02.35.04v1.89c-.09-.03-.22-.06-.41-.08-.19-.03-.37-.04-.54-.04-.38,0-.71.08-1.01.24-.3.16-.53.38-.7.67-.17.28-.25.61-.25.98v5.13h-2.06Z" fill="#fff"/>
      <path d="M837.78,520.02v5.11h-2.06v-8.73h1.97v1.48h.1c.2-.49.52-.88.96-1.17.44-.29.99-.43,1.64-.43.6,0,1.13.13,1.58.39.45.26.8.63,1.04,1.12.25.49.37,1.08.37,1.78v5.56h-2.06v-5.24c0-.58-.15-1.04-.45-1.37-.3-.33-.72-.49-1.25-.49-.36,0-.68.08-.96.24s-.5.38-.65.68-.24.65-.24,1.07Z" fill="#fff"/>
      <path d="M849.34,525.3c-.88,0-1.63-.18-2.26-.55-.63-.37-1.12-.88-1.46-1.56-.34-.67-.51-1.46-.51-2.38s.17-1.69.51-2.37.82-1.21,1.44-1.59c.62-.38,1.34-.57,2.18-.57.54,0,1.04.09,1.53.26.48.17.9.44,1.27.8.37.36.66.82.87,1.37s.32,1.21.32,1.98v.63h-7.15v-1.39h5.18c0-.39-.09-.75-.25-1.05-.17-.31-.4-.55-.7-.73s-.64-.27-1.04-.27c-.42,0-.79.1-1.11.3-.32.2-.57.47-.74.79-.18.33-.27.69-.27,1.08v1.21c0,.51.09.94.28,1.3.19.36.44.64.78.83.33.19.72.29,1.17.29.3,0,.57-.04.81-.13.24-.08.45-.21.63-.38.18-.17.31-.37.4-.62l1.92.22c-.12.51-.35.95-.69,1.33-.34.38-.77.67-1.3.88-.53.21-1.13.31-1.81.31Z" fill="#fff"/>
      <path d="M859.32,516.4v1.59h-5.02v-1.59h5.02ZM855.54,514.31h2.06v8.19c0,.28.04.49.13.63.08.15.2.25.34.3.14.05.29.08.47.08.13,0,.25,0,.36-.03.11-.02.19-.04.25-.05l.35,1.61c-.11.04-.27.08-.47.12-.2.04-.45.07-.74.08-.51.02-.98-.06-1.39-.24-.41-.17-.74-.44-.98-.8-.24-.36-.36-.82-.35-1.36v-8.53Z" fill="#fff"/>
    </g>
  </g>
  <g>
    <path d="M435.21,667.7v-11.64h7.57v1.77h-5.46v3.16h5.07v1.77h-5.07v3.18h5.51v1.77h-7.61Z" fill="#fff"/>
    <path d="M444.84,670.97v-12h2.02v1.44h.12c.11-.21.26-.44.45-.68.19-.24.45-.45.78-.62.33-.17.75-.26,1.26-.26.67,0,1.28.17,1.83.51.54.34.98.85,1.3,1.52.32.67.48,1.49.48,2.46s-.16,1.77-.47,2.44c-.31.67-.74,1.18-1.28,1.53-.54.35-1.16.53-1.84.53-.5,0-.91-.08-1.24-.25s-.59-.37-.79-.61c-.2-.24-.35-.46-.46-.67h-.08v4.65h-2.06ZM446.85,663.34c0,.56.08,1.06.24,1.48.16.42.39.75.7.99.3.24.68.36,1.11.36s.84-.12,1.14-.37.54-.58.7-1.01.24-.91.24-1.46-.08-1.02-.23-1.44c-.16-.42-.39-.75-.69-.99-.31-.24-.69-.36-1.15-.36s-.81.12-1.12.35c-.31.23-.54.55-.7.97-.16.42-.24.91-.24,1.47Z" fill="#fff"/>
    <path d="M461.73,661.28l-1.88.21c-.05-.19-.15-.37-.28-.53-.13-.17-.31-.3-.53-.4s-.49-.15-.81-.15c-.43,0-.79.09-1.08.28-.29.19-.43.43-.43.72,0,.25.09.46.28.62s.51.29.95.39l1.49.32c.83.18,1.44.46,1.84.85.4.39.61.89.61,1.52,0,.55-.16,1.03-.48,1.45-.32.42-.75.75-1.32.98-.56.23-1.2.35-1.93.35-1.07,0-1.93-.22-2.58-.67-.65-.45-1.04-1.07-1.17-1.88l2.01-.19c.09.39.28.69.58.89.3.2.68.3,1.15.3s.88-.1,1.18-.3c.3-.2.45-.45.45-.74,0-.25-.1-.46-.29-.62-.19-.16-.49-.29-.89-.38l-1.49-.31c-.84-.17-1.46-.47-1.86-.88-.4-.42-.6-.94-.6-1.58,0-.54.14-1,.44-1.4s.71-.7,1.24-.92c.53-.22,1.15-.33,1.84-.33,1.02,0,1.83.22,2.42.65s.95,1.02,1.09,1.77Z" fill="#fff"/>
    <path d="M467.42,667.87c-.85,0-1.59-.19-2.22-.56s-1.11-.9-1.45-1.57-.51-1.46-.51-2.36.17-1.69.51-2.37c.34-.68.83-1.2,1.45-1.58s1.36-.56,2.22-.56,1.59.19,2.22.56,1.11.9,1.45,1.58c.34.68.51,1.47.51,2.37s-.17,1.69-.51,2.36-.83,1.2-1.45,1.57-1.36.56-2.22.56ZM467.43,666.22c.46,0,.85-.13,1.16-.38.31-.26.54-.6.7-1.03.15-.43.23-.91.23-1.44s-.08-1.02-.23-1.45-.39-.78-.7-1.04c-.31-.26-.7-.39-1.16-.39s-.87.13-1.18.39c-.31.26-.55.6-.7,1.04s-.23.92-.23,1.45.08,1.01.23,1.44c.15.43.39.78.7,1.03.31.25.71.38,1.18.38Z" fill="#fff"/>
    <path d="M473.34,667.7v-8.73h1.97v1.48h.1c.18-.5.48-.89.9-1.17.42-.28.92-.42,1.51-.42s1.09.14,1.5.43.69.68.86,1.17h.09c.19-.49.52-.87.98-1.16s1.01-.43,1.64-.43c.8,0,1.46.25,1.97.76.51.51.76,1.25.76,2.22v5.86h-2.06v-5.54c0-.54-.14-.94-.43-1.19s-.64-.38-1.06-.38c-.5,0-.88.16-1.16.46s-.42.71-.42,1.2v5.44h-2.02v-5.62c0-.45-.14-.81-.41-1.08-.27-.27-.62-.4-1.06-.4-.29,0-.56.08-.81.22-.24.15-.44.36-.58.63-.14.27-.22.59-.22.95v5.31h-2.06Z" fill="#fff"/>
    <path d="M495.15,667.87c-.8,0-1.48-.14-2.05-.43-.57-.29-1.01-.68-1.32-1.17-.31-.49-.46-1.04-.46-1.66,0-.47.1-.88.29-1.24.19-.36.46-.69.8-1,.34-.31.73-.61,1.18-.92l2.06-1.4c.3-.2.53-.41.69-.62s.24-.48.24-.77c0-.25-.11-.49-.32-.71-.21-.22-.5-.33-.87-.33-.25,0-.46.06-.65.17-.19.12-.33.27-.44.45-.1.19-.16.38-.16.59,0,.25.07.51.21.77.14.26.33.53.56.81.23.28.47.58.74.89l5.46,6.4h-2.23l-4.53-5.19c-.34-.39-.66-.78-.97-1.17-.31-.38-.57-.78-.77-1.2-.2-.42-.3-.87-.3-1.35,0-.55.13-1.04.38-1.47s.61-.78,1.07-1.03c.46-.25.99-.38,1.6-.38s1.14.12,1.58.36c.44.24.78.56,1.02.97.24.4.36.84.36,1.31,0,.55-.14,1.04-.41,1.47s-.65.83-1.14,1.18l-2.35,1.72c-.39.28-.66.56-.83.85s-.25.53-.25.73c0,.31.08.58.23.83s.37.45.66.6.61.22.99.22c.42,0,.83-.09,1.23-.28s.78-.46,1.11-.8c.33-.35.6-.77.8-1.25.2-.49.29-1.03.29-1.62h1.77c0,.74-.08,1.38-.25,1.92-.16.54-.37,1-.63,1.38-.26.37-.53.67-.82.89-.09.06-.18.13-.26.19s-.17.13-.26.19c-.41.37-.89.64-1.43.82-.55.17-1.08.26-1.61.26Z" fill="#fff"/>
    <path d="M506.34,667.7v-11.64h7.57v1.77h-5.46v3.16h5.07v1.77h-5.07v3.18h5.51v1.77h-7.61Z" fill="#fff"/>
    <path d="M517.77,667.7l-2.47-8.73h2.1l1.53,6.14h.08l1.57-6.14h2.07l1.57,6.1h.08l1.51-6.1h2.1l-2.47,8.73h-2.14l-1.64-5.9h-.12l-1.64,5.9h-2.15Z" fill="#fff"/>
    <path d="M532.99,667.87c-.88,0-1.63-.18-2.26-.55s-1.12-.88-1.46-1.56c-.34-.67-.51-1.46-.51-2.38s.17-1.69.51-2.37.82-1.21,1.44-1.59c.62-.38,1.34-.57,2.18-.57.54,0,1.05.09,1.53.26.48.17.9.44,1.27.8.37.36.66.82.87,1.37.21.55.32,1.21.32,1.98v.63h-7.15v-1.39h5.18c0-.39-.09-.75-.25-1.05-.17-.31-.4-.55-.7-.73-.3-.18-.64-.27-1.04-.27-.42,0-.79.1-1.11.3-.32.2-.57.47-.74.79-.18.33-.27.69-.27,1.08v1.21c0,.51.09.94.28,1.3.19.36.45.64.78.83s.72.29,1.17.29c.3,0,.57-.04.81-.13.24-.08.45-.21.63-.38.18-.17.31-.37.4-.62l1.92.22c-.12.51-.35.95-.69,1.33-.34.38-.77.67-1.3.88-.53.21-1.13.31-1.81.31Z" fill="#fff"/>
    <path d="M540.67,656.06v11.64h-2.06v-11.64h2.06Z" fill="#fff"/>
    <path d="M544.84,656.06v11.64h-2.06v-11.64h2.06Z" fill="#fff"/>
  </g>
  <g>
    <path d="M385.48,547.48v-11.64h4.45c.84,0,1.54.13,2.1.4.56.26.98.62,1.26,1.08.28.46.42.97.42,1.55,0,.47-.09.88-.27,1.21-.18.33-.43.61-.73.82-.31.21-.65.36-1.03.45v.11c.41.02.81.15,1.19.38s.69.55.93.97c.24.42.36.92.36,1.51s-.15,1.14-.44,1.62c-.29.48-.73.86-1.32,1.13-.59.28-1.33.42-2.22.42h-4.71ZM387.58,540.79h2.08c.36,0,.69-.07.98-.2.29-.13.52-.33.69-.57s.25-.54.25-.88c0-.45-.16-.82-.47-1.11-.32-.29-.79-.44-1.41-.44h-2.13v3.21ZM387.58,545.72h2.27c.76,0,1.32-.15,1.66-.44.34-.29.51-.67.51-1.13,0-.34-.09-.66-.26-.93s-.41-.5-.73-.66-.69-.24-1.12-.24h-2.32v3.41Z" fill="#fff"/>
    <path d="M401.46,543.81v-5.06h2.06v8.73h-1.99v-1.55h-.09c-.2.49-.52.89-.97,1.2s-1,.47-1.66.47c-.57,0-1.08-.13-1.51-.38-.44-.26-.78-.63-1.03-1.12-.25-.49-.37-1.08-.37-1.78v-5.56h2.06v5.24c0,.55.15.99.45,1.32.3.33.7.49,1.19.49.3,0,.6-.07.88-.22s.52-.37.7-.66c.18-.29.28-.66.28-1.11Z" fill="#fff"/>
    <path d="M409.44,547.65c-.87,0-1.62-.19-2.24-.57s-1.1-.91-1.44-1.59c-.33-.68-.5-1.46-.5-2.34s.17-1.67.51-2.35c.34-.68.82-1.21,1.45-1.59.62-.38,1.36-.57,2.21-.57.71,0,1.34.13,1.88.39.55.26.98.62,1.31,1.1s.51,1.02.56,1.65h-1.97c-.08-.42-.27-.77-.57-1.05s-.69-.42-1.19-.42c-.42,0-.79.11-1.11.34-.32.23-.57.55-.74.97s-.26.92-.26,1.51.09,1.1.26,1.53c.17.43.42.75.74.98.32.23.69.34,1.12.34.3,0,.57-.06.81-.17.24-.12.44-.28.61-.5.16-.22.27-.49.33-.8h1.97c-.05.62-.23,1.16-.55,1.64s-.74.85-1.28,1.11c-.54.27-1.18.4-1.91.4Z" fill="#fff"/>
    <path d="M414.87,547.48v-11.64h2.06v11.64h-2.06ZM416.75,544.74v-2.48s.32,0,.32,0l3.14-3.51h2.4l-3.86,4.3h-.43l-1.58,1.69ZM420.35,547.48l-2.84-3.97,1.39-1.45,3.91,5.42h-2.46Z" fill="#fff"/>
    <path d="M425.01,537.51c-.33,0-.61-.11-.84-.33-.23-.22-.35-.48-.35-.79s.12-.57.35-.79.52-.33.84-.33.61.11.84.33c.23.22.35.48.35.79s-.12.57-.35.79c-.23.22-.51.33-.84.33ZM423.98,547.48v-8.73h2.06v8.73h-2.06Z" fill="#fff"/>
    <path d="M430.2,542.37v5.11h-2.06v-8.73h1.97v1.48h.1c.2-.49.52-.88.96-1.17s.99-.43,1.64-.43c.6,0,1.13.13,1.58.39.45.26.8.63,1.05,1.12.25.49.37,1.08.37,1.78v5.56h-2.06v-5.24c0-.58-.15-1.04-.45-1.37-.3-.33-.72-.49-1.25-.49-.36,0-.68.08-.96.24s-.5.38-.65.68-.24.65-.24,1.07Z" fill="#fff"/>
    <path d="M441.7,550.93c-.74,0-1.37-.1-1.9-.3s-.96-.46-1.28-.8c-.32-.33-.55-.7-.67-1.11l1.85-.45c.08.17.2.34.36.51s.37.31.64.42c.27.11.61.17,1.03.17.58,0,1.07-.14,1.45-.42s.57-.75.57-1.39v-1.65h-.1c-.11.21-.26.43-.46.65-.2.22-.47.41-.8.56-.33.15-.75.23-1.25.23-.67,0-1.28-.16-1.82-.47-.54-.32-.98-.79-1.3-1.42-.32-.63-.48-1.42-.48-2.37s.16-1.77.48-2.43.75-1.16,1.3-1.51c.54-.34,1.15-.51,1.82-.51.51,0,.93.09,1.26.26.33.17.6.38.79.62.2.24.35.47.45.68h.11v-1.44h2.03v8.87c0,.75-.18,1.36-.53,1.85-.36.49-.84.85-1.46,1.1-.62.24-1.32.36-2.1.36ZM441.71,545.74c.44,0,.81-.11,1.11-.32.31-.21.54-.52.7-.92s.24-.88.24-1.43-.08-1.03-.24-1.44-.39-.73-.69-.96-.68-.34-1.12-.34-.84.12-1.15.36c-.31.24-.54.57-.69.98s-.23.89-.23,1.41.08,1,.24,1.4.39.71.7.93c.31.22.69.33,1.14.33Z" fill="#fff"/>
    <path d="M449.96,542.37v5.11h-2.06v-11.64h2.01v4.39h.1c.2-.49.52-.88.95-1.17s.98-.43,1.64-.43c.61,0,1.13.13,1.59.38.45.25.8.62,1.05,1.11s.37,1.08.37,1.79v5.56h-2.06v-5.24c0-.59-.15-1.04-.45-1.37-.3-.33-.72-.49-1.26-.49-.36,0-.69.08-.97.24s-.51.38-.67.68c-.16.3-.24.65-.24,1.07Z" fill="#fff"/>
    <path d="M460.22,547.65c-.55,0-1.05-.1-1.49-.3-.44-.2-.79-.49-1.05-.88-.26-.39-.38-.87-.38-1.44,0-.49.09-.9.27-1.22.18-.32.43-.58.74-.77s.67-.34,1.07-.44c.4-.1.81-.17,1.23-.22.51-.05.93-.1,1.24-.14.32-.04.55-.11.7-.21.15-.09.22-.24.22-.43v-.03c0-.43-.13-.76-.38-.99-.25-.23-.62-.35-1.1-.35-.5,0-.9.11-1.2.33-.29.22-.49.48-.59.78l-1.92-.27c.15-.53.4-.97.75-1.33.35-.36.77-.63,1.28-.81.5-.18,1.06-.27,1.67-.27.42,0,.84.05,1.26.15.42.1.8.26,1.14.49.34.22.62.53.83.92.21.39.32.87.32,1.45v5.84h-1.98v-1.2h-.07c-.12.24-.3.47-.53.68-.23.21-.51.38-.85.5-.34.13-.74.19-1.19.19ZM460.76,546.14c.41,0,.77-.08,1.07-.25.3-.17.54-.38.7-.66.17-.27.25-.57.25-.89v-1.03c-.06.05-.17.1-.33.15-.15.05-.32.09-.51.12-.19.03-.38.06-.56.09s-.35.05-.48.07c-.31.04-.58.11-.82.21-.24.09-.43.23-.57.39-.14.17-.21.39-.21.65,0,.38.14.67.42.86.28.19.63.29,1.06.29Z" fill="#fff"/>
    <path d="M466.91,547.48v-8.73h1.97v1.48h.1c.18-.5.48-.89.9-1.17.42-.28.92-.42,1.51-.42s1.09.14,1.5.43.69.68.86,1.17h.09c.19-.49.52-.87.98-1.16s1.01-.43,1.64-.43c.8,0,1.46.25,1.97.76.51.51.76,1.25.76,2.22v5.86h-2.06v-5.54c0-.54-.14-.94-.43-1.19s-.64-.38-1.06-.38c-.5,0-.88.16-1.16.46s-.42.71-.42,1.2v5.44h-2.02v-5.62c0-.45-.14-.81-.41-1.08-.27-.27-.62-.4-1.06-.4-.29,0-.56.08-.81.22-.24.15-.44.36-.58.63-.14.27-.22.59-.22.95v5.31h-2.06Z" fill="#fff"/>
    <path d="M488.17,541.06l-1.88.21c-.05-.19-.14-.37-.28-.53s-.31-.3-.53-.4-.49-.15-.81-.15c-.43,0-.79.09-1.08.28-.29.19-.43.43-.43.72,0,.25.09.46.28.62s.51.29.95.39l1.49.32c.83.18,1.44.46,1.84.85.4.39.61.89.61,1.52,0,.55-.16,1.03-.48,1.45-.32.42-.75.75-1.32.98-.56.23-1.21.35-1.93.35-1.07,0-1.93-.22-2.58-.67s-1.04-1.07-1.16-1.88l2-.19c.09.39.28.69.58.89.29.2.68.3,1.15.3s.88-.1,1.18-.3c.3-.2.45-.45.45-.74,0-.25-.1-.46-.29-.62-.19-.16-.49-.29-.89-.38l-1.49-.31c-.84-.17-1.46-.47-1.86-.88-.4-.42-.6-.94-.6-1.58,0-.54.14-1,.44-1.4.3-.4.71-.7,1.24-.92.53-.22,1.15-.33,1.84-.33,1.02,0,1.83.22,2.42.65.59.44.95,1.02,1.09,1.77Z" fill="#fff"/>
    <path d="M492.11,542.37v5.11h-2.06v-11.64h2.01v4.39h.1c.2-.49.52-.88.95-1.17s.98-.43,1.64-.43c.61,0,1.13.13,1.59.38.45.25.8.62,1.05,1.11s.37,1.08.37,1.79v5.56h-2.06v-5.24c0-.59-.15-1.04-.45-1.37-.3-.33-.72-.49-1.26-.49-.36,0-.69.08-.97.24s-.51.38-.67.68c-.16.3-.24.65-.24,1.07Z" fill="#fff"/>
    <path d="M500.89,537.51c-.33,0-.61-.11-.84-.33-.24-.22-.35-.48-.35-.79s.12-.57.35-.79c.23-.22.51-.33.84-.33s.61.11.84.33c.23.22.35.48.35.79s-.12.57-.35.79c-.23.22-.51.33-.84.33ZM499.86,547.48v-8.73h2.06v8.73h-2.06Z" fill="#fff"/>
    <path d="M504.03,547.48v-8.73h1.99v1.46h.09c.16-.5.43-.89.82-1.17.39-.27.83-.41,1.33-.41.11,0,.24,0,.38.01.14,0,.26.02.36.04v1.89c-.09-.03-.22-.06-.41-.08-.19-.03-.37-.04-.54-.04-.38,0-.71.08-1.01.24-.3.16-.53.38-.7.67-.17.28-.26.61-.26.98v5.13h-2.06Z" fill="#fff"/>
    <path d="M513.88,547.65c-.88,0-1.63-.18-2.26-.55s-1.12-.88-1.46-1.56c-.34-.67-.51-1.46-.51-2.38s.17-1.69.51-2.37.82-1.21,1.44-1.59c.62-.38,1.34-.57,2.18-.57.54,0,1.05.09,1.53.26.48.17.9.44,1.27.8.37.36.66.82.87,1.37.21.55.32,1.21.32,1.98v.63h-7.15v-1.39h5.18c0-.39-.09-.75-.25-1.05-.17-.31-.4-.55-.7-.73-.3-.18-.64-.27-1.04-.27-.42,0-.79.1-1.11.3-.32.2-.57.47-.74.79-.18.33-.27.69-.27,1.08v1.21c0,.51.09.94.28,1.3.19.36.45.64.78.83s.72.29,1.17.29c.3,0,.57-.04.81-.13.24-.08.45-.21.63-.38.18-.17.31-.37.4-.62l1.92.22c-.12.51-.35.95-.69,1.33-.34.38-.77.67-1.3.88-.53.21-1.13.31-1.81.31Z" fill="#fff"/>
  </g>
  <g>
    <path d="M275.37,522.62v-1.77h9.28v1.77h-3.6v9.87h-2.09v-9.87h-3.6Z" fill="#fff"/>
    <path d="M288.94,532.66c-.88,0-1.63-.18-2.26-.55s-1.12-.88-1.46-1.56c-.34-.67-.51-1.46-.51-2.38s.17-1.69.51-2.37.82-1.21,1.44-1.59c.62-.38,1.34-.57,2.18-.57.54,0,1.05.09,1.53.26.48.17.9.44,1.27.8.37.36.66.82.87,1.37s.32,1.21.32,1.98v.63h-7.15v-1.39h5.18c0-.39-.09-.75-.26-1.05-.17-.31-.4-.55-.7-.73s-.64-.27-1.04-.27c-.42,0-.79.1-1.11.3-.32.2-.57.47-.74.79-.18.33-.27.69-.27,1.08v1.21c0,.51.09.94.28,1.3.19.36.44.64.78.83s.72.29,1.17.29c.3,0,.57-.04.81-.13.24-.08.45-.21.63-.38.18-.17.31-.37.4-.62l1.92.22c-.12.51-.35.95-.69,1.33-.34.38-.77.67-1.3.88-.53.21-1.13.31-1.81.31Z" fill="#fff"/>
    <path d="M296.31,532.49l-2.47-8.73h2.1l1.53,6.14h.08l1.57-6.14h2.07l1.57,6.1h.09l1.51-6.1h2.1l-2.47,8.73h-2.14l-1.64-5.9h-.12l-1.64,5.9h-2.15Z" fill="#fff"/>
    <path d="M307.91,532.49v-11.64h2.06v11.64h-2.06ZM309.78,529.75v-2.48s.32,0,.32,0l3.14-3.51h2.4l-3.86,4.3h-.43l-1.58,1.69ZM313.39,532.49l-2.84-3.97,1.39-1.45,3.91,5.42h-2.46Z" fill="#fff"/>
    <path d="M320.51,532.66c-.88,0-1.63-.18-2.26-.55s-1.12-.88-1.46-1.56c-.34-.67-.51-1.46-.51-2.38s.17-1.69.51-2.37.82-1.21,1.44-1.59c.62-.38,1.34-.57,2.18-.57.54,0,1.05.09,1.53.26.48.17.9.44,1.27.8.37.36.66.82.87,1.37.21.55.32,1.21.32,1.98v.63h-7.15v-1.39h5.18c0-.39-.09-.75-.25-1.05-.17-.31-.4-.55-.7-.73-.3-.18-.64-.27-1.04-.27-.42,0-.79.1-1.11.3-.32.2-.57.47-.74.79-.18.33-.27.69-.27,1.08v1.21c0,.51.09.94.28,1.3.19.36.45.64.78.83s.72.29,1.17.29c.3,0,.57-.04.81-.13.24-.08.45-.21.63-.38.18-.17.31-.37.4-.62l1.92.22c-.12.51-.35.95-.69,1.33-.34.38-.77.67-1.3.88-.53.21-1.13.31-1.81.31Z" fill="#fff"/>
    <path d="M333.03,526.07l-1.88.21c-.05-.19-.14-.37-.28-.53s-.31-.3-.53-.4-.49-.15-.81-.15c-.43,0-.79.09-1.08.28-.29.19-.43.43-.43.72,0,.25.09.46.28.62s.51.29.95.39l1.49.32c.83.18,1.44.46,1.84.85.4.39.61.89.61,1.52,0,.55-.16,1.03-.48,1.45-.32.42-.75.75-1.32.98-.56.23-1.21.35-1.93.35-1.07,0-1.93-.22-2.58-.67s-1.04-1.07-1.16-1.88l2-.19c.09.39.28.69.58.89.29.2.68.3,1.15.3s.88-.1,1.18-.3c.3-.2.45-.45.45-.74,0-.25-.1-.46-.29-.62-.19-.16-.49-.29-.89-.38l-1.49-.31c-.84-.17-1.46-.47-1.86-.88-.4-.42-.6-.94-.6-1.58,0-.54.14-1,.44-1.4.3-.4.71-.7,1.24-.92.53-.22,1.15-.33,1.84-.33,1.02,0,1.83.22,2.42.65.59.44.95,1.02,1.09,1.77Z" fill="#fff"/>
    <path d="M335.01,532.49v-11.64h2.06v4.35h.09c.11-.21.26-.44.45-.68.19-.24.46-.45.78-.62.33-.17.75-.26,1.26-.26.67,0,1.28.17,1.83.51.54.34.98.85,1.3,1.52s.48,1.49.48,2.46-.16,1.77-.47,2.44c-.31.67-.74,1.18-1.28,1.53-.54.35-1.16.53-1.84.53-.5,0-.92-.08-1.24-.25-.33-.17-.59-.37-.79-.61-.2-.24-.35-.46-.46-.67h-.12v1.38h-2.02ZM337.02,528.13c0,.56.08,1.06.24,1.48.16.42.39.75.7.99.3.24.67.36,1.11.36s.83-.12,1.14-.37c.31-.24.54-.58.7-1.01s.24-.91.24-1.46-.08-1.02-.23-1.44c-.16-.42-.39-.75-.69-.99-.31-.24-.69-.36-1.15-.36s-.81.12-1.12.35c-.31.23-.54.55-.7.97-.16.42-.24.91-.24,1.47Z" fill="#fff"/>
    <path d="M350.56,528.82v-5.06h2.06v8.73h-1.99v-1.55h-.09c-.2.49-.52.89-.97,1.2s-1,.47-1.66.47c-.57,0-1.08-.13-1.51-.38-.44-.26-.78-.63-1.03-1.12-.25-.49-.37-1.08-.37-1.78v-5.56h2.06v5.24c0,.55.15.99.46,1.32.3.33.7.49,1.19.49.3,0,.6-.07.88-.22.28-.15.52-.37.7-.66.18-.29.28-.66.28-1.11Z" fill="#fff"/>
    <path d="M354.73,532.49v-8.73h1.99v1.46h.09c.16-.5.43-.89.82-1.17.39-.27.83-.41,1.33-.41.11,0,.24,0,.38.01.14,0,.26.02.36.04v1.89c-.09-.03-.22-.06-.41-.08-.19-.03-.37-.04-.54-.04-.38,0-.71.08-1.01.24-.3.16-.53.38-.7.67-.17.28-.26.61-.26.98v5.13h-2.06Z" fill="#fff"/>
    <path d="M362.63,535.76c-.28,0-.54-.02-.78-.07-.24-.04-.42-.09-.57-.15l.48-1.6c.3.09.57.13.8.12.24,0,.44-.08.62-.22.18-.14.33-.38.46-.71l.18-.47-3.17-8.91h2.18l2.01,6.59h.09l2.02-6.59h2.19l-3.49,9.78c-.16.46-.38.86-.65,1.19-.27.33-.6.58-.99.76-.39.18-.85.26-1.39.26Z" fill="#fff"/>
  </g>
  <g>
    <path d="M366.89,317.77h-3.94v-11.64h4.02c1.16,0,2.15.23,2.98.7s1.47,1.13,1.92,2c.45.87.67,1.91.67,3.11s-.22,2.25-.67,3.12c-.45.87-1.09,1.54-1.94,2s-1.85.7-3.04.7ZM365.06,315.95h1.73c.81,0,1.49-.15,2.03-.45.54-.3.95-.74,1.22-1.34.27-.59.41-1.33.41-2.22s-.14-1.63-.41-2.22c-.27-.59-.68-1.03-1.21-1.32s-1.19-.44-1.98-.44h-1.8v7.99Z" fill="#fff"/>
    <path d="M378.26,317.94c-.85,0-1.59-.19-2.22-.56s-1.11-.9-1.45-1.57-.51-1.46-.51-2.36.17-1.69.51-2.37c.34-.68.83-1.2,1.45-1.58s1.36-.56,2.22-.56,1.59.19,2.22.56,1.11.9,1.45,1.58c.34.68.51,1.47.51,2.37s-.17,1.69-.51,2.36-.83,1.2-1.45,1.57-1.36.56-2.22.56ZM378.27,316.3c.46,0,.85-.13,1.16-.38.31-.26.54-.6.7-1.03.15-.43.23-.91.23-1.44s-.08-1.02-.23-1.45-.39-.78-.7-1.04c-.31-.26-.7-.39-1.16-.39s-.87.13-1.18.39c-.31.26-.55.6-.7,1.04s-.23.92-.23,1.45.08,1.01.23,1.44c.15.43.39.78.7,1.03.31.25.71.38,1.18.38Z" fill="#fff"/>
    <path d="M386.23,312.66v5.11h-2.06v-8.73h1.97v1.48h.1c.2-.49.52-.88.96-1.17.44-.29.99-.43,1.64-.43.6,0,1.13.13,1.58.39.45.26.8.63,1.05,1.12.25.49.37,1.08.37,1.78v5.56h-2.06v-5.24c0-.58-.15-1.04-.45-1.37-.3-.33-.72-.49-1.25-.49-.36,0-.68.08-.96.24s-.5.38-.65.68c-.16.3-.24.65-.24,1.07Z" fill="#fff"/>
    <path d="M397.74,317.94c-.87,0-1.62-.19-2.24-.57s-1.1-.91-1.44-1.59c-.33-.68-.5-1.46-.5-2.34s.17-1.67.51-2.35c.34-.68.82-1.21,1.45-1.59.62-.38,1.36-.57,2.21-.57.71,0,1.34.13,1.88.39.55.26.98.62,1.31,1.1s.51,1.02.56,1.65h-1.97c-.08-.42-.27-.77-.57-1.05s-.69-.42-1.19-.42c-.42,0-.79.11-1.11.34-.32.23-.57.55-.74.97s-.26.92-.26,1.51.09,1.1.26,1.53c.17.43.42.75.74.98.32.23.69.34,1.12.34.3,0,.57-.06.81-.17.24-.12.44-.28.61-.5.16-.22.27-.49.33-.8h1.97c-.05.62-.23,1.16-.55,1.64s-.74.85-1.28,1.11c-.54.27-1.18.4-1.91.4Z" fill="#fff"/>
    <path d="M405.68,317.95c-.55,0-1.05-.1-1.49-.3s-.79-.49-1.04-.88c-.26-.39-.38-.87-.38-1.44,0-.49.09-.9.27-1.22.18-.32.43-.58.74-.77s.67-.34,1.07-.44c.39-.1.8-.17,1.23-.22.51-.05.93-.1,1.24-.14.32-.04.55-.11.7-.21.14-.09.22-.24.22-.43v-.03c0-.43-.13-.76-.38-.99-.25-.23-.62-.35-1.1-.35-.5,0-.9.11-1.2.33s-.49.48-.59.78l-1.92-.27c.15-.53.4-.97.75-1.33.35-.36.77-.63,1.28-.81.5-.18,1.06-.27,1.67-.27.42,0,.84.05,1.26.15.42.1.8.26,1.14.49.35.22.62.53.83.92.21.39.32.87.32,1.45v5.84h-1.98v-1.2h-.07c-.12.24-.3.47-.53.68-.23.21-.51.38-.85.5-.34.13-.74.19-1.19.19ZM406.22,316.44c.41,0,.77-.08,1.07-.25.3-.17.54-.38.7-.66.17-.27.25-.57.25-.89v-1.03c-.06.05-.17.1-.33.15-.15.05-.32.09-.51.12-.19.03-.38.06-.56.09s-.35.05-.48.07c-.31.04-.58.11-.82.21s-.43.23-.57.39c-.14.17-.21.39-.21.65,0,.38.14.67.41.86s.63.29,1.06.29Z" fill="#fff"/>
    <path d="M419.26,311.35l-1.88.21c-.05-.19-.14-.37-.28-.53s-.31-.3-.53-.4-.49-.15-.81-.15c-.43,0-.79.09-1.08.28-.29.19-.43.43-.43.72,0,.25.09.46.28.62s.51.29.95.39l1.49.32c.83.18,1.44.46,1.84.85.4.39.61.89.61,1.52,0,.55-.16,1.03-.48,1.45-.32.42-.75.75-1.32.98-.56.23-1.21.35-1.93.35-1.07,0-1.93-.22-2.58-.67s-1.04-1.07-1.16-1.88l2-.19c.09.39.28.69.58.89.29.2.68.3,1.15.3s.88-.1,1.18-.3c.3-.2.45-.45.45-.74,0-.25-.1-.46-.29-.62-.19-.16-.49-.29-.89-.38l-1.49-.31c-.84-.17-1.46-.47-1.86-.88-.4-.42-.6-.94-.6-1.58,0-.54.14-1,.44-1.4.3-.4.71-.7,1.24-.92.53-.22,1.15-.33,1.84-.33,1.02,0,1.83.22,2.42.65.59.44.95,1.02,1.09,1.77Z" fill="#fff"/>
    <path d="M425.51,309.05v1.59h-5.02v-1.59h5.02ZM421.73,306.96h2.06v8.19c0,.28.04.49.13.63.08.15.2.25.34.3.14.05.29.08.47.08.13,0,.25,0,.36-.03.11-.02.19-.04.25-.05l.35,1.61c-.11.04-.27.08-.47.12-.2.04-.45.07-.74.08-.51.02-.98-.06-1.39-.24-.41-.17-.74-.44-.98-.8-.24-.36-.36-.82-.35-1.36v-8.53Z" fill="#fff"/>
    <path d="M431,317.94c-.88,0-1.63-.18-2.26-.55s-1.12-.88-1.46-1.56c-.34-.67-.51-1.46-.51-2.38s.17-1.69.51-2.37.82-1.21,1.44-1.59c.62-.38,1.34-.57,2.18-.57.54,0,1.05.09,1.53.26.48.17.9.44,1.27.8.37.36.66.82.87,1.37.21.55.32,1.21.32,1.98v.63h-7.15v-1.39h5.18c0-.39-.09-.75-.25-1.05-.17-.31-.4-.55-.7-.73-.3-.18-.64-.27-1.04-.27-.42,0-.79.1-1.11.3-.32.2-.57.47-.74.79-.18.33-.27.69-.27,1.08v1.21c0,.51.09.94.28,1.3.19.36.45.64.78.83s.72.29,1.17.29c.3,0,.57-.04.81-.13.24-.08.45-.21.63-.38.18-.17.31-.37.4-.62l1.92.22c-.12.51-.35.95-.69,1.33-.34.38-.77.67-1.3.88-.53.21-1.13.31-1.81.31Z" fill="#fff"/>
    <path d="M436.62,317.77v-8.73h1.99v1.46h.09c.16-.5.43-.89.82-1.17.39-.27.83-.41,1.33-.41.11,0,.24,0,.38.01.14,0,.26.02.36.04v1.89c-.09-.03-.22-.06-.41-.08-.19-.03-.37-.04-.54-.04-.38,0-.71.08-1.01.24-.3.16-.53.38-.7.67-.17.28-.26.61-.26.98v5.13h-2.06Z" fill="#fff"/>
  </g>
  <g>
    <path d="M317.34,163.25c-.09-.31-.22-.58-.39-.83-.17-.24-.36-.45-.59-.63-.23-.17-.49-.31-.79-.39s-.62-.13-.97-.13c-.62,0-1.18.16-1.67.47-.49.31-.87.78-1.15,1.38-.28.61-.42,1.35-.42,2.22s.14,1.62.41,2.23c.28.61.66,1.07,1.15,1.39.49.32,1.06.47,1.72.47.59,0,1.1-.11,1.54-.34.43-.23.77-.55,1-.97.23-.42.35-.91.35-1.47l.48.07h-3.16v-1.65h4.72v1.4c0,1-.21,1.86-.64,2.58-.42.73-1.01,1.29-1.75,1.68-.74.39-1.59.59-2.56.59-1.07,0-2.01-.24-2.82-.72-.81-.48-1.44-1.17-1.89-2.06-.45-.89-.68-1.95-.68-3.18,0-.94.13-1.78.4-2.52.27-.74.64-1.37,1.12-1.88.48-.52,1.05-.91,1.69-1.18.65-.27,1.35-.41,2.11-.41.64,0,1.24.09,1.8.28s1.05.45,1.49.8.79.75,1.07,1.23.46,1,.55,1.57h-2.15Z" fill="#fff"/>
    <path d="M324.05,171.35c-.55,0-1.05-.1-1.49-.3s-.79-.49-1.05-.88c-.26-.39-.38-.87-.38-1.44,0-.49.09-.9.27-1.22.18-.32.43-.58.74-.77s.67-.34,1.07-.44c.4-.1.81-.17,1.23-.22.51-.05.93-.1,1.24-.14s.55-.11.7-.21c.15-.09.22-.24.22-.43v-.03c0-.43-.13-.76-.38-.99-.25-.23-.62-.35-1.1-.35-.5,0-.9.11-1.2.33-.29.22-.49.48-.59.78l-1.92-.27c.15-.53.4-.97.75-1.33.35-.36.77-.63,1.28-.81.5-.18,1.06-.27,1.67-.27.42,0,.84.05,1.26.15.42.1.8.26,1.14.49.34.22.62.53.83.92.21.39.32.87.32,1.45v5.84h-1.98v-1.2h-.07c-.12.24-.3.47-.53.68-.23.21-.51.38-.85.5-.34.13-.74.19-1.19.19ZM324.58,169.84c.41,0,.77-.08,1.07-.25.3-.17.54-.38.7-.66.16-.27.25-.57.25-.89v-1.03c-.06.05-.17.1-.33.15-.15.05-.32.09-.51.12-.19.03-.38.06-.56.09s-.35.05-.48.07c-.31.04-.58.11-.82.21-.24.09-.43.23-.57.39-.14.17-.21.39-.21.65,0,.38.14.67.41.86s.63.29,1.06.29Z" fill="#fff"/>
    <path d="M335.09,162.45v1.59h-5.02v-1.59h5.02ZM331.31,160.35h2.06v8.19c0,.28.04.49.13.63.09.15.2.25.34.3.14.05.3.08.47.08.13,0,.25,0,.35-.03.11-.02.19-.04.25-.05l.35,1.61c-.11.04-.27.08-.47.12-.2.04-.45.07-.74.08-.52.02-.98-.06-1.39-.24-.41-.17-.74-.44-.98-.8-.24-.36-.36-.82-.36-1.36v-8.53Z" fill="#fff"/>
    <path d="M340.58,171.34c-.88,0-1.63-.18-2.26-.55s-1.12-.88-1.46-1.56c-.34-.67-.51-1.46-.51-2.38s.17-1.69.51-2.37.82-1.21,1.44-1.59c.62-.38,1.34-.57,2.18-.57.54,0,1.05.09,1.53.26.48.17.9.44,1.27.8.37.36.66.82.87,1.37s.32,1.21.32,1.98v.63h-7.15v-1.39h5.18c0-.39-.09-.75-.26-1.05-.17-.31-.4-.55-.7-.73s-.64-.27-1.04-.27c-.42,0-.79.1-1.11.3-.32.2-.57.47-.74.79-.18.33-.27.69-.27,1.08v1.21c0,.51.09.94.28,1.3.19.36.44.64.78.83s.72.29,1.17.29c.3,0,.57-.04.81-.13.24-.08.45-.21.63-.38.18-.17.31-.37.4-.62l1.92.22c-.12.51-.35.95-.69,1.33-.34.38-.77.67-1.3.88-.53.21-1.13.31-1.81.31Z" fill="#fff"/>
    <path d="M353.1,164.75l-1.88.21c-.05-.19-.14-.37-.28-.53s-.31-.3-.53-.4-.49-.15-.81-.15c-.43,0-.79.09-1.08.28-.29.19-.43.43-.43.72,0,.25.09.46.28.62s.51.29.95.39l1.49.32c.83.18,1.44.46,1.84.85.4.39.61.89.61,1.52,0,.55-.16,1.03-.48,1.45-.32.42-.75.75-1.32.98-.56.23-1.21.35-1.93.35-1.07,0-1.93-.22-2.58-.67-.65-.45-1.04-1.07-1.17-1.88l2.01-.19c.09.39.28.69.58.89.3.2.68.3,1.15.3s.88-.1,1.18-.3c.3-.2.45-.45.45-.74,0-.25-.1-.46-.29-.62-.19-.16-.49-.29-.89-.38l-1.49-.31c-.84-.17-1.46-.47-1.86-.88-.4-.42-.6-.94-.6-1.58,0-.54.14-1,.44-1.4s.71-.7,1.24-.92c.53-.22,1.15-.33,1.84-.33,1.02,0,1.83.22,2.42.65.59.44.95,1.02,1.09,1.77Z" fill="#fff"/>
    <path d="M357.04,166.06v5.11h-2.06v-11.64h2.01v4.39h.1c.2-.49.52-.88.95-1.17s.98-.43,1.64-.43c.61,0,1.13.13,1.59.38.45.25.8.62,1.05,1.11s.37,1.08.37,1.79v5.56h-2.06v-5.24c0-.59-.15-1.04-.45-1.37-.3-.33-.72-.49-1.26-.49-.36,0-.69.08-.97.24s-.51.38-.67.68c-.16.3-.24.65-.24,1.07Z" fill="#fff"/>
    <path d="M368.66,171.34c-.88,0-1.63-.18-2.26-.55s-1.12-.88-1.46-1.56c-.34-.67-.51-1.46-.51-2.38s.17-1.69.51-2.37.82-1.21,1.44-1.59c.62-.38,1.34-.57,2.18-.57.54,0,1.05.09,1.53.26.48.17.9.44,1.27.8.37.36.66.82.87,1.37.21.55.32,1.21.32,1.98v.63h-7.15v-1.39h5.18c0-.39-.09-.75-.25-1.05-.17-.31-.4-.55-.7-.73-.3-.18-.64-.27-1.04-.27-.42,0-.79.1-1.11.3-.32.2-.57.47-.74.79-.18.33-.27.69-.27,1.08v1.21c0,.51.09.94.28,1.3.19.36.45.64.78.83s.72.29,1.17.29c.3,0,.57-.04.81-.13.24-.08.45-.21.63-.38.18-.17.31-.37.4-.62l1.92.22c-.12.51-.35.95-.69,1.33-.34.38-.77.67-1.3.88-.53.21-1.13.31-1.81.31Z" fill="#fff"/>
    <path d="M376.79,171.35c-.55,0-1.05-.1-1.49-.3-.44-.2-.79-.49-1.05-.88-.26-.39-.38-.87-.38-1.44,0-.49.09-.9.27-1.22.18-.32.43-.58.74-.77s.67-.34,1.07-.44c.4-.1.81-.17,1.23-.22.51-.05.93-.1,1.24-.14.32-.04.55-.11.7-.21.15-.09.22-.24.22-.43v-.03c0-.43-.13-.76-.38-.99-.25-.23-.62-.35-1.1-.35-.5,0-.9.11-1.2.33-.29.22-.49.48-.59.78l-1.92-.27c.15-.53.4-.97.75-1.33.35-.36.77-.63,1.28-.81.5-.18,1.06-.27,1.67-.27.42,0,.84.05,1.26.15.42.1.8.26,1.14.49.34.22.62.53.83.92.21.39.32.87.32,1.45v5.84h-1.98v-1.2h-.07c-.12.24-.3.47-.53.68-.23.21-.51.38-.85.5-.34.13-.74.19-1.19.19ZM377.32,169.84c.41,0,.77-.08,1.07-.25.3-.17.54-.38.7-.66.17-.27.25-.57.25-.89v-1.03c-.06.05-.17.1-.33.15-.15.05-.32.09-.51.12-.19.03-.38.06-.56.09s-.35.05-.48.07c-.31.04-.58.11-.82.21-.24.09-.43.23-.57.39-.14.17-.21.39-.21.65,0,.38.14.67.42.86.28.19.63.29,1.06.29Z" fill="#fff"/>
    <path d="M386.71,171.33c-.69,0-1.3-.18-1.84-.53-.54-.35-.97-.86-1.28-1.53-.31-.67-.47-1.48-.47-2.44s.16-1.79.48-2.46.75-1.17,1.3-1.52c.54-.34,1.15-.51,1.82-.51.51,0,.93.09,1.26.26.33.17.59.38.78.62s.34.47.45.68h.08v-4.35h2.06v11.64h-2.02v-1.38h-.12c-.11.21-.26.44-.46.67-.2.24-.47.44-.79.61-.33.17-.74.25-1.24.25ZM387.28,169.64c.44,0,.81-.12,1.11-.36.31-.24.54-.57.7-.99.16-.42.24-.92.24-1.48s-.08-1.06-.24-1.47c-.16-.42-.39-.74-.69-.97-.3-.23-.68-.35-1.12-.35s-.84.12-1.15.36c-.31.24-.54.57-.69.99-.16.42-.23.9-.23,1.44s.08,1.03.24,1.46.39.76.7,1.01c.31.24.69.37,1.14.37Z" fill="#fff"/>
  </g>
  <g>
    <path d="M314.6,652.29l-3.28-11.64h2.27l2.1,8.55h.11l2.24-8.55h2.06l2.24,8.56h.1l2.1-8.56h2.27l-3.28,11.64h-2.08l-2.33-8.17h-.09l-2.33,8.17h-2.08Z" fill="#fff"/>
    <path d="M331.13,652.46c-.88,0-1.63-.18-2.26-.55s-1.12-.88-1.46-1.56c-.34-.67-.51-1.46-.51-2.38s.17-1.69.51-2.37.82-1.21,1.44-1.59c.62-.38,1.34-.57,2.18-.57.54,0,1.05.09,1.53.26.48.17.9.44,1.27.8.37.36.66.82.87,1.37s.32,1.21.32,1.98v.63h-7.15v-1.39h5.18c0-.39-.09-.75-.26-1.05-.17-.31-.4-.55-.7-.73s-.64-.27-1.04-.27c-.42,0-.79.1-1.11.3-.32.2-.57.47-.74.79-.18.33-.27.69-.27,1.08v1.21c0,.51.09.94.28,1.3.19.36.44.64.78.83s.72.29,1.17.29c.3,0,.57-.04.81-.13.24-.08.45-.21.63-.38.18-.17.31-.37.4-.62l1.92.22c-.12.51-.35.95-.69,1.33-.34.38-.77.67-1.3.88-.53.21-1.13.31-1.81.31Z" fill="#fff"/>
    <path d="M343.65,645.87l-1.88.21c-.05-.19-.15-.37-.28-.53-.13-.17-.31-.3-.53-.4s-.49-.15-.81-.15c-.43,0-.79.09-1.08.28-.29.19-.43.43-.43.72,0,.25.09.46.28.62s.51.29.95.39l1.49.32c.83.18,1.44.46,1.84.85.4.39.61.89.61,1.52,0,.55-.16,1.03-.48,1.45-.32.42-.75.75-1.32.98-.56.23-1.2.35-1.93.35-1.07,0-1.93-.22-2.58-.67-.65-.45-1.04-1.07-1.17-1.88l2.01-.19c.09.39.28.69.58.89.3.2.68.3,1.15.3s.88-.1,1.18-.3c.3-.2.45-.45.45-.74,0-.25-.1-.46-.29-.62-.19-.16-.49-.29-.89-.38l-1.49-.31c-.84-.17-1.46-.47-1.86-.88-.4-.42-.6-.94-.6-1.58,0-.54.14-1,.44-1.4s.71-.7,1.24-.92c.53-.22,1.15-.33,1.84-.33,1.02,0,1.83.22,2.42.65s.95,1.02,1.09,1.77Z" fill="#fff"/>
    <path d="M349.89,643.56v1.59h-5.02v-1.59h5.02ZM346.11,641.47h2.06v8.19c0,.28.04.49.13.63.09.15.2.25.34.3.14.05.3.08.47.08.13,0,.25,0,.35-.03.11-.02.19-.04.25-.05l.35,1.61c-.11.04-.27.08-.47.12-.2.04-.45.07-.74.08-.52.02-.98-.06-1.39-.24-.41-.17-.74-.44-.98-.8-.24-.36-.36-.82-.36-1.36v-8.53Z" fill="#fff"/>
    <path d="M355.68,652.29v-11.64h4.46c.84,0,1.54.13,2.1.4.56.26.98.62,1.25,1.08.28.46.42.97.42,1.55,0,.47-.09.88-.27,1.21s-.43.61-.73.82-.65.36-1.03.45v.11c.41.02.81.15,1.19.38s.69.55.93.97.36.92.36,1.51-.15,1.14-.44,1.62c-.29.48-.73.86-1.32,1.13-.59.28-1.33.42-2.22.42h-4.71ZM357.78,645.6h2.08c.36,0,.69-.07.98-.2.29-.13.52-.33.69-.57.17-.25.25-.54.25-.88,0-.45-.16-.82-.47-1.11-.32-.29-.79-.44-1.41-.44h-2.13v3.21ZM357.78,650.52h2.27c.77,0,1.32-.15,1.66-.44.34-.29.51-.67.51-1.13,0-.34-.08-.66-.26-.93-.17-.28-.41-.5-.73-.66s-.69-.24-1.12-.24h-2.32v3.41Z" fill="#fff"/>
    <path d="M369.97,652.46c-.88,0-1.63-.18-2.26-.55s-1.12-.88-1.46-1.56c-.34-.67-.51-1.46-.51-2.38s.17-1.69.51-2.37.82-1.21,1.44-1.59c.62-.38,1.34-.57,2.18-.57.54,0,1.05.09,1.53.26.48.17.9.44,1.27.8.37.36.66.82.87,1.37.21.55.32,1.21.32,1.98v.63h-7.15v-1.39h5.18c0-.39-.09-.75-.25-1.05-.17-.31-.4-.55-.7-.73-.3-.18-.64-.27-1.04-.27-.42,0-.79.1-1.11.3-.32.2-.57.47-.74.79-.18.33-.27.69-.27,1.08v1.21c0,.51.09.94.28,1.3.19.36.45.64.78.83s.72.29,1.17.29c.3,0,.57-.04.81-.13.24-.08.45-.21.63-.38.18-.17.31-.37.4-.62l1.92.22c-.12.51-.35.95-.69,1.33-.34.38-.77.67-1.3.88-.53.21-1.13.31-1.81.31Z" fill="#fff"/>
    <path d="M375.58,652.29v-8.73h1.99v1.46h.09c.16-.5.43-.89.82-1.17.39-.27.83-.41,1.33-.41.11,0,.24,0,.38.01.14,0,.26.02.36.04v1.89c-.09-.03-.22-.06-.41-.08-.19-.03-.37-.04-.54-.04-.38,0-.71.08-1.01.24-.3.16-.53.38-.7.67-.17.28-.26.61-.26.98v5.13h-2.06Z" fill="#fff"/>
    <path d="M381.93,652.29v-11.64h2.06v11.64h-2.06ZM383.81,649.55v-2.48s.32,0,.32,0l3.14-3.51h2.4l-3.86,4.3h-.43l-1.58,1.69ZM387.41,652.29l-2.84-3.97,1.39-1.45,3.92,5.42h-2.46Z" fill="#fff"/>
    <path d="M397.93,645.87l-1.88.21c-.05-.19-.14-.37-.28-.53s-.31-.3-.53-.4-.49-.15-.81-.15c-.43,0-.79.09-1.08.28-.29.19-.43.43-.43.72,0,.25.09.46.28.62s.51.29.95.39l1.49.32c.83.18,1.44.46,1.84.85.4.39.61.89.61,1.52,0,.55-.16,1.03-.48,1.45-.32.42-.75.75-1.32.98-.56.23-1.21.35-1.93.35-1.07,0-1.93-.22-2.58-.67s-1.04-1.07-1.16-1.88l2-.19c.09.39.28.69.58.89.29.2.68.3,1.15.3s.88-.1,1.18-.3c.3-.2.45-.45.45-.74,0-.25-.1-.46-.29-.62-.19-.16-.49-.29-.89-.38l-1.49-.31c-.84-.17-1.46-.47-1.86-.88-.4-.42-.6-.94-.6-1.58,0-.54.14-1,.44-1.4.3-.4.71-.7,1.24-.92.53-.22,1.15-.33,1.84-.33,1.02,0,1.83.22,2.42.65.59.44.95,1.02,1.09,1.77Z" fill="#fff"/>
    <path d="M401.87,647.17v5.11h-2.06v-11.64h2.01v4.39h.1c.2-.49.52-.88.95-1.17s.98-.43,1.64-.43c.61,0,1.13.13,1.59.38.45.25.8.62,1.05,1.11s.37,1.08.37,1.79v5.56h-2.06v-5.24c0-.59-.15-1.04-.45-1.37-.3-.33-.72-.49-1.26-.49-.36,0-.69.08-.97.24s-.51.38-.67.68c-.16.3-.24.65-.24,1.07Z" fill="#fff"/>
    <path d="M410.66,642.32c-.33,0-.61-.11-.84-.33-.24-.22-.35-.48-.35-.79s.12-.57.35-.79c.23-.22.51-.33.84-.33s.61.11.84.33c.23.22.35.48.35.79s-.12.57-.35.79c-.23.22-.51.33-.84.33ZM409.62,652.29v-8.73h2.06v8.73h-2.06Z" fill="#fff"/>
    <path d="M413.79,652.29v-8.73h1.99v1.46h.09c.16-.5.43-.89.82-1.17.39-.27.83-.41,1.33-.41.11,0,.24,0,.38.01.14,0,.26.02.36.04v1.89c-.09-.03-.22-.06-.41-.08-.19-.03-.37-.04-.54-.04-.38,0-.71.08-1.01.24-.3.16-.53.38-.7.67-.17.28-.26.61-.26.98v5.13h-2.06Z" fill="#fff"/>
    <path d="M423.64,652.46c-.88,0-1.63-.18-2.26-.55s-1.12-.88-1.46-1.56c-.34-.67-.51-1.46-.51-2.38s.17-1.69.51-2.37.82-1.21,1.44-1.59c.62-.38,1.34-.57,2.18-.57.54,0,1.05.09,1.53.26.48.17.9.44,1.27.8.37.36.66.82.87,1.37.21.55.32,1.21.32,1.98v.63h-7.15v-1.39h5.18c0-.39-.09-.75-.25-1.05-.17-.31-.4-.55-.7-.73-.3-.18-.64-.27-1.04-.27-.42,0-.79.1-1.11.3-.32.2-.57.47-.74.79-.18.33-.27.69-.27,1.08v1.21c0,.51.09.94.28,1.3.19.36.45.64.78.83s.72.29,1.17.29c.3,0,.57-.04.81-.13.24-.08.45-.21.63-.38.18-.17.31-.37.4-.62l1.92.22c-.12.51-.35.95-.69,1.33-.34.38-.77.67-1.3.88-.53.21-1.13.31-1.81.31Z" fill="#fff"/>
  </g>
  <g>
    <path d="M319.09,593.82c-.09-.31-.22-.58-.39-.83-.17-.24-.36-.45-.59-.63-.23-.17-.49-.31-.79-.39s-.62-.13-.97-.13c-.62,0-1.18.16-1.67.47-.49.31-.87.78-1.15,1.38-.28.61-.42,1.35-.42,2.22s.14,1.62.41,2.23c.28.61.66,1.07,1.15,1.39.49.32,1.06.47,1.72.47.59,0,1.1-.11,1.54-.34.43-.23.77-.55,1-.97.23-.42.35-.91.35-1.47l.48.07h-3.16v-1.65h4.72v1.4c0,1-.21,1.86-.64,2.58-.42.73-1.01,1.29-1.75,1.68-.74.39-1.59.59-2.56.59-1.07,0-2.01-.24-2.82-.72-.81-.48-1.44-1.17-1.89-2.06-.45-.89-.68-1.95-.68-3.18,0-.94.13-1.78.4-2.52.27-.74.64-1.37,1.12-1.88.48-.52,1.05-.91,1.69-1.18.65-.27,1.35-.41,2.11-.41.64,0,1.24.09,1.8.28s1.05.45,1.49.8.79.75,1.07,1.23.46,1,.55,1.57h-2.15Z" fill="#fff"/>
    <path d="M325.34,590.1v11.64h-2.06v-11.64h2.06Z" fill="#fff"/>
    <path d="M331.26,601.91c-.85,0-1.59-.19-2.22-.56s-1.11-.9-1.45-1.57-.51-1.46-.51-2.36.17-1.69.51-2.37c.34-.68.83-1.2,1.45-1.58s1.36-.56,2.22-.56,1.59.19,2.22.56,1.11.9,1.45,1.58c.34.68.51,1.47.51,2.37s-.17,1.69-.51,2.36-.83,1.2-1.45,1.57-1.36.56-2.22.56ZM331.27,600.26c.46,0,.85-.13,1.16-.38.31-.26.54-.6.7-1.03.15-.43.23-.91.23-1.44s-.08-1.02-.23-1.45-.39-.78-.7-1.04c-.31-.26-.7-.39-1.16-.39s-.87.13-1.18.39c-.31.26-.55.6-.7,1.04s-.23.92-.23,1.45.08,1.01.23,1.44c.15.43.39.78.7,1.03.31.25.71.38,1.18.38Z" fill="#fff"/>
    <path d="M342.74,598.07v-5.06h2.06v8.73h-1.99v-1.55h-.09c-.2.49-.52.89-.97,1.2s-1,.47-1.66.47c-.57,0-1.08-.13-1.51-.38-.44-.26-.78-.63-1.03-1.12-.25-.49-.37-1.08-.37-1.78v-5.56h2.06v5.24c0,.55.15.99.45,1.32.3.33.7.49,1.19.49.3,0,.6-.07.88-.22s.52-.37.7-.66c.18-.29.28-.66.28-1.11Z" fill="#fff"/>
    <path d="M350.72,601.91c-.87,0-1.62-.19-2.24-.57s-1.1-.91-1.44-1.59c-.33-.68-.5-1.46-.5-2.34s.17-1.67.51-2.35c.34-.68.82-1.21,1.45-1.59.62-.38,1.36-.57,2.21-.57.71,0,1.34.13,1.88.39.55.26.98.62,1.31,1.1.33.47.51,1.02.56,1.65h-1.97c-.08-.42-.27-.77-.57-1.05-.3-.28-.69-.42-1.19-.42-.42,0-.79.11-1.11.34-.32.23-.57.55-.74.97s-.26.92-.26,1.51.09,1.1.26,1.53c.17.43.42.75.74.98.32.23.69.34,1.12.34.3,0,.58-.06.82-.17.24-.12.44-.28.6-.5.16-.22.28-.49.34-.8h1.97c-.05.62-.23,1.16-.55,1.64s-.74.85-1.28,1.11c-.54.27-1.18.4-1.91.4Z" fill="#fff"/>
    <path d="M360.02,601.91c-.88,0-1.63-.18-2.26-.55s-1.12-.88-1.46-1.56c-.34-.67-.51-1.46-.51-2.38s.17-1.69.51-2.37.82-1.21,1.44-1.59c.62-.38,1.34-.57,2.18-.57.54,0,1.05.09,1.53.26.48.17.9.44,1.27.8.37.36.66.82.87,1.37.21.55.32,1.21.32,1.98v.63h-7.15v-1.39h5.18c0-.39-.09-.75-.25-1.05-.17-.31-.4-.55-.7-.73-.3-.18-.64-.27-1.04-.27-.42,0-.79.1-1.11.3-.32.2-.57.47-.74.79-.18.33-.27.69-.27,1.08v1.21c0,.51.09.94.28,1.3.19.36.45.64.78.83s.72.29,1.17.29c.3,0,.57-.04.81-.13.24-.08.45-.21.63-.38.18-.17.31-.37.4-.62l1.92.22c-.12.51-.35.95-.69,1.33-.34.38-.77.67-1.3.88-.53.21-1.13.31-1.81.31Z" fill="#fff"/>
    <path d="M372.53,595.32l-1.88.21c-.05-.19-.14-.37-.28-.53s-.31-.3-.53-.4-.49-.15-.81-.15c-.43,0-.79.09-1.08.28-.29.19-.43.43-.43.72,0,.25.09.46.28.62s.51.29.95.39l1.49.32c.83.18,1.44.46,1.84.85.4.39.61.89.61,1.52,0,.55-.16,1.03-.48,1.45-.32.42-.75.75-1.32.98-.56.23-1.21.35-1.93.35-1.07,0-1.93-.22-2.58-.67s-1.04-1.07-1.16-1.88l2-.19c.09.39.28.69.58.89.29.2.68.3,1.15.3s.88-.1,1.18-.3c.3-.2.45-.45.45-.74,0-.25-.1-.46-.29-.62-.19-.16-.49-.29-.89-.38l-1.49-.31c-.84-.17-1.46-.47-1.86-.88-.4-.42-.6-.94-.6-1.58,0-.54.14-1,.44-1.4.3-.4.71-.7,1.24-.92.53-.22,1.15-.33,1.84-.33,1.02,0,1.83.22,2.42.65.59.44.95,1.02,1.09,1.77Z" fill="#fff"/>
    <path d="M378.78,593.01v1.59h-5.02v-1.59h5.02ZM375,590.92h2.06v8.19c0,.28.04.49.13.63.08.15.2.25.34.3.14.05.29.08.47.08.13,0,.25,0,.36-.03.11-.02.19-.04.25-.05l.35,1.61c-.11.04-.27.08-.47.12-.2.04-.45.07-.74.08-.51.02-.98-.06-1.39-.24-.41-.17-.74-.44-.98-.8-.24-.36-.36-.82-.35-1.36v-8.53Z" fill="#fff"/>
    <path d="M384.27,601.91c-.88,0-1.63-.18-2.26-.55s-1.12-.88-1.46-1.56c-.34-.67-.51-1.46-.51-2.38s.17-1.69.51-2.37.82-1.21,1.44-1.59c.62-.38,1.34-.57,2.18-.57.54,0,1.05.09,1.53.26.48.17.9.44,1.27.8.37.36.66.82.87,1.37.21.55.32,1.21.32,1.98v.63h-7.15v-1.39h5.18c0-.39-.09-.75-.25-1.05-.17-.31-.4-.55-.7-.73-.3-.18-.64-.27-1.04-.27-.42,0-.79.1-1.11.3-.32.2-.57.47-.74.79-.18.33-.27.69-.27,1.08v1.21c0,.51.09.94.28,1.3.19.36.45.64.78.83s.72.29,1.17.29c.3,0,.57-.04.81-.13.24-.08.45-.21.63-.38.18-.17.31-.37.4-.62l1.92.22c-.12.51-.35.95-.69,1.33-.34.38-.77.67-1.3.88-.53.21-1.13.31-1.81.31Z" fill="#fff"/>
    <path d="M389.89,601.74v-8.73h1.99v1.46h.09c.16-.5.43-.89.82-1.17.39-.27.83-.41,1.33-.41.11,0,.24,0,.38.01.14,0,.26.02.36.04v1.89c-.09-.03-.22-.06-.41-.08-.19-.03-.37-.04-.54-.04-.38,0-.71.08-1.01.24-.3.16-.53.38-.7.67-.17.28-.26.61-.26.98v5.13h-2.06Z" fill="#fff"/>
  </g>
  <g>
    <path d="M559.48,640.65h2.58l3.46,8.43h.14l3.45-8.43h2.58v11.64h-2.02v-7.99h-.11l-3.22,7.96h-1.51l-3.22-7.98h-.11v8.01h-2.02v-11.64Z" fill="#fff"/>
    <path d="M577.75,652.46c-.88,0-1.63-.18-2.26-.55-.63-.37-1.12-.88-1.46-1.56-.34-.67-.51-1.46-.51-2.38s.17-1.69.51-2.37.82-1.21,1.44-1.59c.62-.38,1.34-.57,2.18-.57.54,0,1.05.09,1.53.26.48.17.9.44,1.27.8.37.36.66.82.87,1.37s.32,1.21.32,1.98v.63h-7.15v-1.39h5.18c0-.39-.09-.75-.26-1.05-.17-.31-.4-.55-.7-.73-.3-.18-.64-.27-1.04-.27-.42,0-.79.1-1.11.3-.32.2-.57.47-.74.79-.18.33-.27.69-.27,1.08v1.21c0,.51.09.94.28,1.3.19.36.44.64.78.83.33.19.72.29,1.17.29.3,0,.57-.04.81-.13.24-.08.45-.21.63-.38s.31-.37.4-.62l1.92.22c-.12.51-.35.95-.69,1.33-.34.38-.77.67-1.3.88-.53.21-1.13.31-1.81.31Z" fill="#fff"/>
    <path d="M586.61,652.44c-.69,0-1.3-.18-1.84-.53-.54-.35-.97-.86-1.28-1.53-.31-.67-.47-1.48-.47-2.44s.16-1.79.48-2.46c.32-.67.75-1.17,1.3-1.52.55-.34,1.15-.51,1.82-.51.51,0,.93.09,1.26.26.33.17.59.38.78.62s.34.47.45.68h.08v-4.35h2.06v11.64h-2.02v-1.38h-.12c-.11.21-.26.44-.46.67-.2.24-.47.44-.8.61s-.74.25-1.24.25ZM587.18,650.75c.44,0,.81-.12,1.11-.36.31-.24.54-.57.7-.99.16-.42.24-.92.24-1.48s-.08-1.06-.24-1.47c-.16-.42-.39-.74-.69-.97-.31-.23-.68-.35-1.12-.35s-.84.12-1.15.36c-.31.24-.54.57-.69.99-.16.42-.23.9-.23,1.44s.08,1.03.24,1.46.39.76.7,1.01.69.37,1.14.37Z" fill="#fff"/>
    <path d="M595.26,652.29l-2.47-8.73h2.1l1.53,6.14h.08l1.57-6.14h2.07l1.57,6.1h.08l1.51-6.1h2.1l-2.47,8.73h-2.14l-1.64-5.9h-.12l-1.64,5.9h-2.15Z" fill="#fff"/>
    <path d="M609.36,652.46c-.55,0-1.05-.1-1.49-.3-.44-.2-.79-.49-1.05-.88-.26-.39-.38-.87-.38-1.44,0-.49.09-.9.27-1.22.18-.32.43-.58.74-.77s.67-.34,1.07-.44c.4-.1.81-.17,1.23-.22.51-.05.93-.1,1.24-.14.32-.04.55-.11.7-.21.15-.09.22-.24.22-.43v-.03c0-.43-.13-.76-.38-.99-.25-.23-.62-.35-1.1-.35-.5,0-.9.11-1.2.33-.29.22-.49.48-.59.78l-1.92-.27c.15-.53.4-.97.75-1.33.35-.36.77-.63,1.28-.81.5-.18,1.06-.27,1.67-.27.42,0,.84.05,1.26.15.42.1.8.26,1.14.49.34.22.62.53.83.92.21.39.32.87.32,1.45v5.84h-1.98v-1.2h-.07c-.12.24-.3.47-.53.68-.23.21-.51.38-.85.5-.34.13-.74.19-1.19.19ZM609.9,650.95c.41,0,.77-.08,1.07-.25.3-.17.54-.38.7-.66.17-.27.25-.57.25-.89v-1.03c-.06.05-.17.1-.33.15-.15.05-.32.09-.51.12-.19.03-.38.06-.56.09s-.35.05-.48.07c-.31.04-.58.11-.82.21-.24.09-.43.23-.57.39-.14.17-.21.39-.21.65,0,.38.14.67.42.86.28.19.63.29,1.06.29Z" fill="#fff"/>
    <path d="M617.01,655.56c-.28,0-.54-.02-.78-.07-.24-.04-.42-.09-.57-.15l.48-1.6c.3.09.57.13.8.12.24,0,.44-.08.62-.22.18-.14.33-.38.46-.71l.18-.47-3.17-8.91h2.18l2.01,6.59h.09l2.02-6.59h2.19l-3.49,9.78c-.16.46-.38.86-.65,1.19-.27.33-.6.58-.99.76-.39.18-.85.26-1.39.26Z" fill="#fff"/>
  </g>
  <circle cx="446.32" cy="565.9" r="8.5" fill="#231f20" stroke="#f6d08f" stroke-width="5"/>
  <circle cx="342.06" cy="549.46" r="8.5" fill="#231f20" stroke="#f6d08f" stroke-width="5"/>
  <circle cx="328.81" cy="574.41" r="8.5" fill="#231f20" stroke="#f6d08f" stroke-width="5"/>
  <circle cx="416.53" cy="334.68" r="8.5" fill="#231f20" stroke="#f6d08f" stroke-width="5"/>
  <circle cx="365.8" cy="144.38" r="8.5" fill="#231f20" stroke="#f6d08f" stroke-width="5"/>
  <circle cx="405.38" cy="625.22" r="8.5" fill="#231f20" stroke="#f6d08f" stroke-width="5"/>
</svg>