<?xml version="1.0" encoding="UTF-8"?>
<svg id="a" data-name="Layer 1" xmlns="http://www.w3.org/2000/svg" viewBox="0 0 1020.47 850.39">
  <g id="b" data-name="England BG">
    <path d="M431.97,711.96l-1-1.39-2.14-.52-1.6,1.41.37,2.5-1.77.34.53,1.36-.25.93,1.75,1.71c1.29-.18,3.82-.91,5.04-1.38l-.93-2.41v-2.55Z" fill="#222f2b"/>
    <path d="M427.85,730.01l-1.57-3.84c-1.11-.26-3.27-1-4.26-1.56,0,0-3.09.19-3.09.19l-1.64-.28c-.5-.3-1.97-1.29-2.61-1.1-.67-.9-2.2-2.82-3.35-3.11l-.96.48-2.27-.55-2.72,2.4-.68,1.6c-.62-.07-4.63,1.87-5.26,2.12l-1.1-.27c-.89.47-3.18,1.7-3.82,2.47-1.05.26-3.61,1.04-4.65.43-.98.43-1.94,3.23-2.31,4.12l-1.86.78.12,1.6c1.57-.48,5.04-1.32,6.67-1.16l1.51.8,1.09,1.37c.88,1.04,3.63,1.99,4.89,2.35,1.27.63,3.45,2.27,4.33,3.38.66-.08,3.39,2.34,3.9,2.7,0,0,.99,1.72.99,1.72,1.25.13,4.58-.6,5.83-.88,1.14-.69,3.65-1.91,4.96-2.13l.87-1.36c-.1-1.79.12-4.42,1.17-5.94,1.33-1.11,3.55-2.81,5.43-2.31l.26-.93,2.19-1.71-1.12-1.49-.93.13Z" fill="#222f2b"/>
    <path d="M334.51,26.41l1.31-.58.14-1.1,1.67-.63.78.96,1.09-.08-.74-2.49c-.5-.56-2.89-2.59-2.75-3.47l-1.42,1.21-.75-.02-1.86,1.37.08,4.22,2.44.6Z" fill="#222f2b"/>
    <path d="M352.39,36.62l1.08.13,1.77,1.59.9-.9.19-1.23c-.57-.13-1.94-.49-2.47-.11,0,0-3.2-.19-3.2-.19l.44,1.53,1.29-.83Z" fill="#222f2b"/>
    <polygon points="349.11 732.42 351.05 732.51 350.31 731.21 349.11 732.42" fill="#222f2b"/>
    <path d="M237.71,251l-.43.84c.24,5.29,2.58,8.94,5.4,13.17l1.18.48,1.84-.38-.44-1.14-1.43.9-.77-.46-.42-1.33-1.23-1.22-.25-2.18-.83-.24c-.26-1.68-.88-6.13-2.05-7.44l1.03-1.32-1.58.33Z" fill="#222f2b"/>
    <path d="M572.01,607.79l-3.2-1.01-.54.16c-.22-.3-.81-.73-1.13-.91l-.22.43c.05.34.07,1.03,0,1.37l-.81.62-1.17.06.81,1.63,1.57-.07.63,1.05,1.73.3,4.46-1.42-.38-1.37-1.77-.83Z" fill="#222f2b"/>
    <polygon points="581.54 581.66 581.18 579.9 580.18 581.3 581.54 581.66" fill="#222f2b"/>
    <path d="M593.7,603.35l1.09-.34c.49-1.07,2.5-2.58,3.47-3.2,1.47-1.45,3.5-3.62,4.03-5.68-2.2-.15-4.96,1.44-7.21,1.17l-.52,2.67-.69.41-1.76-.13.25,1.26-.62,1.32.74,1.93,1.2.59Z" fill="#222f2b"/>
    <polygon points="590.75 598.11 589.54 599.57 590.65 601.74 591.51 601.07 592.1 599.5 591.82 598.8 590.75 598.11" fill="#222f2b"/>
    <polygon points="624.52 557.97 626.12 557.1 626.01 555.99 623.5 556.75 624.52 557.97" fill="#222f2b"/>
    <path d="M439.37,712.71l.43-1.68-1.36-.94-1.66,1.11.31.89-.48,2.4-1.49,2.56c1.37.08,4.08.66,5.4,1.07l-.98-2.55-.17-2.86Z" fill="#222f2b"/>
    <path d="M638.54,637.66l.13-.48.52-.38h-.38s-.4-.35-.4-.35l-.4,1.15-.48.07-.5.96c.17.25.83.69,1.08.86l.2.53.54.21.31-.14-.05-.19.07-.15c.08-.05.26-.05.36-.04l-.04-.18-.2-.15-.28-.04.11-.52-.2-.15v-.64s-.37-.36-.37-.36Z" fill="#222f2b"/>
    <path d="M588.43,629.94l.81-.66c1.04.09,3.44.38,4.36.87,1.81-.62,3.76.12,5.27,1.14l2.12-.85c.5-.65,1.67-1.83,2.5-2.03l-1.23-2.23c-.81-.7-3.02-2.56-3.4-3.58-1.95-.76-5.43-.67-7.5-1.15,0,0-2.53-1.6-2.53-1.6-.98.19-2.7-.29-3.58-.71-.37.85-.89,2.62-.8,3.55l.61.99-1.21.99.33.88,1.81.93,1.74,1.97-.42,1.11,1.13.39Z" fill="#222f2b"/>
    <polygon points="579.5 625.06 580.06 626.19 581.01 626.33 580.44 624.18 579.89 624.17 579.5 625.06" fill="#222f2b"/>
    <polygon points="570.23 405.12 568.85 405.45 568.71 406.22 571.56 406.11 570.23 405.12" fill="#222f2b"/>
    <path d="M650.2,458.25l.14.47-.1.3-.47.18c-.26.3-.6,1-.73,1.37l-.99.38,2.22,1.57c.04-.26.14-.9.33-1.1l1.15-.4.69-1.09c-.12-1.52-.27-1.84,1.26-2.5l-.45-1.31-2.01,2.16-1.04-.02Z" fill="#fff" stroke="#231f20" stroke-width=".5"/>
    <path d="M664.2,470.27l-.57-2.05c-.62-1.62-2.19-5.72-2.52-7.37,0,0-.49-4.12-.49-4.12-.34-.77-.79-2.38-.76-3.23l-1.22-1c-.8.72-2.35,1.61-3.68,2.21v-1.19l1.2-.47,1.09-1.46.84-.23,1.54.67c-.2-.45-.14-1.34,0-1.8l-.44-.46-.84.03-1.42,1.39-.39-.23-.07-.23.07-.2-.09-.17-.43-.02-.28-.19-.78.13h-.01v-.05h0c.43-.14,1.12-.14,1.53.08l.1.19-.04.4.41.24c.47-.59,1.2-1.61,2.08-1.5.21.02.51.38.64.54-.43,1.38.4,3.41.42,4.82l.95.66c.12-.73-.02-4.88.31-5.45-.72-2.44-2.39-7.27-3.66-9.44,0,0-1.25-3.84-1.25-3.84-2.7-3.58-6.82-7.48-10.29-10.3-3.13-1.72-6.69-5.04-9.69-6.95-2.5-2.61-6.49-5.45-9.83-6.84-4.89-4.25-12.85-4.35-18.99-4.45-3.68-.47-10.5-3.05-14.18-3.54l-.22.97c.99.2,2.98.36,3.97.19l.61.45-1.03,1.37c-.95.47-2.61-.1-3.52-.4l-.96.71-3.32-1.16-.46.51c-.53.16-3.23.68-3.56,1.15l-1.71-.29-.08-1.85-.48-.71c-2.21.44-5.35.11-7.55.33-.31.58-2.53.9-3.09,1.05l-2.13-.91-1.03,1.61-.78-1.32c-.48-.38-3.95.78-4.49.89l-2.53-.48-1,1.3-.99-1.07c-1.1.12-2.93.39-3.76,1.24,0,.81-1.79,2.5-2.29,3.05-.57,1.27-1.12,4.1-1.27,5.49,0,0-1.91,4.69-1.91,4.69l.1,2.37c-.54.47-2.55,1.86-2.6,2.66-.82.78-3.59,3.55-4.55,4.05,0,0,.01.03.02.04h-1.29l-1.28-.72-3.44.05-1.2.67h-.81c-.83-.5-2.14-1.16-2.93-1.09l-1.01.45c-.01.21-.04.43-.06.64h-.2c.03-.33.06-.62.08-.88-.66-1.18-3.56-5.67-3.56-7.02l-5.18-2.51-1.97.02-1.95-1.42-1.01-1.55c-1.38,1.74-4.28,4.06-6.95,5.77,1.03-.83,3.43-2.76,4.34-3.22,0,0,4.14-5.03,4.14-5.03l.42-2.29,1.78-2.36,2.33-4.14c1.95-2.67,5.16-5.88,8.18-7.31.6-.62,2.9-2.83,3.19-3.65,0,0,3.38-3.11,3.38-3.11l1.4.23.25-1.97.65-.78c-.19-2.88-.14-8.66.05-11.54-.43-1.19-1.72-4.47-1.5-5.72-.78-2.67-3.1-7.59-4.71-9.86-.8-1.9-5.47-11.95-5.69-13.81-.64-.72-3.44-3.6-3.47-4.64l-.8-.33c-.04-.24-1.52-4.5-1.18-4.59l-1.72-2.08-.62,1.1-1.36-1.6-1.33-.26-1.16.69-.78-.69-.54-1.96-.61-.6c-.97-.12-3.73-.45-4.59-.86l-2.07-3.71-.79.21c-.79-1.23-2.82-3.25-4-4.12l-2.65.27c-1.11-.68-4.14-3.65-5.11-4.59,0,0-4.17-2.86-4.17-2.86l.08-.4c-.84-.01-2.31-2.57-2.74-3.13,0,0-1.73-1.94-1.73-1.94-.55-1-2.16-4.32-3.23-4.85-1.93-.44-5.06,1-6.84,1.64-1.91.71-6.02,1.04-8.05.98-.69.61-2.76,2.94-3.8,2.89,0,0-2.08.05-2.08.05l-1.53-.72c-1.1-.85-3.61-2.91-4.31-4.11-1.52.27-5.12,1.99-6.53,2.69l-.3.43c.32.65,1.1,2.21.92,2.97,0,0-.05.18-.12.45h-.47l.21-1.12-.77-1.02-.06-1.82c-1.67-.57-2.67-.98-3.84-.62v-.43c.99-.23,2-.18,3.5.2l1.22-.6,1.32-2.02,4.41-1.4,2.25.37c4.4,5.46,6.8-.14,11.78,1.57,1.23-.53,3.84-1.33,5.15-1.63,0,0,4.22-2.1,4.22-2.1l.3-.91-.73-2,.31-.73.34-.22-1.7-1.25-.03-1.6-.98-.67v-.19c-.14-.07-.23-.19-.31-.32l.35.16v.34s.96.68.96.68l.03,1.58,1.49.8.22.47-.64.89.61.59c.1.6.18,1.84-.1,2.4,2.56-.9,4.31-.87,6.71.45l.4-.47-.2-.64.38.34-.17.48c.01.57,1.14,2.77,1.39,3.31l.63-.27,1.98,2.09v.47c4.22,3.15,6.26,8.71,12.36,8.57l.33-.44,6.49-2.66,4.14.98c1.53.81,4.77,2.81,5.74,4.28-1.76-6.95-4.42-9.85-8.94-15.04-.11-.87-5.7-7.37-6.31-8.19,0,0-9.09-12.51-9.09-12.51-2.64-4.3-4.96-11.43-6.8-16.18-1.4-3.75-1.51-8.66.2-12.33.73-.53,2.06-2.26,2.54-3.04l1.98-.74,2.26.05,2.73-1.35-.41-1.42c-.8-.86-2.73-1.43-3.84-1.63,0,0-3.64-2.11-3.64-2.11-.86-.2-3.67-.83-4.49-1-2.37-1.56-4.39-2.75-4.98-5.8l.58-2.02c-.39-.81-2.18-1.26-2.95-1.48l-.2-.54-3.97-1.53c0-1.04-2.26-3.35-2.89-4.08.45-.74-1.62-4.29-1.88-4.97,0,0-.6-3.95-.6-3.95l-1.37-2.4c-.94-2.22-2.42-5.6-4.5-6.99l-1.02.08c-1.61-1.01-2.47-1.96-2.34-3.96l.75-1.46-2.96-2.43-.63-1.5-2.39-1.56c-2.12-.33-5.08-.87-6.74-2.35l.17-.91c-1.01-.48-2.73-2-3.49-2.82l-1.28.8-1.48-.41-.23-1.47-2.72-2.34c-.48.14-1.53.18-2.03.16,0,0-3.65-1.73-3.65-1.73-.87.38-2.68.34-3.6.17l-1.84-1.83-1.87-.55-1.45.62c-1.69-.42-4.77-1.77-6.19-2.77,0,0-1.21-1.35-1.21-1.35l-1.64-.7c-1.84.4-3.92-1.14-5.2-2.29l-.02,1.25-1.33.28c.03.73.21,2.56-.37,3.14-.28.35-3.54,3.5-3.41,3.95l.85.35-.79-.25-.06-.1c-.96-.27-2.9-1.03-3.68-1.67l-.87.35-.25,2.25c-.35.49-1.13.87-1.71.95l.94,1.23c-.03.28-.44,1.02-.57,1.27l.56-1.25-1-1.2.39-.35.54-.08.7-.62.23-2.31.85-.6,1.42.94,2.36.28c.93-1,3.23-3.43,3.35-4.88-.73-.69-3.7-.42-4.61-.41l-1.52-.98-1.32.52,1.33-.55,1.98.95.74-.16.97-1.37,1.22-.15.68-1.94-1.7-1.79-1.24-2.8.07-1.55,1.31-.22.28-.84c-2.69-.97-5.8-3.55-7.28-5.99-1.26-1.13-3-3.71-3.6-5.29,0,0-.34-4.15-.34-4.15-.63-1.69-2.1-5.16-2.96-6.74,0,0-1.24-5.21-1.24-5.21l.66-1.15-.7-1.49-.84,1.08h-1.23s-.52-.84-.52-.84l-1.1.45-1.13-.48c-.81.31-2.42,1.12-2.92,1.86v.44s-.18.3-.18.3l-.26-.07-.24-.6h-.44c-.23.92-3.01,3.23-3.69,3.87h-.06c.58-.59,3.45-2.96,3.55-3.82l.38-.17.28.04.31.64.28-.19-.02-.43c.4-.77,2.01-1.68,2.76-2.05l1.78.39.54-.47.73,1.02,1.1-.07.81-1.11c-.71-1.61-.17-3.95.65-5.43l-1.03-2.16-1.25-.96-.04-.73-2.13-1.38-.58-1.13-1.86-.12-.89,2.51c-.84.07-5.34.14-6.01.55-.57.54-.71,1.94-.72,2.67l-1.73.95-2.6-1.44c-1.03-.15-2.94,1.23-3.73,1.77l-5.71-1.69-.31.51c-.41.03-1.07-.2-1.38-.46l-.14-.74-1.48-.82-2.36.02-.71-.46,1.22.42,1.55-.23,1.97,1.02.49.99.74.07.66-.69c.9,1,4.8,1.4,6.04,1.59.72-.66,2.16-1.42,3.14-1.52l2.75,1.45,1.36-.78.44-2.6c.46-.83,5.17-.65,5.94-.75l.61-.64.45-1.86,1.01-.99.96-.13c-.25-.64-1.53-3-1.21-3.71l-1.36-1.35c-.35-1.04-1.28-3.79-1.82-4.71-2.12-1.51-2.44-3.53-2.54-5.95l-2.41-1.61.86-.41-.6-2.4,1.58-4.81c-.77-.84-1.75-2.71-1.96-3.83l.27-.68c-2.47-2.05-4.01-5.73-3.73-8.93.46-.87,1.9-3.21,1.56-4.27-3.14-3.01-4.23-4.14-4.92-8.59.41-.92,1.41-3.11,2.35-3.61-.45-.56.07-2.46.18-3.07l-1.42-1.16.49-.91c-.7-1.02-.5-4.75-.49-5.93l-1.53-.8-.56-3.69-1.65-2.52.38-1.4.7-.29-1.72-2.57.05-1.17-1.68-.91-2.2-2.76c-.79-.42-3.17-1.87-4.1-1.75l-1.9,2.11-.87-1.47,1.64-1.74-1.78-2.12-.69-1.96-.93,2.67-.94.54-2.3-1.24-.38-1.17c-.91-.22-1.94-2.94-2.31-3.66,0,0-.21-3.16-.21-3.16-3.94-1.39-7.47-4.5-9.21-8.32l-.73.05-1.27-1.45-1.59,1.6-1.35.42c-.84-.18-3.2-.91-4-.35l.11,1.23-.67.43-.27,1.36-1.52-.26-1.04,1.01-.13,1.5-1.98.6.52,1.87-.79.24c-.6,1.07-2.05,3.02-2.96,3.84l.03,1.62-.67.16-1.63,1.76,1.29.93-1.11.61-1.12-.69-2.31.19-.77-.52-2.02.57-.25,2.2,3.22,3.65-.35,2.13c.13.97,2.46,2.77,3.13,3.37,0,0,1.67,2.29,1.67,2.29l-.06,2.12.72.94-.34,1.85c1.43,1.22,2.4,2.86,2.25,4.78l2.16.36c-2.22,2.9-.25,3.93-4.5,6.15l-2.33-.61c-1.11.74-3.21,2.7-4.14,3.68l-1.78-.18-.71,1.23.74.95.07,1.31-.9,1.41.49.97c-.6.4-2.96,1.55-3.06,2.38l-1.66.13-1.22-1.47-1.13.35-1.21-.38-1.33.84-2.17.2-2.3,3.8c-2.37.51-3.28,1.92-4.4,3.89,0,0-2.84,1.91-2.84,1.91l-1.5,2.14.13.8-1.41.56,1.93,1.53-.8.34-.34,2.69-.53.6-2.03-.05c-1.09,1.9-1.83,4.85-2.9,6.75l-2.36.86c-.52,1.01-2.95,2.44-3.9,2.99l-.23.55-2.23.78-1.02-.3-.1,1.58-2.02,2.57-.51.02c-.48.63-3.1,3.41-3.06,4.24l-1.1.12c-.57.51-1.57,1.13-2.38,1.11l.24,1.18-1.44.82-.26.76c-1.28-.2-5.56-.96-6.8-.8l1.06,4.23-.79.28-.75,1.84.24,1.23c-.27.77-2.58,4-3.07,4.73,0,0-3.41,2.17-3.41,2.17l.73,2.42,3.04-1.01.58.55-3.72,1.6s.02-.08.01-.11l-1.94-.36-1.09-1.24-1.72-.61-.62-1.07-2.05-.67c-.86.19-2.38.86-3.06,1.43,0,0-2.86.32-2.86.32l-2.43,3.22.95,1.28,2.47,1.35.95-1.52.54,1.26-.5.96-1.93.22v1.2s-.76.54-.76.54l-1.43-1.09-1.99-.44-.72-1.18-1.73,1.1c-.54.84-1.89,2.79-2.7,3.36-.25,2.14-2.33,7.37-3.17,9.4l.54,2.59-.27,2.62-2.16,3.02c-1.07.69-3.08,2.32-3.78,3.4,0,0-.97,3.23-.97,3.23l-2.32,2.6c-.45,1-1.58,2.96-2.32,3.77-.18,2.79,1.5,5.28-.65,7.78l.18,2.61-1.54,3.14c-.17.79-.64,2.74-1.19,3.34l-2.05,1c-.12,1.06.94,2.92,1.49,3.77h.93c1.03.61,2.98,4.44,3.56,5.48,1.34,1.03,5.93,7.73,7,9.2.08.86.72,2.35,1.24,3.04,0,0,2.45,3.17,2.45,3.17.3,1.14,1.26,4.48,1.13,5.65l-.56,1.05c.01,1.95,2.2,5.55,3.49,6.93,1.19,1.79,3.42,5.5,4.45,7.38l1.95.46,1.61-1.12.95.87,1.2-.18,1.17-1.75-1.17-2.03,1.86-2.03.73-2.53-.65-1.38.27-2.27v2.18s1.12.79,1.12.79c.35.8,1.36,2.97,1.31,3.85,0,0-.36,2.48-.36,2.48l-.84.35-.42,4.33-1.07.81-1.33-.05-.93.83,1.64,1.42c-.65,2.68-1.3,6.47.88,8.64l2.64-1.44.59,1.92,1.2,1.17c.81-.69,2.51-2.1,3.33-2.77.36-.73,1.18-1.85,1.96-2.18.21-.81,1.04-2.08,1.68-2.61,0-.92.83-2.44,1.38-3.14l.79-.4-.09-2.76.71-.91.02-1.45,1.15-.76.35-1.52-1.49-.81,1.46-1.01,1.68,3-.2.71-1.45.74c1.19,1.18,2.76,4.02,3.33,5.58l1.13.53,1.66-.09.78.55,1.86-.11,1.34-1.58,1.08-3.97,1.87-1.7,2.54-.5.62-1,1.55-.32-.7,1.54-3.12,1.68.05,1.32,2.09,1.16c.26.92.87,3.19.73,4.14l2.83,2.91-1.51,2.57-.99.48.39,1.8-1.69,1.34-1.31.2-2.49,1.61-1.55,3.73-1.37,1.23,1.55,1.17-.24,2.09.56,2.11,1.97-.29.02-1.06,2.77-.58-2.11,1.77-.32,3.2.99.28-1.85,3.06.2.32-.02.07h.06s-2.3.41-2.35.42l-1.29-1.33c-1.41.54-4.53,1.81-5.82,2.55-.24,3.03-.46,4.66,1.9,6.93.35,1.1,1.3,3.36,2.19,4.13l.68-.75.96.15,1.26-1.16.69.04.41.54.32-.34c.19-.06.39-.04.58.02l-.58.02-.22.29-.12.05c-.14-.07-.33-.36-.41-.49l-.79.05-.9,1.05h-.96s-.86.85-.86.85l-1.56-1.59-1.57.46.47-.58-.02-2.48-1.33-.69-1-1.72-.08-4.23c-.48-.36-2.7.52-3.2.63l-.49.72c.35,3.02.07,8.99-.5,11.98,0,0-.06,7.74-.06,7.74l.17,2.02,1.4,2.1,2.57,1.38c6.98,1.29,11.08.68,17.59-2.05l.33-.62-.42-.88c.22.13.5,1.08.59,1.31,1.56-.42,4.09-1.11,5.66-.49l.82,1.16c1.08-.72,2.75-.8,3.92-.26-1.22-.46-2.92-.35-4.02.37-.2-.25-.74-.91-.87-1.19-3.43-.76-7.99,1.66-11.08,2.95,1.33,1.1,2.78,2.53,2.64,4.42l-.2.4-.46-.03-.13.22.04.59.23.15c0,.25.18.67.34.86h.55s-.41.97-.41.97c.53.67,1.01,1.72,1.18,2.74-.24-.78-.78-2.18-1.22-2.78,0,0-.08-.85-.08-.85-.18-.2-.42-.64-.4-.91l-.24-.2c-.05-.18-.07-.52.01-.69.07-.17.57-.32.72-.38l-.18-1.51-1.73-2.19-1.42-.63-1.54.47-1.52,1.57-1.16-.96-1.99.29c-.32.71-1.45,2.93-1.36,3.71.05.08.12.21.17.28l.07.04.02.12s-.07-.11-.09-.15c.05.08.32.55.36.62l-2.27-.77-.19.89-2.87,2.8.69.74c-1.07,1.04-2.76,3.6-3.46,4.93-.59.12-1.47,2.68-1.71,3.13-.59,1.18-2.67,5.07-2.87,6.34,0,0-.05,3.1-.05,3.1.59,1,2.13,2.58,3.12,3.2.21,1.83,1.28,5.1,2.27,6.66l-.31.38c.81.82,2.45,2.64,2.71,3.78,0,0,.46,3.59.46,3.59l1.51,3.63c.67,1.23,4.35,3.61,5.5,4.4,1.63,1.83,4.28,4.05,6.88,3.89.31-.29,1-.81,1.45-.83l2.04,1.49,1.3-.72.84-2.53,1.79-.71.9.39,3.04-2.03c.46-.13,1.72.87,2.08,1.09l-2.03-.3-1.59,1.64c-.79-.06-2.44-.12-3.1.41l-.62,2.02.92,1.78-2.78,2.39c-.88.09-2.33-.85-3-1.34l-2.05.05.44,1.22-2.46,1.01-2.58-.78-.82-1.07-1.44-.56-1.74-2.07c-.54-1.44-2.01-4.17-2.86-5.45l-.47-.11-1.44-2.72-.16-1.81-2.31-6.18-.54-.28-2.51.89-2.11,1.81c-2.9,1-6.61,2.85-8.67,5.19l.02,1.11c.39.51,1.42,2.04,2.11,2.17.58,1.25,2.8,3.46,3.82,4.38l-.35,1.99,1.25.44-1.38,2.19.75.34,1.03-.34.2.22-.05.05h.27s.05-.3.05-.3h0s.04.3.04.3l-.45.07c-.21.2-.54.5-.75.7l1.2,1.32.11,1.1c.38.52.85,1.29,1.32,1.74.92,1.1,3.35.97,4.62,1.08,1.9,1.28,5.52,4.12,7.22,5.65.41.85,1.44,2.57,2.27,3.06,0,.05.19.98.15.99l-.62,1.5-4.76,1.78,1.74,3.6,1.42.77.16.7c.95.18,2.68.92,3.48,1.46l.98-.97.66,1.03c-.7.44-1.1,1.65-1.28,2.4l1.96,1.75-.46.83,1,.81-.27,1.54.81.75-.32,1.78.92.46-.45,2.01,1.43.72.77,2.65,2.85,1.07.93-.67,1.94.14.7,1.19,1.24-.14,1.42.54-.71,1.86.72.72c.08,1.32.13,4.23-.14,5.51l-2.25.08-3.79,4.06-1.06-2.7-2.15-2.4-.15-1.36c-.95-.17-4.1-.64-4.89-1.16l-.83,1.14-2.25.04-2.09-1.31-1.26-2.48-.61,1.36-2.34.44-1.82,3.43-.79.48-1.74-.17-1.26.5-1.63-.67-1.15,1.65-.62,2.61-2.58,1.32-.42,1.59,2.08,1.63-2.85,2.65.85.76c.04.9-.93,2.53-1.41,3.24,0,0-.05,1.54-.05,1.54l.83,2.06,2.29.83,3.34.12c.02.76,1.18,1.85,1.69,2.31l1.15-.49.87.89,2.91.41.28,1.96,1.47,1.53.11.79,1.71-.15.81,2.57-1.44.14-.58-1.04c-.74.36-2.21.34-2.99.15l-.19,2.1-1.71,2.76-.73,5.49-1.59.21.17,2.13c-.42.74-1.46,2.49-2.19,2.95l.36,1.35-.84.23-1.54,1.61-1.59.04-.15,1.7c.83.6,1.85,3.6,2.21,4.53l-2.18,1.03.48.97c1.12-.01,3.18-.74,4.15-1.27l-.96-1.21.57-.89,3.17-1.3,1.15-1.54,1.87-.51,1.43,1.62c.14,1.23-.26,3.62-.64,4.79l.3.96-2.62-.17-.37,1.45.27,1.32c-1.22.62-5.43.7-6.81.76l-1.25.86-1.03.05-3.43,2.47-1.18-.36c-2.76,2.11-4.97,4.44-2.17,7.67,2.14.69,5.21,2.21,5.53,4.69,2.54.48,3.9,1.32,5.3,3.5,0,0,1.52.74,1.52.74l.76,1.03,2.06.81c1.28-.39,4.38-1.29,5.68-1.44l1.69.77-.6,1.84-2.08,1.73-.95-.15-.57,1.84.27,1.13-.98,2.11v1.47c.87.2,3.17.81,4.01.44l-.06,1.72-2.07.21-1.34-.53-3.43,1.55.12,1.92-2.48.48.23.91-1.14,2.65-1.41,1.1.28,3.03-1.35.95-.86,1.42,2.4,1.15.89-1.11.98,1.03c-1.36,1.49-3.39,2.52-5.43,2.47l-.52,1.4,3.01,1.28.17,1.58-1.55.59.32,2.01-.61,1.45.81,1.74,2.19,2.1.36,1.35-1.1,2.57,1.05,1.22.24,1.37c.34.56,1.5,2.24,1.43,2.92,1.76,1.85,5.5,4.91,5.08,7.81l.76.51,1.94-.56.71,3.2,1.37-.23,1.6-1.23.51.16c1.03-.85,3.27-2.24,4.53-2.67l1.39.75.71,1.23,1.21.7.09,1.08,1.29.08,1.64,2.06,2.83,1.44-.81,2.01c.74.15,1.51,1.7,1.82,2.29,0,0,1.63,1.78,1.63,1.78l1.66-1.72.3,1.14,1.96.95.93-.54,1.42.29,1.37,1.32-.9.47.18,1.57-1.67,1.14.59,1.15c-.08.82-.28,2.95-.76,3.63l1.53,2.13c-.2.5-.71,1.77-.7,2.31l-1.28.73.6,2.47.92.99-.33,3.48,1.34.87-.2.65c-.41.3-1.39.31-1.87.26l-.28.22-.13.69c.24.32,1.21.51,1.57.59l-.96,1.29.84.39.32.86-.2.64,1.06,1.74,2.72-4.4-.14-.94,2.39-2.36c.98-.34,2.54-1.42,3.16-2.25,1.22-.42,3.76-1.49,4.8-2.25l.62-1.89c.62-.53,2.01-1.79,2.11-2.66,1.72-.83,3.96-3.17,5.76-3.87l-.53-1.32-2.47-.23-.78-.7-.25-1.36.77-1.78,1.71-1.4.83.31,1.16,1.76,2.7,1.34,1.48-.32c-1.41-2.18-.73-4.7,0-6.94l1.65-.58c.53.25,1.61.52,2.2.47l.34.38.27,1.38c.54-.3,1.37-1.21,1.72-1.72l-.73-1.58,1.33-.89.49-1.48c0,.52-.31,1.41-.63,1.82l-1.07.56.7,1.43-.08.69-1.54,1.5c-.37-.2-.56-1.52-.66-1.88l-2.67-.5-1.26.5-.37,1.52.53.52-1.03,1.27.35,1.66,1,.77-.38,1.31-1.41.49-2.96-1.24-2.33-1.87-1.62,2.67.14.67c1.4.16,3.98,1.24,5.2,1.94l.55,1.19-.33,1.29-4.25,3.09-1.64-.38-1.98,1.95-.64-.03c-.26,5.73-2.88,5.28-6.59,8.29-.64,1.04-1.69,3.28-1.84,4.5,0,0-2.09,2.68-2.09,2.68l-2.1,1.39c-.52,1.46-2.22,3.94-3.29,5.05.23,2.89-2.33,6.59-4.23,8.56l.6,1.33c.7.17,2.06,1.78,2.53,2.29l1.19-.81h.55c.29.29.82.96.9,1.39l-.15.44c.14-.61-.53-1.36-.89-1.77l-.34.11-.06.28-.12.12v.12s-.08.1-.08.1l-.05.02.09-.15-.04-.02c-.17.18-.45.33-.68.39-.49-.05-1.04-.58-1.32-.95l-.09.06.06-.09c-.31-.33-.71-.92-1.16-1.08v.04c-.14-.13-.44-.19-.59-.31,0,0-.42-.56-.42-.56-1.33,1.04-3.36,1.36-4.96.84l-.92,1.06-1.37.26c-.87,1.27-2.93,3.4-4.28,4.15-.47.81-1.59,3.04-2.62,3.28l-.76,2.38-2.13,2.52-1.65.31-.73-.53-2.79,1.66.81.53-.23,2.31-2.54,1.22.99,1.03-.85,4.03c.15.23.69.92.62,1.22-.03.27-.58.64-.78.78l.09.73-.18-.91.77-.68-.08-.3c-.27-.18-.6-.67-.72-.96,0,0-.72-.47-.72-.47l-.69.73c-.02,1.79-.56,5.69-.88,7.48.32,1.08,1.31,3.1,1.92,4.05l-.36,1.79c-.45.77-1.58,2.72-1.55,3.64l-1.24,1.26-1.6.51-.12,1.24,1.04,1.43,1.06-.21.18-1.21,1.74.27.64,1.73.95-.14.27.45-.19.8-.77.32c.1.22.44.98.59,1.17-.04.24-.83,1.16-.97,1.35.2.49.55,1.48.69,2.03-.23-.39-.25-.92-.75-2.03l.1-.55.8-.59-.53-1.4.66-.31.14-1.06-.98.09-.76-1.75h-1.65s0,1.02,0,1.02l-1.22.32-1.46-2.11,1.28-2.19,1.09.03.74-2.57-.73-.63-1.94,1.59-2.26.55-1.98-.92-.87.21-1.62-.54-2.17.36-.72.78-1.4.38-1.32-.38-1.8,1.12c-1.32.27-4.25.99-5.23,1.99l-1.8-.35-.99.35c-.93-.25-2.98-.69-3.9-.29,0,0-1.74-.47-1.74-.47-.7.34-2.68.17-3.43.11-.97-.73-2.53-2.45-3.12-3.5l-1.76.16-.98-1.31c-2.29-.94-6.18-2.87-8.73-2.16l-1.03,1.2-2.75.89-.86-.97c-3.03.14-8.83-2.17-12.02-2.09l-1.36-1.23-1.88,1.94-2.15.07-.69-.48-4.64,1.5-1.04-.83-3.03.08-1.67,1.3c-.64.01-3.44.35-3.98-.06l-2.54.61-.6,1.09-1.05-.13-1.25-1.09-1.97-.34-2.19,1.1-.81-.43c-.9.31-4.27,1.27-4.9,1.98l-1.81-.32-1.42,1.29c.44,1.9.39,4.65-.82,6.29l-3.05-.33-.18.78,1.74,1.1-.38,1.46,1.8.75c-.03,1.14-.34,4.71.34,5.7l2.23.97c.19-.82,2.22-1.69,2.86-2.03,0,0,2.32-.07,2.32-.07l.41-1.06h1.88s-.98,1.67-.98,1.67l-.97.54-2.09-.4-2.47,1.86.07,2.29c-.29.7-.9,1.98-1.68,2.27l-.04,1.72-.48-1.49,1.22-2.01v-1.16s-2.7-1.42-2.7-1.42l-1.35,2.99-2.37,1.23c-1.07,1.86-2.81,4.87-4.95,5.63-2.06.65-4.95.63-6.76-.68-.32-.85-1.84-1.97-2.58-2.43,0,0-2.3-.25-2.3-.25l-1.55-.94-2.78.34-1.07-.53-1.24.51-.58,3.43c.5.7.03,3.12-.07,3.9,0,0-.92,1.54-.92,1.54v1.42s-.6.76-.6.76l.24,1.45-1.46,1.55c-.59,1.1,0,4.54.16,5.72,0,0,.31,6.1.31,6.1l-.33.39c.03,1.57-.03,5.19-.55,6.66-1.04.97-3.35,2.62-4.75,2.96l-.27.86-1.18.35-.96,1.67-.95.31c.26.8.04,1.96-.28,2.71l-2.39,1.6-.48,1.18-1.08.17-.47.94-2.19.79-.4,1.17-2.86.35c-.03,1.4-.27,4.5-.91,5.75l.21.84c-.51.92-1.73,2.73-2.55,3.39l-2.37.32-1.92-.48-2.17.82-.95,1.14-2.39-.26-.92-1.03-1.48.65,1.29.97c-.57.98-1.1,2.92-1.04,4.06l1.44,1.93-1.8.56.09-2-1.34-1.36.47-1.65-2.47,1.44-.59,1.52-1.82.83-1.45-.57-1.33,2.65.13,1.43-1.67,2.48,1.05,1.17c-.48,1.35-1.17,4.15-.84,5.58l-1.73,3.26-1.78,1.14-1.1-.67-2.84,2.03-.95-.51-1.41,1.04.53.73-1.11,1.03.68,1.76-.88,3.65c-1.08.55-3.35,2.98-4.19,3.87l-1.79-.39-1.26.59.03,1.83-.83,2.22-1.94,1.84-1.41.18-.6,1.16-1.37.23c-.82,1-2.54,3.01-3.86,3.33l-1.34-.31-1.3.39-.92-.63-1.16.13.39,1.4-1.05,1.92c-.67.62-2.8,2.37-2.94,3.33l.97.35-1.36,1.71.1-2.41-2.86-.98v-.9s-.85-1.2-.85-1.2l-1.66-.77c-.72.56-3.04.64-3.91.68,0,0-1.19.6-1.19.6-.38,1.35-4.41,3.03-5.5,3.62,0,0-1.32,1.83-1.32,1.83l-2-.06c-1,.33-2.79,1.3-3.5,2.09l-.43,1.95-1.05.41c-.32.82.26,2.59.55,3.37,0,0-.08,1.59-.08,1.59l.71,1.01-.36,1.31-1.48.66-.74,1.55.48,1.16,1.08.44,1.14,2.46,1.04.49,2.76-1.27,1.27.12.88-.96c4.55.23,6.52-.17,7.88-4.9l-1.21-2.75,1.56-1.03.6-1.41,2.58-.29c.55.24,2.19,1.1,2.81.85l1.45,1.75.59-.07,1.5,1.9.94-.72,1.92.13,2.22,1.45,2.8.41c1.66,1.33,3.91,3.33,4.9,5.24l-.21,1.81,1.2.65.1,1.19.78,1.03-1.07,2.92.93.46.98,1.77-.22,1.09,2.33.79.4,1.64,1.16.2,1.78-1.05-.45-.99c.44-.89,1.75-3.62,2.41-4.32l3.76-.33.79.82,1-.11.65-1.88-.22-.96.75-.88,1.72-.4.59-2.17.56-.48-.76-1.86-1.05-.83.44-1.21-3.82-2.15-1.25.42-.69-.53-1.86.66-.22-.75c.85-.24,2.66-.57,3.51-.22l1.17-.65.8.62,1.53-1.28-.4-2.14,1.62-1.31-.33-.81,1.75-1.02-.96-2,1.38-.02.78-1.84-.86-.34.1-2.78c2.01-1.06,2.7-2.64,3.11-4.76l1.1.83-1.49,1.31.07,1.03-.67,1.32c.13.69.39,2.85.94,3.34l-.82,2.49.38.53,1.62-.9.45.87-1.53.8.67,1.42c.97-.73,2.66-2.48,3.42-3.43-.34-1.93.12-3.74,1.48-5.18l2.15-.62.89.7c1.74-.38,3.47-2.47,4.52-3.8l1.15-.58,1.48.05c.65.44,2.02.81,2.8.77l.92,1.57c.51-1.47,1.88-4.26,2.93-5.41l-1.25-.65.18-3.06c.5-.89,1.95-2.3,2.78-2.9l-.96-1-.12-1.29,1.31-1.36,4.15-1.04.35-.89,1.13.09.67,1.15-.32,2.53.72.32,3.41-1.07,1.79.37.82-.66,1.09.59.88-1.02c1.18.48,3.71,1.46,5,1.11,0,0,1.35-.69,1.35-.69l1.27-.03.35-.84,2.09.58.14-.78,1.86-.84.13-.77,1.35-1.45c1.09-.24,3.28-.47,4.38-.37,1,.52,3.24.78,4.36.77l.55-.38c4.2-.06,8.49,2.9,10.72,6.33l1.97.12-1.11-2.13,1.2-1.09,1.86-.63-.59-2.08-2.06.98-.78-1.19-2.62-.33,3.68-1.06c-.25-.56-.89-2.73-1.57-2.93l-1.55.28c-.92,2.05-2.07,2.1-4.09,2.22l.87-1.83,1.6.33.77-1.03,2.52-.89.58-1.17-.52-.86.05-1.41,1.1-1.6c-.78-.77-1.38-2.98-1.57-4.02l-.96,1.25-.88-1.55,1.74-1.23-.46-2.02.32-.4-.04-.55.15-.25.92.24.51.57.76-.73-.65-.67.1-1.43-.44-.55.48.54-.11,1.42,1.68-.63.28.97-1.3.41v.65s-.9.05-.9.05l-.45-.5-.95-.22.06.66-.28.41.47.84-.22,2.11,1.6,2.04.17,1.24,1.2,1.6c.56-1.18,1.99-3.27,3.03-4.07-.34,1.59-1.97,4.13-3.34,5.03l1.68.48.52-.49-.23.46-.87.31-1.47-.41-1.22,3.48,1.18,1.22c.32.82.86,2.43.51,3.31l2.47.9.3-.89,1.73.66.75-.22c.16.97.34,3.08-.1,3.99l.67.55-.16,1.44,1.3.91,1.85-.31,1.13,1.26-.22.67,3.49,1.61c2.46-1.79,3.67-2.29,6.69-1.53l1.24-1.14.16,2.1,3.08.53,2.48,2.51c-.06.59,1.73,1.89,2.08,2.24l-.4,3.48,2.35,1.15,1.08,1.35,3.44,1.04.1-1.94,3.01.83c.67.8,2.04,1.63,3.05,1.89.75-.43,2.66-1.54,3.12-2.27l1.86.28.95-.58-.87-1.88c.44-3.68,1.41-8.37,4.3-10.96l1.44-.33.71-.83,1.08.12.97-2.17-.94-.68v-1.6s-1.09-.48-1.09-.48l.75-1.63-1.26-1.22-.31-1.5.96-.43c.2.74.89,4.77,1.48,5.27l-.19,1.37,2.51,1.66c.57-.36,2.44-1.35,2.61-2.09l-.52-1.05.45-1.84c.49-.52,1.05-1.69,1.16-2.39l.95-.4.38-1.22-2.11.35-.64-.76-3.18-.53c-.67-2.79-.53-6.01,2-7.82l1.56,1.31,1.05-.8,1.14.21.09-1.53c-.75-.07-1.73-1.22-2.16-1.77.13-2.05.64-5.95,1.72-7.75l-.99-.66c-.5.27-5.48.41-6.15.47,1.64-1.51,4.68-1.2,6.71-.99l.41.48,1.71-2.48.64-.3.25-2.05,2.11-2.12c.11-2.3-.48-6.76-1.14-8.96l-.93-.97-.12-2.55,1.18,1.03.44-1.07-.71-.31-.11-1.5.19,1.53.59.13.11.22-.13.65c.43.9,1.68,3.39,1.67,4.39,0,0,1.52,2.36,1.52,2.36l-.04,1.86,2.45.96,2.67.07-.1-.96c1.12-.95,3.77-1.92,5.19-2.19l1-1.31.38-1.58,1.88-2.61c4.24-1.95,10.29-2.39,14.89-1.89l.33-1.45,1.18-.95c1.06-.26,3.92.35,4.99.57.82-.37,2.68-1.08,3.59-.93.65-.65,2.17-1.53,3.03-1.83.7-.67,2.26-1.86,3.18-2.16,2.33.15,6.64,1.29,8.78,2.19,1.28-.52,5.3,1.67,6.44,2.15,9.34,4.96,18.77,11.77,25.81,19.7-.44,1.19-.75,3.54-.52,4.79l1.14.71.45-1.25c.42-.49,2.04-2,1.92-2.74l-1.35-2.57-2.65-.45-6.33-6.42,1.25-.07c.75.59,1.4,1.7,1.62,2.62,0,0,2.58,2.19,2.58,2.19l.36-1.21,1.55-1.31-.35-1.67c.45-1.27,1.61-2.77,2.91-3.24l.98.47,1.11-.51c1.33.52,4.01.88,5.43.74l.41.56,5.06.63c.7.61,3.09.74,3.97.8.36-.61,2.01-.86,2.62-.98l1.25.97,2.35.04,1.21.82.89-.45.63,1.13,1.95,1.01.62-.17,2.3.79.77-.19.6,2.28,1.33-.3,1.43-1.38c1.25-.48,4.46-.42,5.79-.35l.65-.46.29-1.47-.67-1.51.45-1.17,1.67-.98.67-1.38-1.37.02-1.07-1.44.96-3.17-.84-.66-1.41,1.12-.24.98-4.91-3.25-.53-2.16-2.2.6-.33,1.17-.97.55-.62-1.15c.15-.85.71-2.41,1.35-3.03l1.36.09.41-1.04,1.22-.82-.81.6v1.09s2.17.92,2.17.92l.59-1.21-.45-1.8,1.6-.23.25,2.97,1.52.2.55-.68,2.9,2.21c4.59-2.74,9.48-3.66,14.73-2.59l.44-.97,2.29-.58,1.19-1.07c3.87-1.12,9.35.71,12.88,2.29l1.87-.84,2.13-2.1.26-2.25,3.88-.46c1.35-.68,4.48-1.44,5.98-1.69l1.44-1.45-.89-1.27c.84.01,5.22.51,5.9-.03.45-1.11,1.64-3.14,2.6-3.88l-1.2-1.63-1.2-.52.04-1.32c-.34-.87-2.5-1.76-3.27-2.11,0,0-.83-1.13-.83-1.13l-1.58-1.27c-.69-.94-2.34-3.91-3.68-4.07l-1.54.18-1.72-1.53c-.07-.57-.36-2.48-.72-2.91.19.18.51.54.78.57l.95,2.45,1.41.93.97-.6,3.23,1.7.76,1.71.97-1.07c1.19.88,4.47,4.17,5.56,5.26l.68-.25.07-3.16,2.04-2.8,2.11-.41-.26-2.34.76,1.81-.54.67-1.88.38-1.3,1.65-.5,3.25.83,3.26c1.26.45,3.75,1.64,4.71,2.58l.79-.09,2.15,1.17c.54.76,1.84,2.46,2.66,2.92,0,0,2.09.43,2.09.43l1.65,1.46.76-.25,1.55-1.8-.72-2.51-1.64-1.56c-.23-.69-.77-2.56-1.53-2.89l-1.85.23,2.18-1.11,1.17.85,2.51.29-.36-.93,2,1.56,1.42-.87c.79.18,2.73.62,3.51.28l1.28,1.02c.09-.73.29-1.96.95-2.44l2.1.88,1.62-.67,1.07.38,2.31-1.01.1.76-.82,1.85-.06,1.68,1.35.47,1.42,1.43.33-2.17-.87-2.69,1.78.55.43,1.87,1.33.88.81-.17,2.28,1.09,1.06-1.11.46,1.1-1.65.71-2.99-1.03-2,2.52-.42,2.18c1.99.65,5.6,2.55,7.25,3.83.65.69,2.56,2.98,3.58,3.08l3.08-4.86c.04-.1-1.47-.29-1.52-.32,0,0-1.21-.82-1.21-.82l1.5-1.09.93,1.7-.1.22c2.72-3.03,10.56-4.1,14.26-5.16.95-.42,3.23-1.3,4.29-1.17l-.92-1.4-1.87-.8-.35-1.22,1.06-1.73c-.03.87-.53,1.84-.79,2.54l2.6,1.6.29.78c2.34-.13,10.34-.43,12.49-.95,3.24-.54,7.6-2.55,10.81-3.32l-1.21-1.72.04-.88-.67-1.06v-.22s.18-.17.18-.17v-.31c-.14-.2-.58-.32-.8-.35l.05-.44.24-.27c-.07.14-.2.51-.25.66.26.04.67.17.82.41l-.02.34-.19.28.74,1.07v.79s1.08,1.24,1.08,1.24c2.6-.25,6.57.58,9.18.72,2.11.16,5.04,1.34,7.12,1.39,1.01.44,3.69,1.58,4.79,1.58,1.62.69,4.98,1.83,6.7,2.23,4.37-1.15,5.6,2.66,9.11,3.14l1-1.47-.81-1.74.22-1.67c.03.35.18,1.21-.09,1.49.32.99.91,2.37,1.43,3.28,1.22.38,3.76,1.38,4.7,2.24,0,0,2.67.45,2.67.45l1.59-.51c.23-.92,1.72-2.59,2.36-3.26.7-1.01,2.1-3.13,3.4-3.47.44-.98,1.41-2.91,2.01-3.79,1.19-.9,3.93-2.36,5.31-2.97,0,0,5.95-1.32,5.95-1.32.86-.33,2.53-1.12,3.34-1.58,0,0,3.36-.53,3.36-.53.69-.3,2.21-.74,2.97-.56.67-.57,1.9-1.23,2.79-1.24.62-.61,2.1-1.2,2.95-1.34.87-.28,1.59-1.56,1.97-2.31,2.39-2.76,5.85-6.01,9.45-7.06,4.98.72,11.22,2.52,16.27,2.11l.32-1.73c-2.37-4.7-2.02-7.57-.4-12.43,1.45-2.68,4.94-6,7.62-7.43,1.3-.63,4.61-1.36,6.04-1.64,1.01.02,2.98-.33,3.86-.85l1.27-2.21,1.31-.83c.37-.05,3.75-1.04,4.04-.74l3.85-1.99.26-1.22,2.26-.67.36-.87,2.5-1.25c3.03-3.45,1.98-8.17,1.75-12.3-.72-3.41-3.25-8.22-3.64-11.72l-.51.14-1.32,1.69.1.3.44.05-.53.38-.14.48.69.41-.34.57.21.18-.11.51h.24s.3.29.3.29l-.07.13h-.25s-.14.14-.14.14l.05.22-.36.15c-.59-.2-1.31-.65-1.5-1.27l-.21-.15-.1-.24.5-.95.49-.06.42-1.22-.58-1.35c.2.15.38.33.51.55l1.06-.55c.08-.92.95-1.97,1.58-2.57l1.9.33,2.18-.88,1.35-2.69.41-3.84-.74-1.31c-1.17-.49-3.79-.55-5.04-.45l-1.75,1.05c-.65-.43-3.67.82-4.33.99,0,0-2.05-.19-2.05-.19l-.96.73c-2.05.4-4.84,0-6.91.13-2.11.77-6.43,1.54-8.67,1.5l-.31.57-2.34.09-.42.39-2.6.24c-2.82,4.47-7.64,2.25-11.7,4-1.84-1.83-2.68-2.23-5.22-1.45-.8.11-2.11-.3-2.78-.71,0,0-3.67-.24-3.67-.24l-.49-.98.19-1.97c-.74-.6-2.34-1.62-3.26-1.88l-.93-1.85-1.61-1.14-.18,1.98.74,1.64,1.4.77-.37.71-1.54.6-.12-1.7-.98.49-.73,1.96-1.34-1.05-.3-1.23-.86-.64-1.68,3.26c-.85-.29-2.49-1.08-3.08-1.77-1.75-.05-3.75-1.63-4.96-2.79-.38.76-1.1,2.49-1.05,3.35l-.68.38-.94-1.26-1.34,2.1-2.7,1.63-.49,1.23.65.98-.32,1.4.47.85-.56.78.87.65c-.17.42-.38,1.25-.17,1.68.24.36.34.96.55,1.33l.26.03.26.21c.58-.31,1.43-.2,2.02.01l.59.58-.03.04-.56-.58c-.54-.19-1.54-.26-2.06,0l-.24-.21-.25-.03c-.54-.85-.93-2.13-.46-3.09l-.85-.55.2-1.5-.52-.92.61-.49-.67-1.18.09-1c1.3-.95,3.6-3.13,4.5-4.47l1.39,1.35.85-3.49.62-.29,2.06.43,1.2-.85,3.06-.42,1-.8-.43-2.02,1.2-1.09,2.23-.68,1.72,2.12,1.91-.1,1.52-.71.45-.83-.35-2.24c-1.27-1.44-2.52-2.24-4.52-1.9,0,0-2.08-.43-2.08-.43l-2.65.65-.33-.5c-1.37-.86-5.94-.47-7.48-.39,0,0-3.99-.18-3.99-.18l-1,.63-1.1,2.73.48,1.08c-3.06,2.4-7.81,2.38-11.34,1.17l-1.22-1.91-2.1,1.55-1.41.17c-1.18-.6-3.78-2.55-4.85-3.37l-.64.59-.12,1.86-.6.6.04.49-1.6,1.43-.99.27-.69,1.99-1.06,1.23.22,1.62-.35.05,1.27,2.17h-1.28s.56,2.04.56,2.04l-.52,2.78-.7,1.99-1.75.47.36,1.26-1.31.71-1.67,1.66-.13,1.45.78,1.19-.81.73-2,.43-1.42-.4.13-.83-1.04-1.2-1.47,2.25-1.32-5.15-2.04-1.03-1.52-.16-1.04.89.25.84-1.37,1.15-1.8.46-.74,2.33-2.55,1.85-.64-1.19-2.14-.73-.21-2.81-2.79-2.58-.88-.36-1.99,1.99-.81-.9,1.06-1-.55-1.89-.96-1.21-1.07-.08-.03-1.84-1.4.11-2.28,2.52-.35,1.36-.92,1.33-.15,1.11-1.08,1.03-1.03-.11-.08-2.7,1.77-3.83-.88-2.51-.95.22-1.09-1.46-1.65-1.17-2.09.54-.76-1.89-1.22.02-1.24-1.33-1.81.3-1.47-1.01-.27-2.51-3.09-.79-1.41-.85.87-2.83.72-.79.5-1.88-.81-1.22.08-2.38-.45-.58,1.55-2.78-2.15-4.68-.13-1.05.36-2.66.62-1.15,2.73,1.92,1.6-1.12,3,.83,1.56-.42,1.98-1.14,1.14-.51,2.75-2,1.08.54.88.07,3.45-1.31.48-1.56,3.42-1.19,1.45-.2.75-.68.81-.66.7-2.12,1.23.31,3.74-1.03,2.33.32,1.12.66,4.72.22.37,2.86-.21,1.96,1.18.57h1.88s0,1.73,0,1.73l1.72,1.76,1.97,1.15,2.11.25.62-.9,2.11-.73,1.59-1.21,2.67.18,1.15-.66,1.55.05,2.02-1.04,2.57,1.88,1.07,1.22.78,2.83.91,1.2.8,1.99,1.96-.3.25,1.1.88.63.63,1.68-2.66.4-.24.49-2.79.57-.06,1.99-.85.04-.32-1.51-1.13,1.37.48,1.56-1.32.25.33.99-1.28.46-.35.88c1.05.18,2.58,1.54,3.28,2.29,0,0,2.82,1.26,2.82,1.26l2.51-1.72,1.48.32,1.46,2.62c2.56.21,5.92-.2,8.06-1.72.26-1.43.43-4.3.33-5.75l1.66-.63.74.79c.87-.2,3.85-.65,4.42-1.43l-.34-2.4-1.89-1.5,1.13.39.35.48,1.76.06.76-.61c.12-.48-.03-1.2.09-1.56l.25-.21c.18.22.82.33,1.08.37.29.52,3.79.98,4.32,1.11.73-.24,2.21-.73,2.95-.97,3.64.86,9.12.82,12.64,2.04,1.01-1.1,3.38-3.45,4.73-4.08l.49-1.03c-3.06-.06-3.12-2.12-4.28-4.31l1.37-1.44,2.43.22.93-.59-.22-1.6-2.79-.34-1.39-.8-2.27-.12c-.37-.66-1.1-1.55-1.85-1.79l-1.02.79-1.61.25-.65-.58c-1.05.28-4.44.35-5.56.38l-.92.81c-.52-.47-2.37-.23-3.78,0l1.72-.6.1-1.13,4.33.47,1.48-.44,1.2.25.6-.87c.97.13,2.92.13,3.86-.15l2.56,2.06c1.5.27,4.54.48,6.06.47.8-.16,3.08-.69,3.86-.37.8-.35,2.34-1.24,2.74-2.05-.49-1.29.31-4.97.58-6.28,0,0-.79-2.45-.79-2.45.32-2.14,1.28-4.13-.39-6.03l-1.49-.77-1.93.61c-1.62,2.22-2.45,4-5.46,4.44l-1.26-.77-2.12.47-.19,1.17-1.93,1.2-1.31-1c-.6.23-3.29-.55-3.91-.69l-.63-1.52,1.5-1.3.81.67,1.22-.03c.6-.83,3.03-1.77,3.95-2.13,3.07,1.58,5.32.56,7.4-1.96l-1.49-.91,2.1-1.2-.87-1.13-1.71-.56-1.23.52.32-.79,2.11-.17c.81.81,3.17,1.45,4.26,1.67,0,0,2.2-.35,2.2-.35,1.17-.62,4.24-2.19,4.84-3.45l-.66-.67-1.65-.17-.09-1.19-2.34-1.3.05-1.12,1.84-.09.16-1.9-.97-.91.85.3,1.07,1.46-.22,1.51c.71,1.37,2.49,3.21,4.04,3.58l.96,1.62-.06,1.4.82,1.09c1.51-.31,4.54-.64,6.07-.63,0,0,1.65-.93,1.65-.93,1.23-1.16,4.11-2.99,5.62-3.75,2.71-2.09,5.36-5.87,6.97-8.85l-.03-1.48-2.41-1.06,1.03,2.82-1.2-.18-.47.84-1.59-.37-1.06-1.39-.83.62-1.22-.43-.14-1.76,2.15-.91-.38-1.52,1.03-.51,1.57.3c.07-1.79,1.44-4.22,2.95-5.2l-.06-1.45-1.91.81-.63-.7-1.32-.02-1.01,1.15c-1.13-.12-3.39-.13-4.5.1l-.9-.82c-.85.11-2.17.5-2.76,1.17-1,.36-3.18-.14-4.16-.44,0,0-2.41,0-2.41,0l-.74-.87,1.16.03,1.39-.95,2.03.54c1.32-.17,3.61-1.53,4.65-2.34l1.44.58.73,1.11,2.18-.15.65.38,1.45-1.23,1.6.11,1.2.68.78-.88c-.53-.9-1.39-2.69-1.23-3.77-.92-.26-3.89-1.33-4.82-.92l-.79-1.12-1.84-.42-1.39-1.26-.5-1.16-1.16-.96c.35.09,1.2.32,1.5.5l1.15,1.09,3.25,1.91,1.25-.05,1.65.96.8-.17,2.24,1.21.13,3.33,2.7,2,1.01,2.04,1.69-3.08,2.1-1.16c.58-.84,1.86-2.46,1.66-3.59-.59-.82-2.14-2.15-2.99-2.71l-.43-1.78-1.1-.35c-.7-1.09-1.16-4.54-1.33-5.81l1.14.51.09,1.59.79,1.03-.47,2.02,1.19.53.67.99.18,1.57,1.84.92.64,1.01h1.22s1.94-2.33,1.94-2.33c.28-.81.88-3.14,1.78-3.51l.28-2.04c.67-1.16,2.81-2.74,3.96-3.39,0,0,2.13-2.66,2.13-2.66.81-.26,1.99-1.22,2.46-1.92l-.08-1.6,1.27-1.19.52-2.36-1.64-.95-.41-1.66-1.09.85-1.28-.71-.32-1.25,1.46-.11,2.28,1.32-.48,1.35,1.63-.04.54.72-.78,2.82-1.31,1.23-.14,1.92-.84,1.02-1.48.62-.08,1.75,2.31-.86,1.4-1.61c.78-4.11.96-9.89,2.63-13.81-.05-1.36-.28-5.77.05-7.03,0,0-.13-3.95-.13-3.95l.07-.31h.09v-.4l.78-3.27,2.24-2.76-1.28-1.27-1.73-.75v-.2l1.76.77,1.47,1.49c.43-1.12.98-3.38.99-4.58,0,0,2.75-7.72,2.75-7.72.18-1.11.24-3.36-.13-4.43.12-2.29,1.04-5.19,2.41-7.04ZM477.92,294.63l-.92.75.19,1.02c-.17-.3-.22-.7-.22-1.02l.96-.75ZM275.52,320.85c-.02-.05-.05-.1-.08-.15,0,0,.1-1.17.13-1.54.07.54.05,1.07-.11,1.53.02.05.04.11.06.16ZM275.71,323.49l-.03-.31c.12-.5.14-1.37-.04-2,.24.73.3,1.61.08,2.29l.54.46-.55-.44ZM259.77,672.93c.32.21.95.39,1.31.42.15.08.3.27.45.52-1.08-.4-1.52-.63-1.75-.93ZM262.29,675.51l-.7-1.54c.3.53.58,1.22.71,1.51.41.28,1.03.65,1.58,1.09l-1.59-1.05ZM268.64,681.71l.04-.84-1.1.03-1.04-.87c-.19.36-1.12,1.1-1.42,1.39.34-.49,1.17-.94,1.42-1.47-.09-.31-.6-.73-.85-.9-.02-.17-.48-.62-.59-.74l-.05-.12-.91-1.39c.5.44.91.94.95,1.47.26.32,1.46,1.33,1.48,1.77l.98.83c.27-.05.91-.18,1.15.01l.74,1.94-.8-1.1ZM637.68,634.91l-.9-.36c.32.08.63.19.9.36ZM635.2,634.5c.3-.06.65-.07.99-.04l-1.07.07c-.41-.04-1.16-.29-1.61-.48.61.08,1.23.29,1.69.45ZM628.13,632.86l1.03.07.32.25c.06-.02.39-.11.45-.12l.1.07.13.4.44.33c.41.01,1.2.15,1.55.36.33-.18.72-.23,1.14-.2-.4.13-.97.31-1.36.18-.25-.21-1.08-.29-1.39-.32l-.43-.38-.08-.3-.12-.12-.43.13-.39-.27-.55.03c-.16.22-1.02.94-1.23,1.15l.81-1.27ZM478.06,694.83l-.12-.86.91-.58c-.14.55-.45,1.09-.78,1.44ZM476.31,690.53l.2-.87c-.06-.22-.2-.55-.11-.77.21-.08.42-.28.52-.48-.07.2-.3.42-.51.48-.09.15.09.62.12.77l-.18.87.98,1.47,1.34-.03c.14.18.2.39.24.62l-1.52-.58-1.13.47.38-1.17-.32-.78ZM476.92,694.51l.25.4.87-.06s-.03.04-.05.06l-.84.03-.28-.38c-.34.48-1.27,1.08-1.82,1.28l.91,1.84-.42.36-.3-.09-.47.13c-.01.32-.19.89-.37,1.16l.5.82c.09-.03.32-.13.42-.07l.19.18v.25c-.21.37-1.12,1.01-1.48,1.25l.51.78,1.01.05.11-.07.21.03.09.24-.2.31.11.45.82.14-.08,1.27-1.03-.23-.16.8.69.4-.18.57-.51.32-1.1-.08-.49,1.16c.11.23.15.49.15.75l-.19-.79.44-1.1.72-.32.53.32.57-.82-.7-.38.17-.85.73-.25c-.16-.31-.51-1.04-.52-1.4l.19-.25-.02-.17-.22-.09c-.12.11-.39.24-.56.26l-.6-.23-.54-.82c.46-.28,1.32-.94,1.49-1.48l-.22-.18-.38.09c-.16-.19-.41-.65-.52-.88.15-.25.31-.78.33-1.06.04-.05.14-.16.2-.19l.35-.89-.22-1.28c.39-.38,1.31-1.25,1.89-1.29ZM506.58,425.16l-.08-.03,3.1-1.59c-1.11.69-2.16,1.26-3.02,1.62ZM519.02,495.93l-1.5.29-1.38,1.39-.06.87v-.85s1.39-1.43,1.39-1.43l1.48-.29c.13-.12.66-.83,1.3-1.69h.02l-1.25,1.72ZM568.19,596.61l-.05-.42c.05.13.06.3.05.42ZM570.3,594.55l-.35.78-.58-.21c-.23.27-.64.47-1,.37-.16.14-.16.42-.27.59.02.02.02.06.03.08-.06-.02-.67.17-.71.17-.06-.02-.25-.09-.31-.12.01,0,.22.08.23.08l.86-.52c0-.1.1-.2.15-.28.31-.06.84-.13,1.06-.41l.62.06.16-.96,1.59.13c-.64.11-1.18.21-1.46.24ZM657.2,469.89l-1.75,2.77-.3.09c-.05-.06-.12-.13-.2-.2v-.2c.22.11.42.22.49.25l1.74-3.84-1.13-1.09-.86.45-.23-.02v-.06l.23.03.96-.48,1.09,1.17-.04,1.14Z" fill="#222f2b"/>
  </g>
  <g id="c" data-name="England counties">
    <circle cx="493.44" cy="576.75" r="8.5" fill="#231f20" stroke="#f6d08f" stroke-width="5"/>
    <circle cx="486.66" cy="642.46" r="8.5" fill="#231f20" stroke="#f6d08f" stroke-width="5"/>
    <circle cx="571.56" cy="625.25" r="8.5" fill="#231f20" stroke="#f6d08f" stroke-width="5"/>
  </g>
  <g>
    <path d="M514.42,565.84c-.05-.5-.28-.88-.67-1.16-.39-.28-.9-.42-1.53-.42-.44,0-.82.07-1.13.2-.31.13-.56.31-.72.54-.17.23-.25.49-.26.78,0,.24.06.45.17.63.11.18.26.33.46.45s.41.23.64.31c.23.08.47.15.71.21l1.09.27c.44.1.86.24,1.27.42.41.17.77.39,1.1.66.32.27.58.59.77.96s.28.81.28,1.32c0,.68-.17,1.28-.52,1.8s-.85.92-1.51,1.21c-.66.29-1.45.43-2.38.43s-1.69-.14-2.35-.42c-.66-.28-1.18-.69-1.56-1.23s-.58-1.19-.61-1.97h2.07c.03.41.16.74.38,1.01.22.27.51.47.86.6.35.13.75.2,1.19.2s.86-.07,1.21-.21c.35-.14.62-.33.82-.58s.3-.54.3-.87c0-.3-.09-.55-.27-.75-.17-.2-.42-.37-.73-.5-.31-.13-.68-.25-1.09-.36l-1.32-.34c-.96-.25-1.71-.62-2.27-1.12-.56-.5-.83-1.17-.83-2,0-.69.19-1.29.56-1.8.37-.51.88-.92,1.53-1.2s1.37-.43,2.19-.43,1.55.14,2.17.43,1.11.68,1.47,1.19.54,1.09.55,1.74h-2.03Z" fill="#fff"/>
    <path d="M522.75,565.55v1.59h-5.02v-1.59h5.02ZM518.97,563.46h2.06v8.19c0,.28.04.49.13.63.09.15.2.25.34.3.14.05.3.08.47.08.13,0,.25,0,.35-.03.11-.02.19-.04.25-.05l.35,1.61c-.11.04-.27.08-.47.12-.2.04-.45.07-.74.08-.52.02-.98-.06-1.39-.24-.41-.17-.74-.44-.98-.8-.24-.36-.36-.82-.36-1.36v-8.53Z" fill="#fff"/>
    <path d="M530.03,574.28h-2.25l4.1-11.64h2.6l4.1,11.64h-2.25l-3.11-9.25h-.09l-3.1,9.25ZM530.1,569.71h6.14v1.69h-6.14v-1.69Z" fill="#fff"/>
    <path d="M542.08,562.64v11.64h-2.06v-11.64h2.06Z" fill="#fff"/>
    <path d="M544.28,574.28v-11.64h2.06v4.35h.08c.11-.21.26-.44.45-.68s.46-.45.78-.62c.33-.17.75-.26,1.26-.26.67,0,1.28.17,1.83.51.54.34.98.85,1.3,1.52s.48,1.49.48,2.46-.16,1.77-.47,2.44c-.31.67-.74,1.18-1.28,1.53-.54.35-1.16.53-1.84.53-.5,0-.92-.08-1.25-.25-.33-.17-.59-.37-.79-.61-.2-.24-.35-.46-.46-.67h-.12v1.38h-2.02ZM546.3,569.91c0,.56.08,1.06.24,1.48.16.42.39.75.7.99.31.24.68.36,1.11.36s.83-.12,1.14-.37c.31-.24.54-.58.7-1.01s.24-.91.24-1.46-.08-1.02-.23-1.44c-.16-.42-.39-.75-.69-.99-.31-.24-.69-.36-1.15-.36s-.81.12-1.12.35c-.31.23-.54.55-.7.97-.16.42-.24.91-.24,1.47Z" fill="#fff"/>
    <path d="M556.79,574.45c-.55,0-1.05-.1-1.49-.3-.44-.2-.79-.49-1.05-.88-.26-.39-.38-.87-.38-1.44,0-.49.09-.9.27-1.22.18-.32.43-.58.74-.77s.67-.34,1.07-.44c.4-.1.81-.17,1.23-.22.51-.05.93-.1,1.24-.14.32-.04.55-.11.7-.21.15-.09.22-.24.22-.43v-.03c0-.43-.13-.76-.38-.99-.25-.23-.62-.35-1.1-.35-.5,0-.9.11-1.2.33-.29.22-.49.48-.59.78l-1.92-.27c.15-.53.4-.97.75-1.33.35-.36.77-.63,1.28-.81.5-.18,1.06-.27,1.67-.27.42,0,.84.05,1.26.15.42.1.8.26,1.14.49.34.22.62.53.83.92.21.39.32.87.32,1.45v5.84h-1.98v-1.2h-.07c-.12.24-.3.47-.53.68-.23.21-.51.38-.85.5-.34.13-.74.19-1.19.19ZM557.32,572.94c.41,0,.77-.08,1.07-.25.3-.17.54-.38.7-.66.17-.27.25-.57.25-.89v-1.03c-.06.05-.17.1-.33.15-.15.05-.32.09-.51.12-.19.03-.38.06-.56.09s-.35.05-.48.07c-.31.04-.58.11-.82.21-.24.09-.43.23-.57.39-.14.17-.21.39-.21.65,0,.38.14.67.42.86.28.19.63.29,1.06.29Z" fill="#fff"/>
    <path d="M565.53,569.16v5.11h-2.06v-8.73h1.97v1.48h.1c.2-.49.52-.88.96-1.17s.99-.43,1.64-.43c.6,0,1.13.13,1.58.39.45.26.8.63,1.05,1.12.25.49.37,1.08.37,1.78v5.56h-2.06v-5.24c0-.58-.15-1.04-.45-1.37-.3-.33-.72-.49-1.25-.49-.36,0-.68.08-.96.24s-.5.38-.65.68-.24.65-.24,1.07Z" fill="#fff"/>
    <path d="M580.12,567.86l-1.88.21c-.05-.19-.14-.37-.28-.53s-.31-.3-.53-.4-.49-.15-.81-.15c-.43,0-.79.09-1.08.28-.29.19-.43.43-.43.72,0,.25.09.46.28.62s.51.29.95.39l1.49.32c.83.18,1.44.46,1.84.85.4.39.61.89.61,1.52,0,.55-.16,1.03-.48,1.45-.32.42-.75.75-1.32.98-.56.23-1.21.35-1.93.35-1.07,0-1.93-.22-2.58-.67s-1.04-1.07-1.16-1.88l2-.19c.09.39.28.69.58.89.29.2.68.3,1.15.3s.88-.1,1.18-.3c.3-.2.45-.45.45-.74,0-.25-.1-.46-.29-.62-.19-.16-.49-.29-.89-.38l-1.49-.31c-.84-.17-1.46-.47-1.86-.88-.4-.42-.6-.94-.6-1.58,0-.54.14-1,.44-1.4.3-.4.71-.7,1.24-.92.53-.22,1.15-.33,1.84-.33,1.02,0,1.83.22,2.42.65.59.44.95,1.02,1.09,1.77Z" fill="#fff"/>
  </g>
  <g>
    <path d="M1009.6,609.1c-1.75-2.34-6.21-8.28-8.09-10.39-.17-1.01-3.61-13.89-5.54-15.24l-3.86-.06-3.06-3.17-1.67,1.04-6.17-1.96,4.16-4.62h0s0,0,0,0c0,0-4.79-3-6.64-3s-2.71-1.15-2.71-1.15l1.04-1.38h0s0,0,0,0c-.47-1.51-1.66-5.41-1.85-6.93,0,0-1.39-2.02-1.39-2.02l-3.17-.29-2.37-3.23,1.85-4.16h0s0,0,0,0l-5.08-2.77c.31,3.19-8.52,6.6-9.7,6.93-2.06-.41-10.56-.47-12.46,2.77-1.47-.09-14.17-.86-15.24-.92l-4.33,4.68-3.52.4c-1.01.6-3.89,2.4-5.07,2.48l-1.39-1.73-1.39,1.56h0s0,0,0,0l.92,3.24-3.23,1.96-3.29-1.44-2.71,1.33-2.83-.06-2.94-1.33-3.01-2.77-2.77-.92c-.44.25-8.25-10.13-8.31-9.64l1.21-3.52h0s0,0,0,0l-2.13-3.64-7.05.23-6.23-3.92-1.15,3.69-4.5-.29c.27-1.67,3.4-4.1,4.56-5.13l.06-6.41h0s-1.5-1.15-1.5-1.15c.26-2.92,1-9.39,1.73-12.18h0,0c-2.89-.14-16.7-2.23-19.16-.52l-6.01-3.24-12.47-.46-6-3.23c-2.06.82-8.83.87-11.08.92l-5.08-5.08h0s.12,11.14.12,11.14c-.35.4-5.35,8.57-5.92,8.36h0s-6.14,4.46-6.14,4.46l-1.79-2.42s-6,4.39-6.93,6.23c-.92,1.85-2.19,3.17-2.19,3.17,0,0-6.52-11.48-6.52-14.72s-3.87,7.33-4.79,9.64c-.92,2.48-.28,11.49-3.46,12.36l-4.33-1.85c-.41.11-8.81,3.09-11.62,1.77h0c-2.27-.4-4.57-.77-6.45,1-6.29,5.89-17.66,10.62-17.66,10.62l-4.21,3.69-12.41,4.91c-1.38-.36-15.76-4.15-17.55-4.62l-.12,2.6-3.92,3.18-7.39-5.72-3.69-1.15-3-4.68-4.73-.06.35,5.19,1.39,1.85c-.28,2.04-.66,6.54-.23,8.54l-2.36,1.39c2.29.64,1.52,7.69,1.21,8.08,5.88,2.56,6.68,18.98,8.77,19.86l.41,2.83-.87,2.72h-1.85c-.97,2.31-1.98,5.62-3.17,7.85,1.58,2.73,1.11,12.65,1.62,15.18,4.08,5.38,2.45,11.61-2.08,16.8,0,0-2.14,5.71-2.14,5.71l2.08,5.25,3.24.93,5.54,4.16,7.44.17,5.71,3.87-3.46,1.04c-1.14,3.08-.5,9.31,0,12.47l3.29-.06,3.29,2.25.35,2.42,3.23.46,1.85-2.3,2.31-.47c.19.46.75,1.87.92,2.31l2.77.92,1.85,2.77c8.24.21,6.54,1.94,9.7,8.31,1.78.44,3.44,1.21,3.98-.35,1.66-2.21,4.89-1.55,7.62-.23,1.85.46,3.17,2.88,3.17,2.88l6.93,7.85c.69.15,3.53.78,4.16.92.96,1.49,3.17,4.93,4.16,6.46.02.2.46,5.06.46,5.08l-2.31,1.39s-2.3,4.61-2.3,4.61h0l.46,1.85-4.91,7.73c.27.54.95,1.91,1.21,2.42,0,0-.58,1.53-.58,5.25h0c-.13,1.19.4,4.5.75,4.5l-1.33,2.02c2.26,2.32,10.01-3.93,10.85-5.78.4-1.49.98-5.97,1.15-7.04l3.52-3.23c.55-6.34,6.61-12.79,11.49-15.12l1.39-2.31c1.63.22,4.48-.35,6-.92l-.35,8.25,4.04-.41,3.69,3.24,4.16,10.62c-2.9,2.42-7.16,5.66-2.14,9.59-.45-.14,4.25.37,3.98.58l.46-4.16,5.54-4.62c4.17-.12,9.08,4.79,10.16,8.31l2.31.47,3.23,3.69-.92,2.31c.86,2.01,1.14,5.06,2.31,6.93l-.92,3.69,4.16,1.85,3.87-.41,5.49,8.43,3.23.12-.58-2.6,1.33-1.33c1,.6,6.16-3.3,6.18-4.1l2.71-.92,1.33-4.73,2.31-1.39c-1.36-3.44,2.04-9.1,6.46-6.47l3.24-.46,2.08-1.68,1.73-2.83-2.02-2.83,1.62-1.56,2.14.12h0l.92-2.77,6.93-.47,3.24,5.08.92-1.85,4.62-.47,1.85,2.77,1.44,7.85,2.72.46-2.77,3.7,5.08,13.85c2.11-4.46,2.89-17.48,9.7-8.31,0,0,.35,1.79.35,1.79l2.89.18,2.25,5.42c1.44-.69,13.77-1.2,13.91-6l-1.85-1.39c-.71-2.93-.4-7.05-.57-10.04l3.81-2.89,2.42-3.46,8.66-3.46c-2.22-7.21-4.53-10.22,5.07-9.24l5.25-9.3.63-3.63,1.5-3.24c-1.16-3.94-2.95-8.95,2.31-12l-2.77-9.24,1.21-2.66h0s-3.98-2.88-3.98-2.88l1.39-11.54,4.16-.47c-.29-3.04,1.95-6.96,3.69-9.23l3.98-.23,3.29-4.74,2.6-.23,2.6-5.43,3.69-2.31-.81-3.12-1.44-1.21,4.56-7.67-3.69-.47c.08-1.21.38-6.08.46-7.38,3.24-.57,7.03-2.63,9.35-5.95h0s0,0,0,0l-7.04.41c2.46-3.19,7.87-1.99,8.6-4.1l-1.85-6.06,1.73-.64h0s0,0,0,0l-.18-2.13,2.31-3.69s1.85,4.62,3.24,6.93c1.39,2.31,2.3-.93,2.3-.93l1.21-1.67h0s-.29-6.64-.29-6.64c1.68-.55,12.56-2.43,13.4-4.16,0,0,14.55-2.53,14.55-2.53h0s0,0,0,0Z" fill="#222f2b"/>
    <g id="d" data-name="England counties">
      <circle cx="847.81" cy="647.35" r="8.5" fill="#231f20" stroke="#f6d08f" stroke-width="5"/>
      <circle cx="811.67" cy="609.05" r="8.5" fill="#231f20" stroke="#f6d08f" stroke-width="5"/>
      <circle cx="786.82" cy="563.12" r="8.5" fill="#231f20" stroke="#f6d08f" stroke-width="5"/>
      <circle cx="825.4" cy="672.92" r="8.5" fill="#231f20" stroke="#f6d08f" stroke-width="5"/>
    </g>
    <g>
      <path d="M742.45,679.44v-11.64h2.11v9.87h5.12v1.77h-7.23Z" fill="#fff"/>
      <path d="M753.92,679.62c-.55,0-1.05-.1-1.49-.3s-.79-.49-1.05-.88c-.26-.39-.38-.87-.38-1.44,0-.49.09-.9.27-1.22.18-.32.43-.58.74-.77s.67-.34,1.07-.44c.4-.1.81-.17,1.23-.22.51-.05.93-.1,1.24-.14s.55-.11.7-.21c.15-.09.22-.24.22-.43v-.03c0-.43-.13-.76-.38-.99-.25-.23-.62-.35-1.1-.35-.5,0-.9.11-1.2.33s-.49.48-.59.78l-1.92-.27c.15-.53.4-.97.75-1.33.35-.36.78-.63,1.28-.81.5-.18,1.06-.27,1.67-.27.42,0,.84.05,1.26.15s.8.26,1.14.49c.34.22.62.53.83.92.21.39.32.87.32,1.45v5.84h-1.98v-1.2h-.07c-.12.24-.3.47-.53.68-.23.21-.51.38-.85.5-.34.13-.74.19-1.19.19ZM754.46,678.11c.41,0,.77-.08,1.07-.25.3-.17.54-.38.7-.66.17-.27.25-.57.25-.89v-1.03c-.06.05-.17.1-.33.15-.15.05-.33.09-.51.12-.19.03-.38.06-.56.09s-.35.05-.48.07c-.31.04-.58.11-.82.21s-.43.23-.57.39c-.14.17-.21.39-.21.65,0,.38.14.67.42.86s.63.29,1.06.29Z" fill="#fff"/>
      <path d="M760.61,679.44v-8.73h1.97v1.48h.1c.18-.5.48-.89.9-1.17.42-.28.92-.42,1.51-.42s1.09.14,1.5.43.69.68.86,1.17h.09c.19-.49.52-.87.98-1.16.46-.29,1.01-.43,1.64-.43.8,0,1.46.25,1.97.76.51.51.76,1.25.76,2.22v5.86h-2.06v-5.54c0-.54-.14-.94-.43-1.19-.29-.25-.64-.38-1.06-.38-.5,0-.88.16-1.16.46-.28.31-.42.71-.42,1.2v5.44h-2.02v-5.62c0-.45-.13-.81-.41-1.08-.27-.27-.62-.4-1.06-.4-.29,0-.56.08-.81.22-.24.15-.44.36-.58.63-.14.27-.22.59-.22.95v5.31h-2.06Z" fill="#fff"/>
      <path d="M775.06,679.44v-11.64h2.06v4.35h.08c.11-.21.26-.44.45-.68.19-.24.45-.45.78-.62.33-.17.75-.26,1.26-.26.67,0,1.28.17,1.83.51.54.34.97.85,1.29,1.52s.48,1.49.48,2.46-.16,1.77-.47,2.44c-.31.67-.74,1.18-1.28,1.53-.54.35-1.16.53-1.84.53-.5,0-.92-.08-1.24-.25-.33-.17-.59-.37-.79-.61-.2-.24-.35-.46-.46-.67h-.12v1.38h-2.02ZM777.08,675.08c0,.56.08,1.06.24,1.48.16.42.39.75.7.99.3.24.67.36,1.11.36s.84-.12,1.14-.37.54-.58.7-1.01c.16-.43.24-.91.24-1.46s-.08-1.02-.23-1.44c-.16-.42-.39-.75-.69-.99-.31-.24-.69-.36-1.15-.36s-.81.12-1.12.35c-.31.23-.54.55-.7.97-.16.42-.24.91-.24,1.47Z" fill="#fff"/>
      <path d="M788.92,679.61c-.88,0-1.63-.18-2.26-.55s-1.12-.88-1.46-1.56c-.34-.67-.51-1.46-.51-2.38s.17-1.69.51-2.37.82-1.21,1.44-1.59c.62-.38,1.34-.57,2.18-.57.54,0,1.05.09,1.53.26.48.17.9.44,1.27.8.37.36.66.82.87,1.37.21.55.32,1.21.32,1.98v.63h-7.15v-1.39h5.18c0-.39-.09-.75-.25-1.05-.17-.31-.4-.55-.7-.73-.3-.18-.64-.27-1.04-.27-.42,0-.79.1-1.11.3-.32.2-.57.47-.74.79-.18.33-.27.69-.27,1.08v1.21c0,.51.09.94.28,1.3.19.36.45.64.78.83s.72.29,1.17.29c.3,0,.57-.04.81-.13.24-.08.45-.21.63-.38.18-.17.31-.37.4-.62l1.92.22c-.12.51-.35.95-.69,1.33-.34.38-.77.67-1.3.88-.53.21-1.13.31-1.81.31Z" fill="#fff"/>
      <path d="M798.9,670.71v1.59h-5.02v-1.59h5.02ZM795.12,668.62h2.06v8.19c0,.28.04.49.13.63.08.15.2.25.34.3.14.05.29.08.47.08.13,0,.25,0,.36-.03.11-.02.19-.04.25-.05l.35,1.61c-.11.04-.27.08-.47.12-.2.04-.45.07-.74.08-.51.02-.98-.06-1.39-.24-.41-.17-.74-.44-.98-.8-.24-.36-.36-.82-.35-1.36v-8.53Z" fill="#fff"/>
      <path d="M802.85,674.33v5.11h-2.06v-11.64h2.01v4.39h.1c.2-.49.52-.88.95-1.17s.98-.43,1.64-.43c.61,0,1.13.13,1.59.38.45.25.8.62,1.05,1.11s.37,1.08.37,1.79v5.56h-2.06v-5.24c0-.59-.15-1.04-.45-1.37-.3-.33-.72-.49-1.26-.49-.36,0-.69.08-.97.24s-.51.38-.67.68c-.16.3-.24.65-.24,1.07Z" fill="#fff"/>
    </g>
    <g>
      <path d="M869.6,644.32c-.05-.5-.28-.88-.67-1.16s-.9-.42-1.53-.42c-.44,0-.82.07-1.13.2s-.55.31-.72.54c-.17.23-.25.49-.26.78,0,.24.06.45.17.63.11.18.26.33.46.45s.41.23.64.31c.23.08.47.15.71.21l1.09.27c.44.1.86.24,1.27.42.41.17.77.39,1.1.66.32.27.58.59.77.96s.28.81.28,1.32c0,.68-.17,1.28-.52,1.8s-.85.92-1.51,1.21c-.66.29-1.45.43-2.38.43s-1.69-.14-2.36-.42c-.66-.28-1.18-.69-1.56-1.23s-.58-1.19-.61-1.97h2.07c.03.41.16.74.38,1.01.22.27.51.47.86.6.35.13.75.2,1.19.2s.86-.07,1.21-.21c.35-.14.62-.33.82-.58.2-.25.3-.54.3-.87,0-.3-.09-.55-.27-.75-.17-.2-.42-.37-.73-.5-.31-.13-.68-.25-1.09-.36l-1.32-.34c-.96-.25-1.71-.62-2.27-1.12s-.83-1.17-.83-2c0-.69.19-1.29.56-1.8.37-.51.88-.92,1.53-1.2.64-.29,1.37-.43,2.19-.43s1.55.14,2.17.43,1.11.68,1.47,1.19c.36.51.54,1.09.55,1.74h-2.03Z" fill="#fff"/>
      <path d="M877.38,652.93c-.85,0-1.59-.19-2.22-.56s-1.11-.9-1.45-1.57-.51-1.46-.51-2.36.17-1.69.51-2.37c.34-.68.83-1.2,1.45-1.58s1.36-.56,2.22-.56,1.59.19,2.22.56,1.11.9,1.45,1.58c.34.68.51,1.47.51,2.37s-.17,1.69-.51,2.36-.83,1.2-1.45,1.57-1.36.56-2.22.56ZM877.39,651.28c.46,0,.85-.13,1.16-.38.31-.26.54-.6.7-1.03.15-.43.23-.91.23-1.44s-.08-1.02-.23-1.45-.39-.78-.7-1.04c-.31-.26-.7-.39-1.16-.39s-.87.13-1.18.39c-.31.26-.55.6-.7,1.04s-.23.92-.23,1.45.08,1.01.23,1.44c.15.43.39.78.7,1.03.31.25.71.38,1.18.38Z" fill="#fff"/>
      <path d="M888.86,649.09v-5.06h2.06v8.73h-1.99v-1.55h-.09c-.2.49-.52.89-.97,1.2-.45.31-1,.47-1.66.47-.57,0-1.08-.13-1.51-.38-.44-.26-.78-.63-1.03-1.12-.25-.49-.37-1.08-.37-1.78v-5.56h2.06v5.24c0,.55.15.99.46,1.32.3.33.7.49,1.19.49.3,0,.6-.07.88-.22s.52-.37.7-.66c.18-.29.28-.66.28-1.11Z" fill="#fff"/>
      <path d="M897.39,644.03v1.59h-5.02v-1.59h5.02ZM893.61,641.94h2.06v8.19c0,.28.04.49.13.63.08.15.2.25.34.3.14.05.3.08.47.08.13,0,.25,0,.36-.03.11-.02.19-.04.25-.05l.35,1.61c-.11.04-.27.08-.47.12-.2.04-.45.07-.74.08-.52.02-.98-.06-1.39-.24-.41-.17-.74-.44-.98-.8-.24-.36-.36-.82-.36-1.36v-8.53Z" fill="#fff"/>
      <path d="M901.35,647.65v5.11h-2.06v-11.64h2.01v4.39h.1c.21-.49.52-.88.95-1.17s.98-.43,1.64-.43c.61,0,1.13.13,1.59.38.45.25.8.62,1.05,1.11s.37,1.08.37,1.79v5.56h-2.06v-5.24c0-.59-.15-1.04-.45-1.37-.3-.33-.72-.49-1.26-.49-.36,0-.69.08-.97.24s-.51.38-.67.68-.24.65-.24,1.07Z" fill="#fff"/>
      <path d="M910.9,652.76l-2.47-8.73h2.1l1.53,6.14h.08l1.57-6.14h2.07l1.57,6.1h.08l1.51-6.1h2.1l-2.47,8.73h-2.14l-1.64-5.9h-.12l-1.64,5.9h-2.15Z" fill="#fff"/>
      <path d="M925.01,652.94c-.55,0-1.05-.1-1.49-.3-.44-.2-.79-.49-1.05-.88-.26-.39-.38-.87-.38-1.44,0-.49.09-.9.27-1.22.18-.32.43-.58.74-.77s.67-.34,1.07-.44c.4-.1.81-.17,1.23-.22.51-.05.93-.1,1.24-.14.32-.04.55-.11.7-.21.15-.09.22-.24.22-.43v-.03c0-.43-.13-.76-.38-.99-.25-.23-.62-.35-1.1-.35-.5,0-.9.11-1.2.33-.29.22-.49.48-.59.78l-1.92-.27c.15-.53.4-.97.75-1.33.35-.36.77-.63,1.28-.81.5-.18,1.06-.27,1.67-.27.42,0,.84.05,1.26.15.42.1.8.26,1.14.49.34.22.62.53.83.92.21.39.32.87.32,1.45v5.84h-1.98v-1.2h-.07c-.12.24-.3.47-.53.68-.23.21-.51.38-.85.5-.34.13-.74.19-1.19.19ZM925.54,651.43c.41,0,.77-.08,1.07-.25.3-.17.54-.38.7-.66.17-.27.25-.57.25-.89v-1.03c-.06.05-.17.1-.33.15-.15.05-.32.09-.51.12-.19.03-.38.06-.56.09s-.35.05-.48.07c-.31.04-.58.11-.82.21-.24.09-.43.23-.57.39-.14.17-.21.39-.21.65,0,.38.14.67.42.86.28.19.63.29,1.06.29Z" fill="#fff"/>
      <path d="M931.69,652.76v-8.73h1.99v1.46h.09c.16-.5.43-.89.82-1.17.39-.27.83-.41,1.33-.41.11,0,.24,0,.38.01.14,0,.26.02.36.04v1.89c-.09-.03-.22-.06-.41-.08-.19-.03-.37-.04-.54-.04-.38,0-.71.08-1.01.24-.3.16-.53.38-.7.67-.17.28-.26.61-.26.98v5.13h-2.06Z" fill="#fff"/>
      <path d="M938.03,652.76v-11.64h2.06v11.64h-2.06ZM939.91,650.02v-2.48s.32,0,.32,0l3.14-3.51h2.4l-3.86,4.3h-.43l-1.58,1.69ZM943.51,652.76l-2.84-3.97,1.39-1.45,3.92,5.42h-2.46Z" fill="#fff"/>
    </g>
    <g>
      <path d="M740.71,606.77h-2.12c-.06-.35-.17-.66-.33-.93-.16-.27-.37-.5-.61-.69-.24-.19-.52-.33-.83-.43s-.64-.14-1-.14c-.63,0-1.19.16-1.68.47-.49.32-.87.78-1.15,1.39-.28.61-.41,1.35-.41,2.22s.14,1.64.42,2.25c.28.61.66,1.07,1.15,1.38.49.31,1.04.46,1.67.46.35,0,.67-.05.98-.14.3-.09.58-.23.82-.41s.45-.41.62-.67c.17-.27.29-.57.35-.91h2.12c-.08.56-.25,1.08-.51,1.57-.26.49-.61.91-1.03,1.28-.42.37-.92.66-1.49.86-.57.21-1.2.31-1.89.31-1.02,0-1.94-.24-2.74-.71-.8-.47-1.44-1.16-1.9-2.05-.46-.89-.69-1.97-.69-3.22s.23-2.33.7-3.22c.47-.89,1.1-1.57,1.9-2.05s1.71-.71,2.73-.71c.65,0,1.25.09,1.81.27s1.05.45,1.49.8.79.78,1.08,1.28.47,1.08.55,1.73Z" fill="#fff"/>
      <path d="M745.07,614.66c-.55,0-1.05-.1-1.49-.3s-.79-.49-1.04-.88c-.26-.39-.38-.87-.38-1.44,0-.49.09-.9.27-1.22.18-.32.43-.58.74-.77s.67-.34,1.07-.44c.4-.1.81-.17,1.23-.22.51-.05.93-.1,1.24-.14s.55-.11.7-.21c.15-.09.22-.24.22-.43v-.03c0-.43-.13-.76-.38-.99-.25-.23-.62-.35-1.1-.35-.5,0-.9.11-1.2.33-.29.22-.49.48-.59.78l-1.92-.27c.15-.53.4-.97.75-1.33.35-.36.77-.63,1.28-.81.5-.18,1.06-.27,1.67-.27.42,0,.84.05,1.25.15.42.1.8.26,1.14.49.34.22.62.53.83.92.21.39.32.87.32,1.45v5.84h-1.98v-1.2h-.07c-.12.24-.3.47-.53.68-.22.21-.51.38-.85.5-.34.13-.74.19-1.19.19ZM745.6,613.15c.41,0,.77-.08,1.07-.25.3-.17.54-.38.7-.66.16-.27.25-.57.25-.89v-1.03c-.06.05-.17.1-.33.15-.15.05-.32.09-.51.12-.19.03-.38.06-.56.09s-.35.05-.48.07c-.31.04-.58.11-.82.21-.24.09-.43.23-.57.39-.14.17-.21.39-.21.65,0,.38.14.67.41.86s.63.29,1.06.29Z" fill="#fff"/>
      <path d="M751.75,614.48v-8.73h1.97v1.48h.1c.18-.5.48-.89.9-1.17.42-.28.92-.42,1.51-.42s1.09.14,1.5.43.69.68.86,1.17h.09c.19-.49.52-.87.98-1.16s1.01-.43,1.64-.43c.8,0,1.46.25,1.97.76s.76,1.25.76,2.22v5.86h-2.06v-5.54c0-.54-.14-.94-.43-1.19s-.64-.38-1.06-.38c-.5,0-.88.16-1.16.46s-.42.71-.42,1.2v5.44h-2.02v-5.62c0-.45-.14-.81-.41-1.08-.27-.27-.62-.4-1.06-.4-.3,0-.56.08-.81.22-.24.15-.44.36-.58.63-.14.27-.22.59-.22.95v5.31h-2.06Z" fill="#fff"/>
      <path d="M769.35,614.64c-.69,0-1.3-.18-1.84-.53s-.97-.86-1.28-1.53c-.31-.67-.47-1.48-.47-2.44s.16-1.79.48-2.46.75-1.17,1.3-1.52c.55-.34,1.15-.51,1.82-.51.51,0,.93.09,1.26.26.33.17.59.38.78.62s.34.47.45.68h.08v-4.35h2.06v11.64h-2.02v-1.38h-.12c-.11.21-.26.44-.46.67-.2.24-.47.44-.79.61-.33.17-.75.25-1.25.25ZM769.92,612.95c.44,0,.81-.12,1.11-.36.31-.24.54-.57.7-.99.16-.42.24-.92.24-1.48s-.08-1.06-.24-1.47c-.16-.42-.39-.74-.69-.97-.3-.23-.68-.35-1.12-.35s-.84.12-1.15.36c-.31.24-.54.57-.69.99-.16.42-.23.9-.23,1.44s.08,1.03.24,1.46.39.76.7,1.01.69.37,1.14.37Z" fill="#fff"/>
      <path d="M780.06,614.66c-.88,0-1.63-.18-2.26-.55s-1.12-.88-1.46-1.56c-.34-.67-.51-1.46-.51-2.38s.17-1.69.51-2.37.82-1.21,1.44-1.59c.62-.38,1.34-.57,2.18-.57.54,0,1.05.09,1.53.26.48.17.9.44,1.27.8.37.36.66.82.87,1.37.21.55.32,1.21.32,1.98v.63h-7.15v-1.39h5.18c0-.39-.09-.75-.25-1.05-.17-.31-.4-.55-.7-.73-.3-.18-.64-.27-1.04-.27-.42,0-.79.1-1.11.3-.32.2-.57.47-.74.79-.18.33-.27.69-.27,1.08v1.21c0,.51.09.94.28,1.3.19.36.45.64.78.83s.72.29,1.17.29c.3,0,.57-.04.81-.13.24-.08.45-.21.63-.38.18-.17.31-.37.4-.62l1.92.22c-.12.51-.35.95-.69,1.33-.34.38-.77.67-1.3.88-.53.21-1.13.31-1.81.31Z" fill="#fff"/>
      <path d="M787.74,609.37v5.11h-2.06v-8.73h1.97v1.48h.1c.2-.49.52-.88.96-1.17s.99-.43,1.64-.43c.6,0,1.13.13,1.58.39.45.26.8.63,1.05,1.12.25.49.37,1.08.37,1.78v5.56h-2.06v-5.24c0-.58-.15-1.04-.45-1.37-.3-.33-.72-.49-1.25-.49-.36,0-.68.08-.96.24s-.5.38-.65.68-.24.65-.24,1.07Z" fill="#fff"/>
    </g>
    <g>
      <path d="M802.91,568.62v-11.64h4.45c.84,0,1.54.13,2.1.4.56.26.98.62,1.26,1.08.28.46.42.97.42,1.55,0,.47-.09.88-.27,1.21-.18.33-.43.61-.73.82s-.65.36-1.03.45v.11c.41.02.81.15,1.19.38s.69.55.93.97.36.92.36,1.51-.15,1.14-.44,1.62c-.29.48-.73.86-1.32,1.13-.59.28-1.33.42-2.22.42h-4.71ZM805.02,561.93h2.08c.36,0,.69-.07.98-.2.29-.13.52-.33.69-.57.17-.25.25-.54.25-.88,0-.45-.16-.82-.47-1.11-.32-.29-.79-.44-1.41-.44h-2.13v3.21ZM805.02,566.86h2.27c.76,0,1.32-.15,1.66-.44.34-.29.51-.67.51-1.13,0-.34-.09-.66-.26-.93-.17-.28-.41-.5-.73-.66s-.69-.24-1.12-.24h-2.32v3.41Z" fill="#fff"/>
      <path d="M815.85,568.79c-.55,0-1.05-.1-1.49-.3s-.79-.49-1.04-.88c-.26-.39-.38-.87-.38-1.44,0-.49.09-.9.27-1.22.18-.32.43-.58.74-.77s.67-.34,1.07-.44c.4-.1.81-.17,1.23-.22.51-.05.93-.1,1.24-.14s.55-.11.7-.21c.15-.09.22-.24.22-.43v-.03c0-.43-.13-.76-.38-.99-.25-.23-.62-.35-1.1-.35-.5,0-.9.11-1.2.33-.29.22-.49.48-.59.78l-1.92-.27c.15-.53.4-.97.75-1.33.35-.36.77-.63,1.28-.81.5-.18,1.06-.27,1.67-.27.42,0,.84.05,1.25.15.42.1.8.26,1.14.49.34.22.62.53.83.92.21.39.32.87.32,1.45v5.84h-1.98v-1.2h-.07c-.12.24-.3.47-.53.68-.22.21-.51.38-.85.5-.34.13-.74.19-1.19.19ZM816.38,567.28c.41,0,.77-.08,1.07-.25.3-.17.54-.38.7-.66.16-.27.25-.57.25-.89v-1.03c-.06.05-.17.1-.33.15-.15.05-.32.09-.51.12-.19.03-.38.06-.56.09s-.35.05-.48.07c-.31.04-.58.11-.82.21-.24.09-.43.23-.57.39-.14.17-.21.39-.21.65,0,.38.14.67.41.86s.63.29,1.06.29Z" fill="#fff"/>
      <path d="M822.53,568.62v-8.73h1.99v1.46h.09c.16-.5.43-.89.82-1.17.39-.27.83-.41,1.33-.41.11,0,.24,0,.38.01s.26.02.36.04v1.89c-.09-.03-.22-.06-.41-.08-.19-.03-.37-.04-.54-.04-.38,0-.71.08-1.01.24-.3.16-.53.38-.7.67-.17.28-.26.61-.26.98v5.13h-2.06Z" fill="#fff"/>
      <path d="M830.94,563.51v5.11h-2.06v-8.73h1.97v1.48h.1c.2-.49.52-.88.96-1.17s.99-.43,1.64-.43c.6,0,1.13.13,1.58.39.45.26.8.63,1.05,1.12.25.49.37,1.08.37,1.78v5.56h-2.06v-5.24c0-.58-.15-1.04-.45-1.37-.3-.33-.72-.49-1.25-.49-.36,0-.68.08-.96.24s-.5.38-.65.68c-.16.3-.24.65-.24,1.07Z" fill="#fff"/>
      <path d="M842.5,568.79c-.88,0-1.63-.18-2.26-.55-.63-.37-1.12-.88-1.46-1.56-.34-.67-.51-1.46-.51-2.38s.17-1.69.51-2.37.82-1.21,1.44-1.59c.62-.38,1.34-.57,2.18-.57.54,0,1.05.09,1.53.26.48.17.9.44,1.27.8.37.36.66.82.87,1.37s.32,1.21.32,1.98v.63h-7.15v-1.39h5.18c0-.39-.09-.75-.25-1.05-.17-.31-.4-.55-.7-.73s-.64-.27-1.04-.27c-.42,0-.79.1-1.11.3-.32.2-.57.47-.74.79-.18.33-.27.69-.27,1.08v1.21c0,.51.09.94.28,1.3.19.36.45.64.78.83.33.19.72.29,1.17.29.3,0,.57-.04.81-.13.24-.08.45-.21.63-.38.18-.17.31-.37.4-.62l1.92.22c-.12.51-.35.95-.69,1.33-.34.38-.77.67-1.3.88-.53.21-1.13.31-1.81.31Z" fill="#fff"/>
      <path d="M852.48,559.89v1.59h-5.02v-1.59h5.02ZM848.7,557.8h2.06v8.19c0,.28.04.49.13.63.08.15.2.25.34.3.14.05.29.08.47.08.13,0,.25,0,.36-.03.11-.02.19-.04.25-.05l.35,1.61c-.11.04-.27.08-.47.12-.2.04-.45.07-.74.08-.51.02-.98-.06-1.39-.24-.41-.17-.74-.44-.98-.8-.24-.36-.36-.82-.35-1.36v-8.53Z" fill="#fff"/>
    </g>
  </g>
  <g>
    <path d="M435.21,667.7v-11.64h7.57v1.77h-5.46v3.16h5.07v1.77h-5.07v3.18h5.51v1.77h-7.61Z" fill="#fff"/>
    <path d="M444.84,670.97v-12h2.02v1.44h.12c.11-.21.26-.44.45-.68.19-.24.45-.45.78-.62.33-.17.75-.26,1.26-.26.67,0,1.28.17,1.83.51.54.34.98.85,1.3,1.52.32.67.48,1.49.48,2.46s-.16,1.77-.47,2.44c-.31.67-.74,1.18-1.28,1.53-.54.35-1.16.53-1.84.53-.5,0-.91-.08-1.24-.25s-.59-.37-.79-.61c-.2-.24-.35-.46-.46-.67h-.08v4.65h-2.06ZM446.85,663.34c0,.56.08,1.06.24,1.48.16.42.39.75.7.99.3.24.68.36,1.11.36s.84-.12,1.14-.37.54-.58.7-1.01.24-.91.24-1.46-.08-1.02-.23-1.44c-.16-.42-.39-.75-.69-.99-.31-.24-.69-.36-1.15-.36s-.81.12-1.12.35c-.31.23-.54.55-.7.97-.16.42-.24.91-.24,1.47Z" fill="#fff"/>
    <path d="M461.73,661.28l-1.88.21c-.05-.19-.15-.37-.28-.53-.13-.17-.31-.3-.53-.4s-.49-.15-.81-.15c-.43,0-.79.09-1.08.28-.29.19-.43.43-.43.72,0,.25.09.46.28.62s.51.29.95.39l1.49.32c.83.18,1.44.46,1.84.85.4.39.61.89.61,1.52,0,.55-.16,1.03-.48,1.45-.32.42-.75.75-1.32.98-.56.23-1.2.35-1.93.35-1.07,0-1.93-.22-2.58-.67-.65-.45-1.04-1.07-1.17-1.88l2.01-.19c.09.39.28.69.58.89.3.2.68.3,1.15.3s.88-.1,1.18-.3c.3-.2.45-.45.45-.74,0-.25-.1-.46-.29-.62-.19-.16-.49-.29-.89-.38l-1.49-.31c-.84-.17-1.46-.47-1.86-.88-.4-.42-.6-.94-.6-1.58,0-.54.14-1,.44-1.4s.71-.7,1.24-.92c.53-.22,1.15-.33,1.84-.33,1.02,0,1.83.22,2.42.65s.95,1.02,1.09,1.77Z" fill="#fff"/>
    <path d="M467.42,667.87c-.85,0-1.59-.19-2.22-.56s-1.11-.9-1.45-1.57-.51-1.46-.51-2.36.17-1.69.51-2.37c.34-.68.83-1.2,1.45-1.58s1.36-.56,2.22-.56,1.59.19,2.22.56,1.11.9,1.45,1.58c.34.68.51,1.47.51,2.37s-.17,1.69-.51,2.36-.83,1.2-1.45,1.57-1.36.56-2.22.56ZM467.43,666.22c.46,0,.85-.13,1.16-.38.31-.26.54-.6.7-1.03.15-.43.23-.91.23-1.44s-.08-1.02-.23-1.45-.39-.78-.7-1.04c-.31-.26-.7-.39-1.16-.39s-.87.13-1.18.39c-.31.26-.55.6-.7,1.04s-.23.92-.23,1.45.08,1.01.23,1.44c.15.43.39.78.7,1.03.31.25.71.38,1.18.38Z" fill="#fff"/>
    <path d="M473.34,667.7v-8.73h1.97v1.48h.1c.18-.5.48-.89.9-1.17.42-.28.92-.42,1.51-.42s1.09.14,1.5.43.69.68.86,1.17h.09c.19-.49.52-.87.98-1.16s1.01-.43,1.64-.43c.8,0,1.46.25,1.97.76.51.51.76,1.25.76,2.22v5.86h-2.06v-5.54c0-.54-.14-.94-.43-1.19s-.64-.38-1.06-.38c-.5,0-.88.16-1.16.46s-.42.71-.42,1.2v5.44h-2.02v-5.62c0-.45-.14-.81-.41-1.08-.27-.27-.62-.4-1.06-.4-.29,0-.56.08-.81.22-.24.15-.44.36-.58.63-.14.27-.22.59-.22.95v5.31h-2.06Z" fill="#fff"/>
    <path d="M495.15,667.87c-.8,0-1.48-.14-2.05-.43-.57-.29-1.01-.68-1.32-1.17-.31-.49-.46-1.04-.46-1.66,0-.47.1-.88.29-1.24.19-.36.46-.69.8-1,.34-.31.73-.61,1.18-.92l2.06-1.4c.3-.2.53-.41.69-.62s.24-.48.24-.77c0-.25-.11-.49-.32-.71-.21-.22-.5-.33-.87-.33-.25,0-.46.06-.65.17-.19.12-.33.27-.44.45-.1.19-.16.38-.16.59,0,.25.07.51.21.77.14.26.33.53.56.81.23.28.47.58.74.89l5.46,6.4h-2.23l-4.53-5.19c-.34-.39-.66-.78-.97-1.17-.31-.38-.57-.78-.77-1.2-.2-.42-.3-.87-.3-1.35,0-.55.13-1.04.38-1.47s.61-.78,1.07-1.03c.46-.25.99-.38,1.6-.38s1.14.12,1.58.36c.44.24.78.56,1.02.97.24.4.36.84.36,1.31,0,.55-.14,1.04-.41,1.47s-.65.83-1.14,1.18l-2.35,1.72c-.39.28-.66.56-.83.85s-.25.53-.25.73c0,.31.08.58.23.83s.37.45.66.6.61.22.99.22c.42,0,.83-.09,1.23-.28s.78-.46,1.11-.8c.33-.35.6-.77.8-1.25.2-.49.29-1.03.29-1.62h1.77c0,.74-.08,1.38-.25,1.92-.16.54-.37,1-.63,1.38-.26.37-.53.67-.82.89-.09.06-.18.13-.26.19s-.17.13-.26.19c-.41.37-.89.64-1.43.82-.55.17-1.08.26-1.61.26Z" fill="#fff"/>
    <path d="M506.34,667.7v-11.64h7.57v1.77h-5.46v3.16h5.07v1.77h-5.07v3.18h5.51v1.77h-7.61Z" fill="#fff"/>
    <path d="M517.77,667.7l-2.47-8.73h2.1l1.53,6.14h.08l1.57-6.14h2.07l1.57,6.1h.08l1.51-6.1h2.1l-2.47,8.73h-2.14l-1.64-5.9h-.12l-1.64,5.9h-2.15Z" fill="#fff"/>
    <path d="M532.99,667.87c-.88,0-1.63-.18-2.26-.55s-1.12-.88-1.46-1.56c-.34-.67-.51-1.46-.51-2.38s.17-1.69.51-2.37.82-1.21,1.44-1.59c.62-.38,1.34-.57,2.18-.57.54,0,1.05.09,1.53.26.48.17.9.44,1.27.8.37.36.66.82.87,1.37.21.55.32,1.21.32,1.98v.63h-7.15v-1.39h5.18c0-.39-.09-.75-.25-1.05-.17-.31-.4-.55-.7-.73-.3-.18-.64-.27-1.04-.27-.42,0-.79.1-1.11.3-.32.2-.57.47-.74.79-.18.33-.27.69-.27,1.08v1.21c0,.51.09.94.28,1.3.19.36.45.64.78.83s.72.29,1.17.29c.3,0,.57-.04.81-.13.24-.08.45-.21.63-.38.18-.17.31-.37.4-.62l1.92.22c-.12.51-.35.95-.69,1.33-.34.38-.77.67-1.3.88-.53.21-1.13.31-1.81.31Z" fill="#fff"/>
    <path d="M540.67,656.06v11.64h-2.06v-11.64h2.06Z" fill="#fff"/>
    <path d="M544.84,656.06v11.64h-2.06v-11.64h2.06Z" fill="#fff"/>
  </g>
  <g>
    <path d="M385.48,547.48v-11.64h4.45c.84,0,1.54.13,2.1.4.56.26.98.62,1.26,1.08.28.46.42.97.42,1.55,0,.47-.09.88-.27,1.21-.18.33-.43.61-.73.82-.31.21-.65.36-1.03.45v.11c.41.02.81.15,1.19.38s.69.55.93.97c.24.42.36.92.36,1.51s-.15,1.14-.44,1.62c-.29.48-.73.86-1.32,1.13-.59.28-1.33.42-2.22.42h-4.71ZM387.58,540.79h2.08c.36,0,.69-.07.98-.2.29-.13.52-.33.69-.57s.25-.54.25-.88c0-.45-.16-.82-.47-1.11-.32-.29-.79-.44-1.41-.44h-2.13v3.21ZM387.58,545.72h2.27c.76,0,1.32-.15,1.66-.44.34-.29.51-.67.51-1.13,0-.34-.09-.66-.26-.93s-.41-.5-.73-.66-.69-.24-1.12-.24h-2.32v3.41Z" fill="#fff"/>
    <path d="M401.46,543.81v-5.06h2.06v8.73h-1.99v-1.55h-.09c-.2.49-.52.89-.97,1.2s-1,.47-1.66.47c-.57,0-1.08-.13-1.51-.38-.44-.26-.78-.63-1.03-1.12-.25-.49-.37-1.08-.37-1.78v-5.56h2.06v5.24c0,.55.15.99.45,1.32.3.33.7.49,1.19.49.3,0,.6-.07.88-.22s.52-.37.7-.66c.18-.29.28-.66.28-1.11Z" fill="#fff"/>
    <path d="M409.44,547.65c-.87,0-1.62-.19-2.24-.57s-1.1-.91-1.44-1.59c-.33-.68-.5-1.46-.5-2.34s.17-1.67.51-2.35c.34-.68.82-1.21,1.45-1.59.62-.38,1.36-.57,2.21-.57.71,0,1.34.13,1.88.39.55.26.98.62,1.31,1.1s.51,1.02.56,1.65h-1.97c-.08-.42-.27-.77-.57-1.05s-.69-.42-1.19-.42c-.42,0-.79.11-1.11.34-.32.23-.57.55-.74.97s-.26.92-.26,1.51.09,1.1.26,1.53c.17.43.42.75.74.98.32.23.69.34,1.12.34.3,0,.57-.06.81-.17.24-.12.44-.28.61-.5.16-.22.27-.49.33-.8h1.97c-.05.62-.23,1.16-.55,1.64s-.74.85-1.28,1.11c-.54.27-1.18.4-1.91.4Z" fill="#fff"/>
    <path d="M414.87,547.48v-11.64h2.06v11.64h-2.06ZM416.75,544.74v-2.48s.32,0,.32,0l3.14-3.51h2.4l-3.86,4.3h-.43l-1.58,1.69ZM420.35,547.48l-2.84-3.97,1.39-1.45,3.91,5.42h-2.46Z" fill="#fff"/>
    <path d="M425.01,537.51c-.33,0-.61-.11-.84-.33-.23-.22-.35-.48-.35-.79s.12-.57.35-.79.52-.33.84-.33.61.11.84.33c.23.22.35.48.35.79s-.12.57-.35.79c-.23.22-.51.33-.84.33ZM423.98,547.48v-8.73h2.06v8.73h-2.06Z" fill="#fff"/>
    <path d="M430.2,542.37v5.11h-2.06v-8.73h1.97v1.48h.1c.2-.49.52-.88.96-1.17s.99-.43,1.64-.43c.6,0,1.13.13,1.58.39.45.26.8.63,1.05,1.12.25.49.37,1.08.37,1.78v5.56h-2.06v-5.24c0-.58-.15-1.04-.45-1.37-.3-.33-.72-.49-1.25-.49-.36,0-.68.08-.96.24s-.5.38-.65.68-.24.65-.24,1.07Z" fill="#fff"/>
    <path d="M441.7,550.93c-.74,0-1.37-.1-1.9-.3s-.96-.46-1.28-.8c-.32-.33-.55-.7-.67-1.11l1.85-.45c.08.17.2.34.36.51s.37.31.64.42c.27.11.61.17,1.03.17.58,0,1.07-.14,1.45-.42s.57-.75.57-1.39v-1.65h-.1c-.11.21-.26.43-.46.65-.2.22-.47.41-.8.56-.33.15-.75.23-1.25.23-.67,0-1.28-.16-1.82-.47-.54-.32-.98-.79-1.3-1.42-.32-.63-.48-1.42-.48-2.37s.16-1.77.48-2.43.75-1.16,1.3-1.51c.54-.34,1.15-.51,1.82-.51.51,0,.93.09,1.26.26.33.17.6.38.79.62.2.24.35.47.45.68h.11v-1.44h2.03v8.87c0,.75-.18,1.36-.53,1.85-.36.49-.84.85-1.46,1.1-.62.24-1.32.36-2.1.36ZM441.71,545.74c.44,0,.81-.11,1.11-.32.31-.21.54-.52.7-.92s.24-.88.24-1.43-.08-1.03-.24-1.44-.39-.73-.69-.96-.68-.34-1.12-.34-.84.12-1.15.36c-.31.24-.54.57-.69.98s-.23.89-.23,1.41.08,1,.24,1.4.39.71.7.93c.31.22.69.33,1.14.33Z" fill="#fff"/>
    <path d="M449.96,542.37v5.11h-2.06v-11.64h2.01v4.39h.1c.2-.49.52-.88.95-1.17s.98-.43,1.64-.43c.61,0,1.13.13,1.59.38.45.25.8.62,1.05,1.11s.37,1.08.37,1.79v5.56h-2.06v-5.24c0-.59-.15-1.04-.45-1.37-.3-.33-.72-.49-1.26-.49-.36,0-.69.08-.97.24s-.51.38-.67.68c-.16.3-.24.65-.24,1.07Z" fill="#fff"/>
    <path d="M460.22,547.65c-.55,0-1.05-.1-1.49-.3-.44-.2-.79-.49-1.05-.88-.26-.39-.38-.87-.38-1.44,0-.49.09-.9.27-1.22.18-.32.43-.58.74-.77s.67-.34,1.07-.44c.4-.1.81-.17,1.23-.22.51-.05.93-.1,1.24-.14.32-.04.55-.11.7-.21.15-.09.22-.24.22-.43v-.03c0-.43-.13-.76-.38-.99-.25-.23-.62-.35-1.1-.35-.5,0-.9.11-1.2.33-.29.22-.49.48-.59.78l-1.92-.27c.15-.53.4-.97.75-1.33.35-.36.77-.63,1.28-.81.5-.18,1.06-.27,1.67-.27.42,0,.84.05,1.26.15.42.1.8.26,1.14.49.34.22.62.53.83.92.21.39.32.87.32,1.45v5.84h-1.98v-1.2h-.07c-.12.24-.3.47-.53.68-.23.21-.51.38-.85.5-.34.13-.74.19-1.19.19ZM460.76,546.14c.41,0,.77-.08,1.07-.25.3-.17.54-.38.7-.66.17-.27.25-.57.25-.89v-1.03c-.06.05-.17.1-.33.15-.15.05-.32.09-.51.12-.19.03-.38.06-.56.09s-.35.05-.48.07c-.31.04-.58.11-.82.21-.24.09-.43.23-.57.39-.14.17-.21.39-.21.65,0,.38.14.67.42.86.28.19.63.29,1.06.29Z" fill="#fff"/>
    <path d="M466.91,547.48v-8.73h1.97v1.48h.1c.18-.5.48-.89.9-1.17.42-.28.92-.42,1.51-.42s1.09.14,1.5.43.69.68.86,1.17h.09c.19-.49.52-.87.98-1.16s1.01-.43,1.64-.43c.8,0,1.46.25,1.97.76.51.51.76,1.25.76,2.22v5.86h-2.06v-5.54c0-.54-.14-.94-.43-1.19s-.64-.38-1.06-.38c-.5,0-.88.16-1.16.46s-.42.71-.42,1.2v5.44h-2.02v-5.62c0-.45-.14-.81-.41-1.08-.27-.27-.62-.4-1.06-.4-.29,0-.56.08-.81.22-.24.15-.44.36-.58.63-.14.27-.22.59-.22.95v5.31h-2.06Z" fill="#fff"/>
    <path d="M488.17,541.06l-1.88.21c-.05-.19-.14-.37-.28-.53s-.31-.3-.53-.4-.49-.15-.81-.15c-.43,0-.79.09-1.08.28-.29.19-.43.43-.43.72,0,.25.09.46.28.62s.51.29.95.39l1.49.32c.83.18,1.44.46,1.84.85.4.39.61.89.61,1.52,0,.55-.16,1.03-.48,1.45-.32.42-.75.75-1.32.98-.56.23-1.21.35-1.93.35-1.07,0-1.93-.22-2.58-.67s-1.04-1.07-1.16-1.88l2-.19c.09.39.28.69.58.89.29.2.68.3,1.15.3s.88-.1,1.18-.3c.3-.2.45-.45.45-.74,0-.25-.1-.46-.29-.62-.19-.16-.49-.29-.89-.38l-1.49-.31c-.84-.17-1.46-.47-1.86-.88-.4-.42-.6-.94-.6-1.58,0-.54.14-1,.44-1.4.3-.4.71-.7,1.24-.92.53-.22,1.15-.33,1.84-.33,1.02,0,1.83.22,2.42.65.59.44.95,1.02,1.09,1.77Z" fill="#fff"/>
    <path d="M492.11,542.37v5.11h-2.06v-11.64h2.01v4.39h.1c.2-.49.52-.88.95-1.17s.98-.43,1.64-.43c.61,0,1.13.13,1.59.38.45.25.8.62,1.05,1.11s.37,1.08.37,1.79v5.56h-2.06v-5.24c0-.59-.15-1.04-.45-1.37-.3-.33-.72-.49-1.26-.49-.36,0-.69.08-.97.24s-.51.38-.67.68c-.16.3-.24.65-.24,1.07Z" fill="#fff"/>
    <path d="M500.89,537.51c-.33,0-.61-.11-.84-.33-.24-.22-.35-.48-.35-.79s.12-.57.35-.79c.23-.22.51-.33.84-.33s.61.11.84.33c.23.22.35.48.35.79s-.12.57-.35.79c-.23.22-.51.33-.84.33ZM499.86,547.48v-8.73h2.06v8.73h-2.06Z" fill="#fff"/>
    <path d="M504.03,547.48v-8.73h1.99v1.46h.09c.16-.5.43-.89.82-1.17.39-.27.83-.41,1.33-.41.11,0,.24,0,.38.01.14,0,.26.02.36.04v1.89c-.09-.03-.22-.06-.41-.08-.19-.03-.37-.04-.54-.04-.38,0-.71.08-1.01.24-.3.16-.53.38-.7.67-.17.28-.26.61-.26.98v5.13h-2.06Z" fill="#fff"/>
    <path d="M513.88,547.65c-.88,0-1.63-.18-2.26-.55s-1.12-.88-1.46-1.56c-.34-.67-.51-1.46-.51-2.38s.17-1.69.51-2.37.82-1.21,1.44-1.59c.62-.38,1.34-.57,2.18-.57.54,0,1.05.09,1.53.26.48.17.9.44,1.27.8.37.36.66.82.87,1.37.21.55.32,1.21.32,1.98v.63h-7.15v-1.39h5.18c0-.39-.09-.75-.25-1.05-.17-.31-.4-.55-.7-.73-.3-.18-.64-.27-1.04-.27-.42,0-.79.1-1.11.3-.32.2-.57.47-.74.79-.18.33-.27.69-.27,1.08v1.21c0,.51.09.94.28,1.3.19.36.45.64.78.83s.72.29,1.17.29c.3,0,.57-.04.81-.13.24-.08.45-.21.63-.38.18-.17.31-.37.4-.62l1.92.22c-.12.51-.35.95-.69,1.33-.34.38-.77.67-1.3.88-.53.21-1.13.31-1.81.31Z" fill="#fff"/>
  </g>
  <g>
    <path d="M275.37,522.62v-1.77h9.28v1.77h-3.6v9.87h-2.09v-9.87h-3.6Z" fill="#fff"/>
    <path d="M288.94,532.66c-.88,0-1.63-.18-2.26-.55s-1.12-.88-1.46-1.56c-.34-.67-.51-1.46-.51-2.38s.17-1.69.51-2.37.82-1.21,1.44-1.59c.62-.38,1.34-.57,2.18-.57.54,0,1.05.09,1.53.26.48.17.9.44,1.27.8.37.36.66.82.87,1.37s.32,1.21.32,1.98v.63h-7.15v-1.39h5.18c0-.39-.09-.75-.26-1.05-.17-.31-.4-.55-.7-.73s-.64-.27-1.04-.27c-.42,0-.79.1-1.11.3-.32.2-.57.47-.74.79-.18.33-.27.69-.27,1.08v1.21c0,.51.09.94.28,1.3.19.36.44.64.78.83s.72.29,1.17.29c.3,0,.57-.04.81-.13.24-.08.45-.21.63-.38.18-.17.31-.37.4-.62l1.92.22c-.12.51-.35.95-.69,1.33-.34.38-.77.67-1.3.88-.53.21-1.13.31-1.81.31Z" fill="#fff"/>
    <path d="M296.31,532.49l-2.47-8.73h2.1l1.53,6.14h.08l1.57-6.14h2.07l1.57,6.1h.09l1.51-6.1h2.1l-2.47,8.73h-2.14l-1.64-5.9h-.12l-1.64,5.9h-2.15Z" fill="#fff"/>
    <path d="M307.91,532.49v-11.64h2.06v11.64h-2.06ZM309.78,529.75v-2.48s.32,0,.32,0l3.14-3.51h2.4l-3.86,4.3h-.43l-1.58,1.69ZM313.39,532.49l-2.84-3.97,1.39-1.45,3.91,5.42h-2.46Z" fill="#fff"/>
    <path d="M320.51,532.66c-.88,0-1.63-.18-2.26-.55s-1.12-.88-1.46-1.56c-.34-.67-.51-1.46-.51-2.38s.17-1.69.51-2.37.82-1.21,1.44-1.59c.62-.38,1.34-.57,2.18-.57.54,0,1.05.09,1.53.26.48.17.9.44,1.27.8.37.36.66.82.87,1.37.21.55.32,1.21.32,1.98v.63h-7.15v-1.39h5.18c0-.39-.09-.75-.25-1.05-.17-.31-.4-.55-.7-.73-.3-.18-.64-.27-1.04-.27-.42,0-.79.1-1.11.3-.32.2-.57.47-.74.79-.18.33-.27.69-.27,1.08v1.21c0,.51.09.94.28,1.3.19.36.45.64.78.83s.72.29,1.17.29c.3,0,.57-.04.81-.13.24-.08.45-.21.63-.38.18-.17.31-.37.4-.62l1.92.22c-.12.51-.35.95-.69,1.33-.34.38-.77.67-1.3.88-.53.21-1.13.31-1.81.31Z" fill="#fff"/>
    <path d="M333.03,526.07l-1.88.21c-.05-.19-.14-.37-.28-.53s-.31-.3-.53-.4-.49-.15-.81-.15c-.43,0-.79.09-1.08.28-.29.19-.43.43-.43.72,0,.25.09.46.28.62s.51.29.95.39l1.49.32c.83.18,1.44.46,1.84.85.4.39.61.89.61,1.52,0,.55-.16,1.03-.48,1.45-.32.42-.75.75-1.32.98-.56.23-1.21.35-1.93.35-1.07,0-1.93-.22-2.58-.67s-1.04-1.07-1.16-1.88l2-.19c.09.39.28.69.58.89.29.2.68.3,1.15.3s.88-.1,1.18-.3c.3-.2.45-.45.45-.74,0-.25-.1-.46-.29-.62-.19-.16-.49-.29-.89-.38l-1.49-.31c-.84-.17-1.46-.47-1.86-.88-.4-.42-.6-.94-.6-1.58,0-.54.14-1,.44-1.4.3-.4.71-.7,1.24-.92.53-.22,1.15-.33,1.84-.33,1.02,0,1.83.22,2.42.65.59.44.95,1.02,1.09,1.77Z" fill="#fff"/>
    <path d="M335.01,532.49v-11.64h2.06v4.35h.09c.11-.21.26-.44.45-.68.19-.24.46-.45.78-.62.33-.17.75-.26,1.26-.26.67,0,1.28.17,1.83.51.54.34.98.85,1.3,1.52s.48,1.49.48,2.46-.16,1.77-.47,2.44c-.31.67-.74,1.18-1.28,1.53-.54.35-1.16.53-1.84.53-.5,0-.92-.08-1.24-.25-.33-.17-.59-.37-.79-.61-.2-.24-.35-.46-.46-.67h-.12v1.38h-2.02ZM337.02,528.13c0,.56.08,1.06.24,1.48.16.42.39.75.7.99.3.24.67.36,1.11.36s.83-.12,1.14-.37c.31-.24.54-.58.7-1.01s.24-.91.24-1.46-.08-1.02-.23-1.44c-.16-.42-.39-.75-.69-.99-.31-.24-.69-.36-1.15-.36s-.81.12-1.12.35c-.31.23-.54.55-.7.97-.16.42-.24.91-.24,1.47Z" fill="#fff"/>
    <path d="M350.56,528.82v-5.06h2.06v8.73h-1.99v-1.55h-.09c-.2.49-.52.89-.97,1.2s-1,.47-1.66.47c-.57,0-1.08-.13-1.51-.38-.44-.26-.78-.63-1.03-1.12-.25-.49-.37-1.08-.37-1.78v-5.56h2.06v5.24c0,.55.15.99.46,1.32.3.33.7.49,1.19.49.3,0,.6-.07.88-.22.28-.15.52-.37.7-.66.18-.29.28-.66.28-1.11Z" fill="#fff"/>
    <path d="M354.73,532.49v-8.73h1.99v1.46h.09c.16-.5.43-.89.82-1.17.39-.27.83-.41,1.33-.41.11,0,.24,0,.38.01.14,0,.26.02.36.04v1.89c-.09-.03-.22-.06-.41-.08-.19-.03-.37-.04-.54-.04-.38,0-.71.08-1.01.24-.3.16-.53.38-.7.67-.17.28-.26.61-.26.98v5.13h-2.06Z" fill="#fff"/>
    <path d="M362.63,535.76c-.28,0-.54-.02-.78-.07-.24-.04-.42-.09-.57-.15l.48-1.6c.3.09.57.13.8.12.24,0,.44-.08.62-.22.18-.14.33-.38.46-.71l.18-.47-3.17-8.91h2.18l2.01,6.59h.09l2.02-6.59h2.19l-3.49,9.78c-.16.46-.38.86-.65,1.19-.27.33-.6.58-.99.76-.39.18-.85.26-1.39.26Z" fill="#fff"/>
  </g>
  <g>
    <path d="M366.89,317.77h-3.94v-11.64h4.02c1.16,0,2.15.23,2.98.7s1.47,1.13,1.92,2c.45.87.67,1.91.67,3.11s-.22,2.25-.67,3.12c-.45.87-1.09,1.54-1.94,2s-1.85.7-3.04.7ZM365.06,315.95h1.73c.81,0,1.49-.15,2.03-.45.54-.3.95-.74,1.22-1.34.27-.59.41-1.33.41-2.22s-.14-1.63-.41-2.22c-.27-.59-.68-1.03-1.21-1.32s-1.19-.44-1.98-.44h-1.8v7.99Z" fill="#fff"/>
    <path d="M378.26,317.94c-.85,0-1.59-.19-2.22-.56s-1.11-.9-1.45-1.57-.51-1.46-.51-2.36.17-1.69.51-2.37c.34-.68.83-1.2,1.45-1.58s1.36-.56,2.22-.56,1.59.19,2.22.56,1.11.9,1.45,1.58c.34.68.51,1.47.51,2.37s-.17,1.69-.51,2.36-.83,1.2-1.45,1.57-1.36.56-2.22.56ZM378.27,316.3c.46,0,.85-.13,1.16-.38.31-.26.54-.6.7-1.03.15-.43.23-.91.23-1.44s-.08-1.02-.23-1.45-.39-.78-.7-1.04c-.31-.26-.7-.39-1.16-.39s-.87.13-1.18.39c-.31.26-.55.6-.7,1.04s-.23.92-.23,1.45.08,1.01.23,1.44c.15.43.39.78.7,1.03.31.25.71.38,1.18.38Z" fill="#fff"/>
    <path d="M386.23,312.66v5.11h-2.06v-8.73h1.97v1.48h.1c.2-.49.52-.88.96-1.17.44-.29.99-.43,1.64-.43.6,0,1.13.13,1.58.39.45.26.8.63,1.05,1.12.25.49.37,1.08.37,1.78v5.56h-2.06v-5.24c0-.58-.15-1.04-.45-1.37-.3-.33-.72-.49-1.25-.49-.36,0-.68.08-.96.24s-.5.38-.65.68c-.16.3-.24.65-.24,1.07Z" fill="#fff"/>
    <path d="M397.74,317.94c-.87,0-1.62-.19-2.24-.57s-1.1-.91-1.44-1.59c-.33-.68-.5-1.46-.5-2.34s.17-1.67.51-2.35c.34-.68.82-1.21,1.45-1.59.62-.38,1.36-.57,2.21-.57.71,0,1.34.13,1.88.39.55.26.98.62,1.31,1.1s.51,1.02.56,1.65h-1.97c-.08-.42-.27-.77-.57-1.05s-.69-.42-1.19-.42c-.42,0-.79.11-1.11.34-.32.23-.57.55-.74.97s-.26.92-.26,1.51.09,1.1.26,1.53c.17.43.42.75.74.98.32.23.69.34,1.12.34.3,0,.57-.06.81-.17.24-.12.44-.28.61-.5.16-.22.27-.49.33-.8h1.97c-.05.62-.23,1.16-.55,1.64s-.74.85-1.28,1.11c-.54.27-1.18.4-1.91.4Z" fill="#fff"/>
    <path d="M405.68,317.95c-.55,0-1.05-.1-1.49-.3s-.79-.49-1.04-.88c-.26-.39-.38-.87-.38-1.44,0-.49.09-.9.27-1.22.18-.32.43-.58.74-.77s.67-.34,1.07-.44c.39-.1.8-.17,1.23-.22.51-.05.93-.1,1.24-.14.32-.04.55-.11.7-.21.14-.09.22-.24.22-.43v-.03c0-.43-.13-.76-.38-.99-.25-.23-.62-.35-1.1-.35-.5,0-.9.11-1.2.33s-.49.48-.59.78l-1.92-.27c.15-.53.4-.97.75-1.33.35-.36.77-.63,1.28-.81.5-.18,1.06-.27,1.67-.27.42,0,.84.05,1.26.15.42.1.8.26,1.14.49.35.22.62.53.83.92.21.39.32.87.32,1.45v5.84h-1.98v-1.2h-.07c-.12.24-.3.47-.53.68-.23.21-.51.38-.85.5-.34.13-.74.19-1.19.19ZM406.22,316.44c.41,0,.77-.08,1.07-.25.3-.17.54-.38.7-.66.17-.27.25-.57.25-.89v-1.03c-.06.05-.17.1-.33.15-.15.05-.32.09-.51.12-.19.03-.38.06-.56.09s-.35.05-.48.07c-.31.04-.58.11-.82.21s-.43.23-.57.39c-.14.17-.21.39-.21.65,0,.38.14.67.41.86s.63.29,1.06.29Z" fill="#fff"/>
    <path d="M419.26,311.35l-1.88.21c-.05-.19-.14-.37-.28-.53s-.31-.3-.53-.4-.49-.15-.81-.15c-.43,0-.79.09-1.08.28-.29.19-.43.43-.43.72,0,.25.09.46.28.62s.51.29.95.39l1.49.32c.83.18,1.44.46,1.84.85.4.39.61.89.61,1.52,0,.55-.16,1.03-.48,1.45-.32.42-.75.75-1.32.98-.56.23-1.21.35-1.93.35-1.07,0-1.93-.22-2.58-.67s-1.04-1.07-1.16-1.88l2-.19c.09.39.28.69.58.89.29.2.68.3,1.15.3s.88-.1,1.18-.3c.3-.2.45-.45.45-.74,0-.25-.1-.46-.29-.62-.19-.16-.49-.29-.89-.38l-1.49-.31c-.84-.17-1.46-.47-1.86-.88-.4-.42-.6-.94-.6-1.58,0-.54.14-1,.44-1.4.3-.4.71-.7,1.24-.92.53-.22,1.15-.33,1.84-.33,1.02,0,1.83.22,2.42.65.59.44.95,1.02,1.09,1.77Z" fill="#fff"/>
    <path d="M425.51,309.05v1.59h-5.02v-1.59h5.02ZM421.73,306.96h2.06v8.19c0,.28.04.49.13.63.08.15.2.25.34.3.14.05.29.08.47.08.13,0,.25,0,.36-.03.11-.02.19-.04.25-.05l.35,1.61c-.11.04-.27.08-.47.12-.2.04-.45.07-.74.08-.51.02-.98-.06-1.39-.24-.41-.17-.74-.44-.98-.8-.24-.36-.36-.82-.35-1.36v-8.53Z" fill="#fff"/>
    <path d="M431,317.94c-.88,0-1.63-.18-2.26-.55s-1.12-.88-1.46-1.56c-.34-.67-.51-1.46-.51-2.38s.17-1.69.51-2.37.82-1.21,1.44-1.59c.62-.38,1.34-.57,2.18-.57.54,0,1.05.09,1.53.26.48.17.9.44,1.27.8.37.36.66.82.87,1.37.21.55.32,1.21.32,1.98v.63h-7.15v-1.39h5.18c0-.39-.09-.75-.25-1.05-.17-.31-.4-.55-.7-.73-.3-.18-.64-.27-1.04-.27-.42,0-.79.1-1.11.3-.32.2-.57.47-.74.79-.18.33-.27.69-.27,1.08v1.21c0,.51.09.94.28,1.3.19.36.45.64.78.83s.72.29,1.17.29c.3,0,.57-.04.81-.13.24-.08.45-.21.63-.38.18-.17.31-.37.4-.62l1.92.22c-.12.51-.35.95-.69,1.33-.34.38-.77.67-1.3.88-.53.21-1.13.31-1.81.31Z" fill="#fff"/>
    <path d="M436.62,317.77v-8.73h1.99v1.46h.09c.16-.5.43-.89.82-1.17.39-.27.83-.41,1.33-.41.11,0,.24,0,.38.01.14,0,.26.02.36.04v1.89c-.09-.03-.22-.06-.41-.08-.19-.03-.37-.04-.54-.04-.38,0-.71.08-1.01.24-.3.16-.53.38-.7.67-.17.28-.26.61-.26.98v5.13h-2.06Z" fill="#fff"/>
  </g>
  <g>
    <path d="M317.34,163.25c-.09-.31-.22-.58-.39-.83-.17-.24-.36-.45-.59-.63-.23-.17-.49-.31-.79-.39s-.62-.13-.97-.13c-.62,0-1.18.16-1.67.47-.49.31-.87.78-1.15,1.38-.28.61-.42,1.35-.42,2.22s.14,1.62.41,2.23c.28.61.66,1.07,1.15,1.39.49.32,1.06.47,1.72.47.59,0,1.1-.11,1.54-.34.43-.23.77-.55,1-.97.23-.42.35-.91.35-1.47l.48.07h-3.16v-1.65h4.72v1.4c0,1-.21,1.86-.64,2.58-.42.73-1.01,1.29-1.75,1.68-.74.39-1.59.59-2.56.59-1.07,0-2.01-.24-2.82-.72-.81-.48-1.44-1.17-1.89-2.06-.45-.89-.68-1.95-.68-3.18,0-.94.13-1.78.4-2.52.27-.74.64-1.37,1.12-1.88.48-.52,1.05-.91,1.69-1.18.65-.27,1.35-.41,2.11-.41.64,0,1.24.09,1.8.28s1.05.45,1.49.8.79.75,1.07,1.23.46,1,.55,1.57h-2.15Z" fill="#fff"/>
    <path d="M324.05,171.35c-.55,0-1.05-.1-1.49-.3s-.79-.49-1.05-.88c-.26-.39-.38-.87-.38-1.44,0-.49.09-.9.27-1.22.18-.32.43-.58.74-.77s.67-.34,1.07-.44c.4-.1.81-.17,1.23-.22.51-.05.93-.1,1.24-.14s.55-.11.7-.21c.15-.09.22-.24.22-.43v-.03c0-.43-.13-.76-.38-.99-.25-.23-.62-.35-1.1-.35-.5,0-.9.11-1.2.33-.29.22-.49.48-.59.78l-1.92-.27c.15-.53.4-.97.75-1.33.35-.36.77-.63,1.28-.81.5-.18,1.06-.27,1.67-.27.42,0,.84.05,1.26.15.42.1.8.26,1.14.49.34.22.62.53.83.92.21.39.32.87.32,1.45v5.84h-1.98v-1.2h-.07c-.12.24-.3.47-.53.68-.23.21-.51.38-.85.5-.34.13-.74.19-1.19.19ZM324.58,169.84c.41,0,.77-.08,1.07-.25.3-.17.54-.38.7-.66.16-.27.25-.57.25-.89v-1.03c-.06.05-.17.1-.33.15-.15.05-.32.09-.51.12-.19.03-.38.06-.56.09s-.35.05-.48.07c-.31.04-.58.11-.82.21-.24.09-.43.23-.57.39-.14.17-.21.39-.21.65,0,.38.14.67.41.86s.63.29,1.06.29Z" fill="#fff"/>
    <path d="M335.09,162.45v1.59h-5.02v-1.59h5.02ZM331.31,160.35h2.06v8.19c0,.28.04.49.13.63.09.15.2.25.34.3.14.05.3.08.47.08.13,0,.25,0,.35-.03.11-.02.19-.04.25-.05l.35,1.61c-.11.04-.27.08-.47.12-.2.04-.45.07-.74.08-.52.02-.98-.06-1.39-.24-.41-.17-.74-.44-.98-.8-.24-.36-.36-.82-.36-1.36v-8.53Z" fill="#fff"/>
    <path d="M340.58,171.34c-.88,0-1.63-.18-2.26-.55s-1.12-.88-1.46-1.56c-.34-.67-.51-1.46-.51-2.38s.17-1.69.51-2.37.82-1.21,1.44-1.59c.62-.38,1.34-.57,2.18-.57.54,0,1.05.09,1.53.26.48.17.9.44,1.27.8.37.36.66.82.87,1.37s.32,1.21.32,1.98v.63h-7.15v-1.39h5.18c0-.39-.09-.75-.26-1.05-.17-.31-.4-.55-.7-.73s-.64-.27-1.04-.27c-.42,0-.79.1-1.11.3-.32.2-.57.47-.74.79-.18.33-.27.69-.27,1.08v1.21c0,.51.09.94.28,1.3.19.36.44.64.78.83s.72.29,1.17.29c.3,0,.57-.04.81-.13.24-.08.45-.21.63-.38.18-.17.31-.37.4-.62l1.92.22c-.12.51-.35.95-.69,1.33-.34.38-.77.67-1.3.88-.53.21-1.13.31-1.81.31Z" fill="#fff"/>
    <path d="M353.1,164.75l-1.88.21c-.05-.19-.14-.37-.28-.53s-.31-.3-.53-.4-.49-.15-.81-.15c-.43,0-.79.09-1.08.28-.29.19-.43.43-.43.72,0,.25.09.46.28.62s.51.29.95.39l1.49.32c.83.18,1.44.46,1.84.85.4.39.61.89.61,1.52,0,.55-.16,1.03-.48,1.45-.32.42-.75.75-1.32.98-.56.23-1.21.35-1.93.35-1.07,0-1.93-.22-2.58-.67-.65-.45-1.04-1.07-1.17-1.88l2.01-.19c.09.39.28.69.58.89.3.2.68.3,1.15.3s.88-.1,1.18-.3c.3-.2.45-.45.45-.74,0-.25-.1-.46-.29-.62-.19-.16-.49-.29-.89-.38l-1.49-.31c-.84-.17-1.46-.47-1.86-.88-.4-.42-.6-.94-.6-1.58,0-.54.14-1,.44-1.4s.71-.7,1.24-.92c.53-.22,1.15-.33,1.84-.33,1.02,0,1.83.22,2.42.65.59.44.95,1.02,1.09,1.77Z" fill="#fff"/>
    <path d="M357.04,166.06v5.11h-2.06v-11.64h2.01v4.39h.1c.2-.49.52-.88.95-1.17s.98-.43,1.64-.43c.61,0,1.13.13,1.59.38.45.25.8.62,1.05,1.11s.37,1.08.37,1.79v5.56h-2.06v-5.24c0-.59-.15-1.04-.45-1.37-.3-.33-.72-.49-1.26-.49-.36,0-.69.08-.97.24s-.51.38-.67.68c-.16.3-.24.65-.24,1.07Z" fill="#fff"/>
    <path d="M368.66,171.34c-.88,0-1.63-.18-2.26-.55s-1.12-.88-1.46-1.56c-.34-.67-.51-1.46-.51-2.38s.17-1.69.51-2.37.82-1.21,1.44-1.59c.62-.38,1.34-.57,2.18-.57.54,0,1.05.09,1.53.26.48.17.9.44,1.27.8.37.36.66.82.87,1.37.21.55.32,1.21.32,1.98v.63h-7.15v-1.39h5.18c0-.39-.09-.75-.25-1.05-.17-.31-.4-.55-.7-.73-.3-.18-.64-.27-1.04-.27-.42,0-.79.1-1.11.3-.32.2-.57.47-.74.79-.18.33-.27.69-.27,1.08v1.21c0,.51.09.94.28,1.3.19.36.45.64.78.83s.72.29,1.17.29c.3,0,.57-.04.81-.13.24-.08.45-.21.63-.38.18-.17.31-.37.4-.62l1.92.22c-.12.51-.35.95-.69,1.33-.34.38-.77.67-1.3.88-.53.21-1.13.31-1.81.31Z" fill="#fff"/>
    <path d="M376.79,171.35c-.55,0-1.05-.1-1.49-.3-.44-.2-.79-.49-1.05-.88-.26-.39-.38-.87-.38-1.44,0-.49.09-.9.27-1.22.18-.32.43-.58.74-.77s.67-.34,1.07-.44c.4-.1.81-.17,1.23-.22.51-.05.93-.1,1.24-.14.32-.04.55-.11.7-.21.15-.09.22-.24.22-.43v-.03c0-.43-.13-.76-.38-.99-.25-.23-.62-.35-1.1-.35-.5,0-.9.11-1.2.33-.29.22-.49.48-.59.78l-1.92-.27c.15-.53.4-.97.75-1.33.35-.36.77-.63,1.28-.81.5-.18,1.06-.27,1.67-.27.42,0,.84.05,1.26.15.42.1.8.26,1.14.49.34.22.62.53.83.92.21.39.32.87.32,1.45v5.84h-1.98v-1.2h-.07c-.12.24-.3.47-.53.68-.23.21-.51.38-.85.5-.34.13-.74.19-1.19.19ZM377.32,169.84c.41,0,.77-.08,1.07-.25.3-.17.54-.38.7-.66.17-.27.25-.57.25-.89v-1.03c-.06.05-.17.1-.33.15-.15.05-.32.09-.51.12-.19.03-.38.06-.56.09s-.35.05-.48.07c-.31.04-.58.11-.82.21-.24.09-.43.23-.57.39-.14.17-.21.39-.21.65,0,.38.14.67.42.86.28.19.63.29,1.06.29Z" fill="#fff"/>
    <path d="M386.71,171.33c-.69,0-1.3-.18-1.84-.53-.54-.35-.97-.86-1.28-1.53-.31-.67-.47-1.48-.47-2.44s.16-1.79.48-2.46.75-1.17,1.3-1.52c.54-.34,1.15-.51,1.82-.51.51,0,.93.09,1.26.26.33.17.59.38.78.62s.34.47.45.68h.08v-4.35h2.06v11.64h-2.02v-1.38h-.12c-.11.21-.26.44-.46.67-.2.24-.47.44-.79.61-.33.17-.74.25-1.24.25ZM387.28,169.64c.44,0,.81-.12,1.11-.36.31-.24.54-.57.7-.99.16-.42.24-.92.24-1.48s-.08-1.06-.24-1.47c-.16-.42-.39-.74-.69-.97-.3-.23-.68-.35-1.12-.35s-.84.12-1.15.36c-.31.24-.54.57-.69.99-.16.42-.23.9-.23,1.44s.08,1.03.24,1.46.39.76.7,1.01c.31.24.69.37,1.14.37Z" fill="#fff"/>
  </g>
  <g>
    <path d="M314.6,652.29l-3.28-11.64h2.27l2.1,8.55h.11l2.24-8.55h2.06l2.24,8.56h.1l2.1-8.56h2.27l-3.28,11.64h-2.08l-2.33-8.17h-.09l-2.33,8.17h-2.08Z" fill="#fff"/>
    <path d="M331.13,652.46c-.88,0-1.63-.18-2.26-.55s-1.12-.88-1.46-1.56c-.34-.67-.51-1.46-.51-2.38s.17-1.69.51-2.37.82-1.21,1.44-1.59c.62-.38,1.34-.57,2.18-.57.54,0,1.05.09,1.53.26.48.17.9.44,1.27.8.37.36.66.82.87,1.37s.32,1.21.32,1.98v.63h-7.15v-1.39h5.18c0-.39-.09-.75-.26-1.05-.17-.31-.4-.55-.7-.73s-.64-.27-1.04-.27c-.42,0-.79.1-1.11.3-.32.2-.57.47-.74.79-.18.33-.27.69-.27,1.08v1.21c0,.51.09.94.28,1.3.19.36.44.64.78.83s.72.29,1.17.29c.3,0,.57-.04.81-.13.24-.08.45-.21.63-.38.18-.17.31-.37.4-.62l1.92.22c-.12.51-.35.95-.69,1.33-.34.38-.77.67-1.3.88-.53.21-1.13.31-1.81.31Z" fill="#fff"/>
    <path d="M343.65,645.87l-1.88.21c-.05-.19-.15-.37-.28-.53-.13-.17-.31-.3-.53-.4s-.49-.15-.81-.15c-.43,0-.79.09-1.08.28-.29.19-.43.43-.43.72,0,.25.09.46.28.62s.51.29.95.39l1.49.32c.83.18,1.44.46,1.84.85.4.39.61.89.61,1.52,0,.55-.16,1.03-.48,1.45-.32.42-.75.75-1.32.98-.56.23-1.2.35-1.93.35-1.07,0-1.93-.22-2.58-.67-.65-.45-1.04-1.07-1.17-1.88l2.01-.19c.09.39.28.69.58.89.3.2.68.3,1.15.3s.88-.1,1.18-.3c.3-.2.45-.45.45-.74,0-.25-.1-.46-.29-.62-.19-.16-.49-.29-.89-.38l-1.49-.31c-.84-.17-1.46-.47-1.86-.88-.4-.42-.6-.94-.6-1.58,0-.54.14-1,.44-1.4s.71-.7,1.24-.92c.53-.22,1.15-.33,1.84-.33,1.02,0,1.83.22,2.42.65s.95,1.02,1.09,1.77Z" fill="#fff"/>
    <path d="M349.89,643.56v1.59h-5.02v-1.59h5.02ZM346.11,641.47h2.06v8.19c0,.28.04.49.13.63.09.15.2.25.34.3.14.05.3.08.47.08.13,0,.25,0,.35-.03.11-.02.19-.04.25-.05l.35,1.61c-.11.04-.27.08-.47.12-.2.04-.45.07-.74.08-.52.02-.98-.06-1.39-.24-.41-.17-.74-.44-.98-.8-.24-.36-.36-.82-.36-1.36v-8.53Z" fill="#fff"/>
    <path d="M355.68,652.29v-11.64h4.46c.84,0,1.54.13,2.1.4.56.26.98.62,1.25,1.08.28.46.42.97.42,1.55,0,.47-.09.88-.27,1.21s-.43.61-.73.82-.65.36-1.03.45v.11c.41.02.81.15,1.19.38s.69.55.93.97.36.92.36,1.51-.15,1.14-.44,1.62c-.29.48-.73.86-1.32,1.13-.59.28-1.33.42-2.22.42h-4.71ZM357.78,645.6h2.08c.36,0,.69-.07.98-.2.29-.13.52-.33.69-.57.17-.25.25-.54.25-.88,0-.45-.16-.82-.47-1.11-.32-.29-.79-.44-1.41-.44h-2.13v3.21ZM357.78,650.52h2.27c.77,0,1.32-.15,1.66-.44.34-.29.51-.67.51-1.13,0-.34-.08-.66-.26-.93-.17-.28-.41-.5-.73-.66s-.69-.24-1.12-.24h-2.32v3.41Z" fill="#fff"/>
    <path d="M369.97,652.46c-.88,0-1.63-.18-2.26-.55s-1.12-.88-1.46-1.56c-.34-.67-.51-1.46-.51-2.38s.17-1.69.51-2.37.82-1.21,1.44-1.59c.62-.38,1.34-.57,2.18-.57.54,0,1.05.09,1.53.26.48.17.9.44,1.27.8.37.36.66.82.87,1.37.21.55.32,1.21.32,1.98v.63h-7.15v-1.39h5.18c0-.39-.09-.75-.25-1.05-.17-.31-.4-.55-.7-.73-.3-.18-.64-.27-1.04-.27-.42,0-.79.1-1.11.3-.32.2-.57.47-.74.79-.18.33-.27.69-.27,1.08v1.21c0,.51.09.94.28,1.3.19.36.45.64.78.83s.72.29,1.17.29c.3,0,.57-.04.81-.13.24-.08.45-.21.63-.38.18-.17.31-.37.4-.62l1.92.22c-.12.51-.35.95-.69,1.33-.34.38-.77.67-1.3.88-.53.21-1.13.31-1.81.31Z" fill="#fff"/>
    <path d="M375.58,652.29v-8.73h1.99v1.46h.09c.16-.5.43-.89.82-1.17.39-.27.83-.41,1.33-.41.11,0,.24,0,.38.01.14,0,.26.02.36.04v1.89c-.09-.03-.22-.06-.41-.08-.19-.03-.37-.04-.54-.04-.38,0-.71.08-1.01.24-.3.16-.53.38-.7.67-.17.28-.26.61-.26.98v5.13h-2.06Z" fill="#fff"/>
    <path d="M381.93,652.29v-11.64h2.06v11.64h-2.06ZM383.81,649.55v-2.48s.32,0,.32,0l3.14-3.51h2.4l-3.86,4.3h-.43l-1.58,1.69ZM387.41,652.29l-2.84-3.97,1.39-1.45,3.92,5.42h-2.46Z" fill="#fff"/>
    <path d="M397.93,645.87l-1.88.21c-.05-.19-.14-.37-.28-.53s-.31-.3-.53-.4-.49-.15-.81-.15c-.43,0-.79.09-1.08.28-.29.19-.43.43-.43.72,0,.25.09.46.28.62s.51.29.95.39l1.49.32c.83.18,1.44.46,1.84.85.4.39.61.89.61,1.52,0,.55-.16,1.03-.48,1.45-.32.42-.75.75-1.32.98-.56.23-1.21.35-1.93.35-1.07,0-1.93-.22-2.58-.67s-1.04-1.07-1.16-1.88l2-.19c.09.39.28.69.58.89.29.2.68.3,1.15.3s.88-.1,1.18-.3c.3-.2.45-.45.45-.74,0-.25-.1-.46-.29-.62-.19-.16-.49-.29-.89-.38l-1.49-.31c-.84-.17-1.46-.47-1.86-.88-.4-.42-.6-.94-.6-1.58,0-.54.14-1,.44-1.4.3-.4.71-.7,1.24-.92.53-.22,1.15-.33,1.84-.33,1.02,0,1.83.22,2.42.65.59.44.95,1.02,1.09,1.77Z" fill="#fff"/>
    <path d="M401.87,647.17v5.11h-2.06v-11.64h2.01v4.39h.1c.2-.49.52-.88.95-1.17s.98-.43,1.64-.43c.61,0,1.13.13,1.59.38.45.25.8.62,1.05,1.11s.37,1.08.37,1.79v5.56h-2.06v-5.24c0-.59-.15-1.04-.45-1.37-.3-.33-.72-.49-1.26-.49-.36,0-.69.08-.97.24s-.51.38-.67.68c-.16.3-.24.65-.24,1.07Z" fill="#fff"/>
    <path d="M410.66,642.32c-.33,0-.61-.11-.84-.33-.24-.22-.35-.48-.35-.79s.12-.57.35-.79c.23-.22.51-.33.84-.33s.61.11.84.33c.23.22.35.48.35.79s-.12.57-.35.79c-.23.22-.51.33-.84.33ZM409.62,652.29v-8.73h2.06v8.73h-2.06Z" fill="#fff"/>
    <path d="M413.79,652.29v-8.73h1.99v1.46h.09c.16-.5.43-.89.82-1.17.39-.27.83-.41,1.33-.41.11,0,.24,0,.38.01.14,0,.26.02.36.04v1.89c-.09-.03-.22-.06-.41-.08-.19-.03-.37-.04-.54-.04-.38,0-.71.08-1.01.24-.3.16-.53.38-.7.67-.17.28-.26.61-.26.98v5.13h-2.06Z" fill="#fff"/>
    <path d="M423.64,652.46c-.88,0-1.63-.18-2.26-.55s-1.12-.88-1.46-1.56c-.34-.67-.51-1.46-.51-2.38s.17-1.69.51-2.37.82-1.21,1.44-1.59c.62-.38,1.34-.57,2.18-.57.54,0,1.05.09,1.53.26.48.17.9.44,1.27.8.37.36.66.82.87,1.37.21.55.32,1.21.32,1.98v.63h-7.15v-1.39h5.18c0-.39-.09-.75-.25-1.05-.17-.31-.4-.55-.7-.73-.3-.18-.64-.27-1.04-.27-.42,0-.79.1-1.11.3-.32.2-.57.47-.74.79-.18.33-.27.69-.27,1.08v1.21c0,.51.09.94.28,1.3.19.36.45.64.78.83s.72.29,1.17.29c.3,0,.57-.04.81-.13.24-.08.45-.21.63-.38.18-.17.31-.37.4-.62l1.92.22c-.12.51-.35.95-.69,1.33-.34.38-.77.67-1.3.88-.53.21-1.13.31-1.81.31Z" fill="#fff"/>
  </g>
  <g>
    <path d="M319.09,593.82c-.09-.31-.22-.58-.39-.83-.17-.24-.36-.45-.59-.63-.23-.17-.49-.31-.79-.39s-.62-.13-.97-.13c-.62,0-1.18.16-1.67.47-.49.31-.87.78-1.15,1.38-.28.61-.42,1.35-.42,2.22s.14,1.62.41,2.23c.28.61.66,1.07,1.15,1.39.49.32,1.06.47,1.72.47.59,0,1.1-.11,1.54-.34.43-.23.77-.55,1-.97.23-.42.35-.91.35-1.47l.48.07h-3.16v-1.65h4.72v1.4c0,1-.21,1.86-.64,2.58-.42.73-1.01,1.29-1.75,1.68-.74.39-1.59.59-2.56.59-1.07,0-2.01-.24-2.82-.72-.81-.48-1.44-1.17-1.89-2.06-.45-.89-.68-1.95-.68-3.18,0-.94.13-1.78.4-2.52.27-.74.64-1.37,1.12-1.88.48-.52,1.05-.91,1.69-1.18.65-.27,1.35-.41,2.11-.41.64,0,1.24.09,1.8.28s1.05.45,1.49.8.79.75,1.07,1.23.46,1,.55,1.57h-2.15Z" fill="#fff"/>
    <path d="M325.34,590.1v11.64h-2.06v-11.64h2.06Z" fill="#fff"/>
    <path d="M331.26,601.91c-.85,0-1.59-.19-2.22-.56s-1.11-.9-1.45-1.57-.51-1.46-.51-2.36.17-1.69.51-2.37c.34-.68.83-1.2,1.45-1.58s1.36-.56,2.22-.56,1.59.19,2.22.56,1.11.9,1.45,1.58c.34.68.51,1.47.51,2.37s-.17,1.69-.51,2.36-.83,1.2-1.45,1.57-1.36.56-2.22.56ZM331.27,600.26c.46,0,.85-.13,1.16-.38.31-.26.54-.6.7-1.03.15-.43.23-.91.23-1.44s-.08-1.02-.23-1.45-.39-.78-.7-1.04c-.31-.26-.7-.39-1.16-.39s-.87.13-1.18.39c-.31.26-.55.6-.7,1.04s-.23.92-.23,1.45.08,1.01.23,1.44c.15.43.39.78.7,1.03.31.25.71.38,1.18.38Z" fill="#fff"/>
    <path d="M342.74,598.07v-5.06h2.06v8.73h-1.99v-1.55h-.09c-.2.49-.52.89-.97,1.2s-1,.47-1.66.47c-.57,0-1.08-.13-1.51-.38-.44-.26-.78-.63-1.03-1.12-.25-.49-.37-1.08-.37-1.78v-5.56h2.06v5.24c0,.55.15.99.45,1.32.3.33.7.49,1.19.49.3,0,.6-.07.88-.22s.52-.37.7-.66c.18-.29.28-.66.28-1.11Z" fill="#fff"/>
    <path d="M350.72,601.91c-.87,0-1.62-.19-2.24-.57s-1.1-.91-1.44-1.59c-.33-.68-.5-1.46-.5-2.34s.17-1.67.51-2.35c.34-.68.82-1.21,1.45-1.59.62-.38,1.36-.57,2.21-.57.71,0,1.34.13,1.88.39.55.26.98.62,1.31,1.1.33.47.51,1.02.56,1.65h-1.97c-.08-.42-.27-.77-.57-1.05-.3-.28-.69-.42-1.19-.42-.42,0-.79.11-1.11.34-.32.23-.57.55-.74.97s-.26.92-.26,1.51.09,1.1.26,1.53c.17.43.42.75.74.98.32.23.69.34,1.12.34.3,0,.58-.06.82-.17.24-.12.44-.28.6-.5.16-.22.28-.49.34-.8h1.97c-.05.62-.23,1.16-.55,1.64s-.74.85-1.28,1.11c-.54.27-1.18.4-1.91.4Z" fill="#fff"/>
    <path d="M360.02,601.91c-.88,0-1.63-.18-2.26-.55s-1.12-.88-1.46-1.56c-.34-.67-.51-1.46-.51-2.38s.17-1.69.51-2.37.82-1.21,1.44-1.59c.62-.38,1.34-.57,2.18-.57.54,0,1.05.09,1.53.26.48.17.9.44,1.27.8.37.36.66.82.87,1.37.21.55.32,1.21.32,1.98v.63h-7.15v-1.39h5.18c0-.39-.09-.75-.25-1.05-.17-.31-.4-.55-.7-.73-.3-.18-.64-.27-1.04-.27-.42,0-.79.1-1.11.3-.32.2-.57.47-.74.79-.18.33-.27.69-.27,1.08v1.21c0,.51.09.94.28,1.3.19.36.45.64.78.83s.72.29,1.17.29c.3,0,.57-.04.81-.13.24-.08.45-.21.63-.38.18-.17.31-.37.4-.62l1.92.22c-.12.51-.35.95-.69,1.33-.34.38-.77.67-1.3.88-.53.21-1.13.31-1.81.31Z" fill="#fff"/>
    <path d="M372.53,595.32l-1.88.21c-.05-.19-.14-.37-.28-.53s-.31-.3-.53-.4-.49-.15-.81-.15c-.43,0-.79.09-1.08.28-.29.19-.43.43-.43.72,0,.25.09.46.28.62s.51.29.95.39l1.49.32c.83.18,1.44.46,1.84.85.4.39.61.89.61,1.52,0,.55-.16,1.03-.48,1.45-.32.42-.75.75-1.32.98-.56.23-1.21.35-1.93.35-1.07,0-1.93-.22-2.58-.67s-1.04-1.07-1.16-1.88l2-.19c.09.39.28.69.58.89.29.2.68.3,1.15.3s.88-.1,1.18-.3c.3-.2.45-.45.45-.74,0-.25-.1-.46-.29-.62-.19-.16-.49-.29-.89-.38l-1.49-.31c-.84-.17-1.46-.47-1.86-.88-.4-.42-.6-.94-.6-1.58,0-.54.14-1,.44-1.4.3-.4.71-.7,1.24-.92.53-.22,1.15-.33,1.84-.33,1.02,0,1.83.22,2.42.65.59.44.95,1.02,1.09,1.77Z" fill="#fff"/>
    <path d="M378.78,593.01v1.59h-5.02v-1.59h5.02ZM375,590.92h2.06v8.19c0,.28.04.49.13.63.08.15.2.25.34.3.14.05.29.08.47.08.13,0,.25,0,.36-.03.11-.02.19-.04.25-.05l.35,1.61c-.11.04-.27.08-.47.12-.2.04-.45.07-.74.08-.51.02-.98-.06-1.39-.24-.41-.17-.74-.44-.98-.8-.24-.36-.36-.82-.35-1.36v-8.53Z" fill="#fff"/>
    <path d="M384.27,601.91c-.88,0-1.63-.18-2.26-.55s-1.12-.88-1.46-1.56c-.34-.67-.51-1.46-.51-2.38s.17-1.69.51-2.37.82-1.21,1.44-1.59c.62-.38,1.34-.57,2.18-.57.54,0,1.05.09,1.53.26.48.17.9.44,1.27.8.37.36.66.82.87,1.37.21.55.32,1.21.32,1.98v.63h-7.15v-1.39h5.18c0-.39-.09-.75-.25-1.05-.17-.31-.4-.55-.7-.73-.3-.18-.64-.27-1.04-.27-.42,0-.79.1-1.11.3-.32.2-.57.47-.74.79-.18.33-.27.69-.27,1.08v1.21c0,.51.09.94.28,1.3.19.36.45.64.78.83s.72.29,1.17.29c.3,0,.57-.04.81-.13.24-.08.45-.21.63-.38.18-.17.31-.37.4-.62l1.92.22c-.12.51-.35.95-.69,1.33-.34.38-.77.67-1.3.88-.53.21-1.13.31-1.81.31Z" fill="#fff"/>
    <path d="M389.89,601.74v-8.73h1.99v1.46h.09c.16-.5.43-.89.82-1.17.39-.27.83-.41,1.33-.41.11,0,.24,0,.38.01.14,0,.26.02.36.04v1.89c-.09-.03-.22-.06-.41-.08-.19-.03-.37-.04-.54-.04-.38,0-.71.08-1.01.24-.3.16-.53.38-.7.67-.17.28-.26.61-.26.98v5.13h-2.06Z" fill="#fff"/>
  </g>
  <g>
    <path d="M559.48,640.65h2.58l3.46,8.43h.14l3.45-8.43h2.58v11.64h-2.02v-7.99h-.11l-3.22,7.96h-1.51l-3.22-7.98h-.11v8.01h-2.02v-11.64Z" fill="#fff"/>
    <path d="M577.75,652.46c-.88,0-1.63-.18-2.26-.55-.63-.37-1.12-.88-1.46-1.56-.34-.67-.51-1.46-.51-2.38s.17-1.69.51-2.37.82-1.21,1.44-1.59c.62-.38,1.34-.57,2.18-.57.54,0,1.05.09,1.53.26.48.17.9.44,1.27.8.37.36.66.82.87,1.37s.32,1.21.32,1.98v.63h-7.15v-1.39h5.18c0-.39-.09-.75-.26-1.05-.17-.31-.4-.55-.7-.73-.3-.18-.64-.27-1.04-.27-.42,0-.79.1-1.11.3-.32.2-.57.47-.74.79-.18.33-.27.69-.27,1.08v1.21c0,.51.09.94.28,1.3.19.36.44.64.78.83.33.19.72.29,1.17.29.3,0,.57-.04.81-.13.24-.08.45-.21.63-.38s.31-.37.4-.62l1.92.22c-.12.51-.35.95-.69,1.33-.34.38-.77.67-1.3.88-.53.21-1.13.31-1.81.31Z" fill="#fff"/>
    <path d="M586.61,652.44c-.69,0-1.3-.18-1.84-.53-.54-.35-.97-.86-1.28-1.53-.31-.67-.47-1.48-.47-2.44s.16-1.79.48-2.46c.32-.67.75-1.17,1.3-1.52.55-.34,1.15-.51,1.82-.51.51,0,.93.09,1.26.26.33.17.59.38.78.62s.34.47.45.68h.08v-4.35h2.06v11.64h-2.02v-1.38h-.12c-.11.21-.26.44-.46.67-.2.24-.47.44-.8.61s-.74.25-1.24.25ZM587.18,650.75c.44,0,.81-.12,1.11-.36.31-.24.54-.57.7-.99.16-.42.24-.92.24-1.48s-.08-1.06-.24-1.47c-.16-.42-.39-.74-.69-.97-.31-.23-.68-.35-1.12-.35s-.84.12-1.15.36c-.31.24-.54.57-.69.99-.16.42-.23.9-.23,1.44s.08,1.03.24,1.46.39.76.7,1.01.69.37,1.14.37Z" fill="#fff"/>
    <path d="M595.26,652.29l-2.47-8.73h2.1l1.53,6.14h.08l1.57-6.14h2.07l1.57,6.1h.08l1.51-6.1h2.1l-2.47,8.73h-2.14l-1.64-5.9h-.12l-1.64,5.9h-2.15Z" fill="#fff"/>
    <path d="M609.36,652.46c-.55,0-1.05-.1-1.49-.3-.44-.2-.79-.49-1.05-.88-.26-.39-.38-.87-.38-1.44,0-.49.09-.9.27-1.22.18-.32.43-.58.74-.77s.67-.34,1.07-.44c.4-.1.81-.17,1.23-.22.51-.05.93-.1,1.24-.14.32-.04.55-.11.7-.21.15-.09.22-.24.22-.43v-.03c0-.43-.13-.76-.38-.99-.25-.23-.62-.35-1.1-.35-.5,0-.9.11-1.2.33-.29.22-.49.48-.59.78l-1.92-.27c.15-.53.4-.97.75-1.33.35-.36.77-.63,1.28-.81.5-.18,1.06-.27,1.67-.27.42,0,.84.05,1.26.15.42.1.8.26,1.14.49.34.22.62.53.83.92.21.39.32.87.32,1.45v5.84h-1.98v-1.2h-.07c-.12.24-.3.47-.53.68-.23.21-.51.38-.85.5-.34.13-.74.19-1.19.19ZM609.9,650.95c.41,0,.77-.08,1.07-.25.3-.17.54-.38.7-.66.17-.27.25-.57.25-.89v-1.03c-.06.05-.17.1-.33.15-.15.05-.32.09-.51.12-.19.03-.38.06-.56.09s-.35.05-.48.07c-.31.04-.58.11-.82.21-.24.09-.43.23-.57.39-.14.17-.21.39-.21.65,0,.38.14.67.42.86.28.19.63.29,1.06.29Z" fill="#fff"/>
    <path d="M617.01,655.56c-.28,0-.54-.02-.78-.07-.24-.04-.42-.09-.57-.15l.48-1.6c.3.09.57.13.8.12.24,0,.44-.08.62-.22.18-.14.33-.38.46-.71l.18-.47-3.17-8.91h2.18l2.01,6.59h.09l2.02-6.59h2.19l-3.49,9.78c-.16.46-.38.86-.65,1.19-.27.33-.6.58-.99.76-.39.18-.85.26-1.39.26Z" fill="#fff"/>
  </g>
  <circle cx="446.32" cy="565.9" r="8.5" fill="#231f20" stroke="#f6d08f" stroke-width="5"/>
  <circle cx="342.06" cy="549.46" r="8.5" fill="#231f20" stroke="#f6d08f" stroke-width="5"/>
  <circle cx="328.81" cy="574.41" r="8.5" fill="#231f20" stroke="#f6d08f" stroke-width="5"/>
  <circle cx="416.53" cy="334.68" r="8.5" fill="#231f20" stroke="#f6d08f" stroke-width="5"/>
  <circle cx="365.8" cy="144.38" r="8.5" fill="#231f20" stroke="#f6d08f" stroke-width="5"/>
  <circle cx="405.38" cy="625.22" r="8.5" fill="#231f20" stroke="#f6d08f" stroke-width="5"/>
</svg>