<?xml version="1.0" encoding="UTF-8"?>
<svg id="a" data-name="Layer_1" xmlns="http://www.w3.org/2000/svg" viewBox="0 0 66.36 66.36">
  <path d="M33.18,66.36C14.89,66.36,0,51.48,0,33.18S14.89,0,33.18,0s33.18,14.88,33.18,33.18-14.88,33.18-33.18,33.18ZM33.18,4c-16.09,0-29.18,13.09-29.18,29.18s13.09,29.18,29.18,29.18,29.18-13.09,29.18-29.18S49.27,4,33.18,4Z" fill="#28282a"/>
  <g>
    <circle cx="44.06" cy="23.98" r="3.32" fill="#28282a"/>
    <circle cx="22.35" cy="24.08" r="3.32" fill="#28282a"/>
  </g>
  <path d="M47.37,45.14h-28.35c-.83,0-1.5-.67-1.5-1.5s.67-1.5,1.5-1.5h28.35c.83,0,1.5.67,1.5,1.5s-.67,1.5-1.5,1.5Z" fill="#28282a"/>
</svg>