<?xml version="1.0" encoding="UTF-8"?>
<svg id="a" data-name="Layer_1" xmlns="http://www.w3.org/2000/svg" viewBox="0 0 66.36 66.36">
  <path d="M33.18,66.36C14.89,66.36,0,51.48,0,33.18S14.89,0,33.18,0s33.18,14.88,33.18,33.18-14.88,33.18-33.18,33.18ZM33.18,4c-16.09,0-29.18,13.09-29.18,29.18s13.09,29.18,29.18,29.18,29.18-13.09,29.18-29.18S49.27,4,33.18,4Z" fill="#28282a"/>
  <path d="M19.01,47.6c-.44,0-.88-.2-1.18-.57-.51-.65-.4-1.59.25-2.11,4.35-3.42,9.57-5.23,15.1-5.23s10.75,1.81,15.1,5.23c.65.51.76,1.46.25,2.11-.51.65-1.46.76-2.11.25-3.81-3-8.39-4.59-13.25-4.59s-9.43,1.59-13.25,4.59c-.27.22-.6.32-.93.32Z" fill="#28282a"/>
  <g>
    <circle cx="44.04" cy="23.98" r="3.32" fill="#28282a"/>
    <circle cx="22.33" cy="24.08" r="3.32" fill="#28282a"/>
  </g>
</svg>