<svg width="41" height="17" viewBox="0 0 41 17" fill="none" xmlns="http://www.w3.org/2000/svg">
<path d="M35.7608 12.1142V0.009552L31.4597 2.75187V16.4153H41V12.1142H35.7608Z" fill="white"/>
<path d="M25.3881 11.306C24.6856 11.9267 23.7619 12.3019 22.7516 12.3019C20.5481 12.3019 18.7536 10.5074 18.7536 8.30392C18.7536 6.10045 20.5481 4.30591 22.7516 4.30591C24.166 4.30591 25.4121 5.04682 26.1241 6.15818L29.7517 3.84886C28.2699 1.53473 25.6863 0 22.7516 0C19.6581 0 16.9542 1.70312 15.5253 4.21931C14.0965 1.70312 11.3974 0 8.29911 0C3.72377 0 0 3.72377 0 8.29911C0 12.8744 3.72377 16.5982 8.29911 16.5982C11.3926 16.5982 14.0965 14.8951 15.5253 12.3789C16.9542 14.8951 19.6532 16.5982 22.7516 16.5982C24.8444 16.5982 26.7592 15.8188 28.2218 14.5343L29.872 16.4154H30.127V8.96785H23.3385L25.3881 11.306ZM8.29911 12.3019C6.09563 12.3019 4.3011 10.5074 4.3011 8.30392C4.3011 6.10045 6.09563 4.30591 8.29911 4.30591C10.5026 4.30591 12.2971 6.10045 12.2971 8.30392C12.3019 10.5074 10.5074 12.3019 8.29911 12.3019Z" fill="white"/>
</svg>
